M48
INCH,TZ
T1C0.0157
T2C0.0236
T3C0.0315
T4C0.0354
T5C0.0362
T6C0.0394
T7C0.0433
T8C0.0917
T9C0.1181
%
G90
G05
T1
X20500Y-8500
X20500Y-12250
X22250Y-15250
X23000Y-15500
X25250Y-43750
X25250Y-44250
X26000Y-25750
X26000Y-29750
X26000Y-36000
X26500Y-23750
X26500Y-35250
X26783Y-30303
X27000Y-37000
X27630Y-34975
X27750Y-15000
X27750Y-24000
X28000Y-30321
X28250Y-25000
X28500Y-13750
X28500Y-24250
X28783Y-30934
X29000Y-22000
X29077Y-36217
X29250Y-42715
X29656Y-43000
X29750Y-24500
X30000Y-31000
X30000Y-35750
X30250Y-25000
X30750Y-12250
X30750Y-24750
X31000Y-13500
X31000Y-27000
X31000Y-34250
X31240Y-13073
X31250Y-34500
X31500Y-44750
X31903Y-24783
X32000Y-21750
X32000Y-25783
X32000Y-39000
X32250Y-26000
X32250Y-33250
X32500Y-12750
X32750Y-13250
X32767Y-33000
X33000Y-7750
X33000Y-31000
X33000Y-32750
X33197Y-24956
X33450Y-42400
X33500Y-26250
X33750Y-8000
X34000Y-22000
X34000Y-29750
X34153Y-25783
X34514Y-24783
X34600Y-39700
X34718Y-26468
X34750Y-37250
X34900Y-40100
X34972Y-16028
X35000Y-13000
X35000Y-21750
X35000Y-30000
X35000Y-35500
X35653Y-26033
X35722Y-15972
X36000Y-26250
X36000Y-30250
X36000Y-31000
X36000Y-40500
X36750Y-39500
X36954Y-21295
X36972Y-26778
X37000Y-30500
X37250Y-24750
X37500Y-24500
X37700Y-41550
X37960Y-27104
X38000Y-21150
X38000Y-30500
X38250Y-34250
X38500Y-25000
X38719Y-15683
X39000Y-17750
X39000Y-20850
X39000Y-24750
X39000Y-27500
X39000Y-34000
X39000Y-41800
X39226Y-12250
X39500Y-25500
X39500Y-33250
X39750Y-7750
X40000Y-15300
X40000Y-33500
X40000Y-42100
X40197Y-35657
X40500Y-8000
X40630Y-32785
X40750Y-13250
X41000Y-24500
X41000Y-31250
X41000Y-34500
X41000Y-35250
X41146Y-39014
X41250Y-8250
X41250Y-18250
X41500Y-9750
X42000Y-8500
X42000Y-25000
X42028Y-29722
X42050Y-15900
X42500Y-30750
X42500Y-32750
X42614Y-39400
X43000Y-8750
X43000Y-15300
X43000Y-21000
X43000Y-25500
X43000Y-28000
X43000Y-40800
X43150Y-16100
X43250Y-18750
X43630Y-30285
X43750Y-28000
X44000Y-9000
X44000Y-20750
X44000Y-30017
X44750Y-18250
X45000Y-9500
X45000Y-31250
X45608Y-13746
X45608Y-17350
X45750Y-38500
X46245Y-13711
X46500Y-24250
X46750Y-35750
X47000Y-10000
X47000Y-14750
X47000Y-19000
X47000Y-41800
X47500Y-28000
X47750Y-36000
X48000Y-8000
X48000Y-24000
X48000Y-35000
X48000Y-42100
X48250Y-23750
X48250Y-30250
X48264Y-38967
X48500Y-24000
X48528Y-20478
X49000Y-7750
X49000Y-9000
X49000Y-41700
X49443Y-22057
X49557Y-32057
X49876Y-16496
X50000Y-8500
X50450Y-30900
X50500Y-39250
X51000Y-14750
X51000Y-21050
X51000Y-23000
X51000Y-36071
X51000Y-38000
X51308Y-16633
X51423Y-35033
X51557Y-28715
X51750Y-13750
X51950Y-30033
X52000Y-14250
X52000Y-17250
X52000Y-19750
X52000Y-38400
X52283Y-41467
X52443Y-27257
X52500Y-36750
X52500Y-42250
X53000Y-9000
X53000Y-13750
X53000Y-18250
X53000Y-29800
X53400Y-39000
X53500Y-35250
X53557Y-27093
X54000Y-8500
X54000Y-13250
X54000Y-21000
X54000Y-41500
X54557Y-26843
X55000Y-8250
X55000Y-9000
X55000Y-12750
X55443Y-26507
X55500Y-14500
X55500Y-37750
X55750Y-11750
X56000Y-12250
X56000Y-20000
X56000Y-29450
X56000Y-42750
X56413Y-38243
X56557Y-26143
X56750Y-13500
X57000Y-11750
X57000Y-16850
X57000Y-20500
X57250Y-15000
X57250Y-17750
X57250Y-30750
X57557Y-25888
X58000Y-11250
X58000Y-42750
X58557Y-26043
X59000Y-41500
X59557Y-26993
X59557Y-32967
X60000Y-9250
X60557Y-23443
X60557Y-27307
X60750Y-35500
X61000Y-33000
X61413Y-34413
X61500Y-38500
X62700Y-8900
X62740Y-9260
X62850Y-42250
X63250Y-20500
X64050Y-17500
X64050Y-19500
T2
X23000Y-29250
X23787Y-29250
T3
X57500Y-36500
X57500Y-40500
X26000Y-18500
X30000Y-18500
X24000Y-25516
X24000Y-26500
X47000Y-30516
X47000Y-31500
X49500Y-36500
X49500Y-40500
X26000Y-20500
X30000Y-20500
X34000Y-17000
X34000Y-20000
X35000Y-17000
X35000Y-20000
X36000Y-17000
X36000Y-20000
X37000Y-17000
X37000Y-20000
X38000Y-17000
X38000Y-20000
X39000Y-17000
X39000Y-20000
X40000Y-17000
X40000Y-20000
X41000Y-17000
X41000Y-20000
X42000Y-17000
X42000Y-20000
X43000Y-17000
X43000Y-20000
X44000Y-17000
X44000Y-20000
X45000Y-17000
X45000Y-20000
X36500Y-41000
X38421Y-41000
X49000Y-10000
X49000Y-16000
X50000Y-10000
X50000Y-16000
X51000Y-10000
X51000Y-16000
X52000Y-10000
X52000Y-16000
X53000Y-10000
X53000Y-16000
X54000Y-10000
X54000Y-16000
X55000Y-10000
X55000Y-16000
X56000Y-10000
X56000Y-16000
X57000Y-10000
X57000Y-16000
X58000Y-10000
X58000Y-16000
X59000Y-10000
X59000Y-16000
X60000Y-10000
X60000Y-16000
X61000Y-10000
X61000Y-16000
X62000Y-10000
X62000Y-16000
X33000Y-41000
X33984Y-41000
X18500Y-8500
X22500Y-8500
X30000Y-9500
X30984Y-9500
X51500Y-36500
X51500Y-40500
X20500Y-39000
X21500Y-39000
X22500Y-39000
X18500Y-10500
X22500Y-10500
X30016Y-41000
X31000Y-41000
X47000Y-21500
X47000Y-22484
X25000Y-12500
X25984Y-12500
X59500Y-36500
X59500Y-40500
X49000Y-19000
X49000Y-25000
X50000Y-19000
X50000Y-25000
X51000Y-19000
X51000Y-25000
X52000Y-19000
X52000Y-25000
X53000Y-19000
X53000Y-25000
X54000Y-19000
X54000Y-25000
X55000Y-19000
X55000Y-25000
X56000Y-19000
X56000Y-25000
X57000Y-19000
X57000Y-25000
X58000Y-19000
X58000Y-25000
X59000Y-19000
X59000Y-25000
X60000Y-19000
X60000Y-25000
X61000Y-19000
X61000Y-25000
X62000Y-19000
X62000Y-25000
X55500Y-36500
X55500Y-40500
X53500Y-36500
X53500Y-40500
X47000Y-12500
X47000Y-13484
X36000Y-12500
X36000Y-13484
X24000Y-34500
X24000Y-35484
X25000Y-8500
X25984Y-8500
X38000Y-11500
X38000Y-14500
X39000Y-11500
X39000Y-14500
X40000Y-11500
X40000Y-14500
X41000Y-11500
X41000Y-14500
X42000Y-11500
X42000Y-14500
X43000Y-11500
X43000Y-14500
X44000Y-11500
X44000Y-14500
X45000Y-11500
X45000Y-14500
X26000Y-23000
X26000Y-29000
X27000Y-23000
X27000Y-29000
X28000Y-23000
X28000Y-29000
X29000Y-23000
X29000Y-29000
X30000Y-23000
X30000Y-29000
X31000Y-23000
X31000Y-29000
X32000Y-23000
X32000Y-29000
X33000Y-23000
X33000Y-29000
X34000Y-23000
X34000Y-29000
X35000Y-23000
X35000Y-29000
X36000Y-23000
X36000Y-29000
X37000Y-23000
X37000Y-29000
X38000Y-23000
X38000Y-29000
X39000Y-23000
X39000Y-29000
X40000Y-23000
X40000Y-29000
X41000Y-23000
X41000Y-29000
X42000Y-23000
X42000Y-29000
X43000Y-23000
X43000Y-29000
X44000Y-23000
X44000Y-29000
X45000Y-23000
X45000Y-29000
X49000Y-28000
X49000Y-34000
X50000Y-28000
X50000Y-34000
X51000Y-28000
X51000Y-34000
X52000Y-28000
X52000Y-34000
X53000Y-28000
X53000Y-34000
X54000Y-28000
X54000Y-34000
X55000Y-28000
X55000Y-34000
X56000Y-28000
X56000Y-34000
X57000Y-28000
X57000Y-34000
X58000Y-28000
X58000Y-34000
X59000Y-28000
X59000Y-34000
X60000Y-28000
X60000Y-34000
X61000Y-28000
X61000Y-34000
X62000Y-28000
X62000Y-34000
X32000Y-18000
X32000Y-18984
X25000Y-14500
X25984Y-14500
X41000Y-41000
X41984Y-41000
X61500Y-36500
X61500Y-40500
X26000Y-32000
X26000Y-38000
X27000Y-32000
X27000Y-38000
X28000Y-32000
X28000Y-38000
X29000Y-32000
X29000Y-38000
X30000Y-32000
X30000Y-38000
X31000Y-32000
X31000Y-38000
X32000Y-32000
X32000Y-38000
X33000Y-32000
X33000Y-38000
X34000Y-32000
X34000Y-38000
X35000Y-32000
X35000Y-38000
X36000Y-32000
X36000Y-38000
X37000Y-32000
X37000Y-38000
X38000Y-32000
X38000Y-38000
X39000Y-32000
X39000Y-38000
X40000Y-32000
X40000Y-38000
X41000Y-32000
X41000Y-38000
X42000Y-32000
X42000Y-38000
X43000Y-32000
X43000Y-38000
X44000Y-32000
X44000Y-38000
X45000Y-32000
X45000Y-38000
X25000Y-10500
X25984Y-10500
X26000Y-16500
X30000Y-16500
X18500Y-12500
X22500Y-12500
T4
X23000Y-21500
X24000Y-21500
X23000Y-16500
X24000Y-16500
X23000Y-19000
X24000Y-19000
T5
X20067Y-24516
X20067Y-25500
X20854Y-24516
X20854Y-25500
T6
X20500Y-31000
X20500Y-32000
X20500Y-33000
X20500Y-34000
X20500Y-35000
X20500Y-36000
X65000Y-10000
X65000Y-11000
X65000Y-12000
X65000Y-13000
X65000Y-14000
X65000Y-15000
X65000Y-16000
X65000Y-17000
X65000Y-18000
X65000Y-19000
X65000Y-20000
X65000Y-21000
X65000Y-22000
X65000Y-23000
X65000Y-24000
X65000Y-25000
X65000Y-26000
X65000Y-27000
X65000Y-28000
X65000Y-29000
X65000Y-30000
X65000Y-31000
X65000Y-32000
X65000Y-33000
X65000Y-34000
X65000Y-35000
X65000Y-36000
X65000Y-37000
X65000Y-38000
X65000Y-39000
X65000Y-40000
X65000Y-41000
X31000Y-44000
X32000Y-44000
X33000Y-44000
X34000Y-44000
X35000Y-44000
X36000Y-44000
X37000Y-44000
X38000Y-44000
X39000Y-44000
X40000Y-44000
X41000Y-44000
X42000Y-44000
X43000Y-44000
X44000Y-44000
X45000Y-44000
X46000Y-44000
X47000Y-44000
X48000Y-44000
X49000Y-44000
X50000Y-44000
X51000Y-44000
X52000Y-44000
X53000Y-44000
X54000Y-44000
X55000Y-44000
X56000Y-44000
X57000Y-44000
X58000Y-44000
X59000Y-44000
X60000Y-44000
X61000Y-44000
X62000Y-44000
X31000Y-7000
X32000Y-7000
X33000Y-7000
X34000Y-7000
X35000Y-7000
X36000Y-7000
X37000Y-7000
X38000Y-7000
X39000Y-7000
X40000Y-7000
X41000Y-7000
X42000Y-7000
X43000Y-7000
X44000Y-7000
X45000Y-7000
X46000Y-7000
X47000Y-7000
X48000Y-7000
X49000Y-7000
X50000Y-7000
X51000Y-7000
X52000Y-7000
X53000Y-7000
X54000Y-7000
X55000Y-7000
X56000Y-7000
X57000Y-7000
X58000Y-7000
X59000Y-7000
X60000Y-7000
X61000Y-7000
X62000Y-7000
X26500Y-42000
X26500Y-43000
X26500Y-44000
X27500Y-42000
X27500Y-43000
X27500Y-44000
T7
X20500Y-42000
X20500Y-43772
X23059Y-42000
X23059Y-43772
T8
X19000Y-22638
X19000Y-27378
T9
X17000Y-44000
X17000Y-7000
X65000Y-7000
X65000Y-44000
T0
M30
