G04 #@! TF.GenerationSoftware,KiCad,Pcbnew,(5.1.10-0-10_14)*
G04 #@! TF.CreationDate,2021-05-08T22:18:36+02:00*
G04 #@! TF.ProjectId,DB6502_proto,44423635-3032-45f7-9072-6f746f2e6b69,rev?*
G04 #@! TF.SameCoordinates,Original*
G04 #@! TF.FileFunction,Soldermask,Bot*
G04 #@! TF.FilePolarity,Negative*
%FSLAX46Y46*%
G04 Gerber Fmt 4.6, Leading zero omitted, Abs format (unit mm)*
G04 Created by KiCad (PCBNEW (5.1.10-0-10_14)) date 2021-05-08 22:18:36*
%MOMM*%
%LPD*%
G01*
G04 APERTURE LIST*
%ADD10C,1.200000*%
%ADD11R,1.200000X1.200000*%
%ADD12C,2.800000*%
%ADD13C,6.400000*%
%ADD14O,1.700000X1.700000*%
%ADD15R,1.700000X1.700000*%
%ADD16C,1.600000*%
%ADD17R,1.600000X1.600000*%
%ADD18O,1.600000X1.600000*%
%ADD19C,1.440000*%
%ADD20R,3.500000X3.500000*%
%ADD21C,1.500000*%
%ADD22C,1.422400*%
%ADD23R,1.422400X1.422400*%
%ADD24R,1.500000X1.500000*%
%ADD25C,2.000000*%
%ADD26C,3.500000*%
%ADD27C,1.700000*%
%ADD28C,1.800000*%
%ADD29R,1.800000X1.800000*%
G04 APERTURE END LIST*
D10*
X117705000Y-53340000D03*
D11*
X116205000Y-53340000D03*
D12*
X113665000Y-78740000D03*
D13*
X160020000Y-168910000D03*
X26670000Y-168910000D03*
X26670000Y-40640000D03*
X160020000Y-40640000D03*
D14*
X112395000Y-72390000D03*
X114935000Y-72390000D03*
X112395000Y-69850000D03*
X114935000Y-69850000D03*
X112395000Y-67310000D03*
X114935000Y-67310000D03*
X112395000Y-64770000D03*
X114935000Y-64770000D03*
X112395000Y-62230000D03*
X114935000Y-62230000D03*
X112395000Y-59690000D03*
D15*
X114935000Y-59690000D03*
D16*
X149860000Y-143510000D03*
X142240000Y-143510000D03*
X142240000Y-158750000D03*
D17*
X149860000Y-158750000D03*
D12*
X127000000Y-144780000D03*
D14*
X95250000Y-114300000D03*
X92710000Y-114300000D03*
X95250000Y-111760000D03*
X92710000Y-111760000D03*
X95250000Y-109220000D03*
X92710000Y-109220000D03*
X95250000Y-106680000D03*
X92710000Y-106680000D03*
X95250000Y-104140000D03*
X92710000Y-104140000D03*
X95250000Y-101600000D03*
X92710000Y-101600000D03*
X95250000Y-99060000D03*
X92710000Y-99060000D03*
X95250000Y-96520000D03*
X92710000Y-96520000D03*
X95250000Y-93980000D03*
X92710000Y-93980000D03*
X95250000Y-91440000D03*
X92710000Y-91440000D03*
X95250000Y-88900000D03*
X92710000Y-88900000D03*
X95250000Y-86360000D03*
X92710000Y-86360000D03*
X95250000Y-83820000D03*
D15*
X92710000Y-83820000D03*
D14*
X134620000Y-170180000D03*
X132080000Y-170180000D03*
X129540000Y-170180000D03*
X127000000Y-170180000D03*
X124460000Y-170180000D03*
X121920000Y-170180000D03*
X119380000Y-170180000D03*
X116840000Y-170180000D03*
X114300000Y-170180000D03*
X111760000Y-170180000D03*
X109220000Y-170180000D03*
X106680000Y-170180000D03*
X104140000Y-170180000D03*
X101600000Y-170180000D03*
X99060000Y-170180000D03*
X96520000Y-170180000D03*
X93980000Y-170180000D03*
X91440000Y-170180000D03*
X88900000Y-170180000D03*
X86360000Y-170180000D03*
X83820000Y-170180000D03*
X81280000Y-170180000D03*
X78740000Y-170180000D03*
X76200000Y-170180000D03*
X73660000Y-170180000D03*
X71120000Y-170180000D03*
X68580000Y-170180000D03*
X66040000Y-170180000D03*
X63500000Y-170180000D03*
X60960000Y-170180000D03*
X58420000Y-170180000D03*
X55880000Y-170180000D03*
X53340000Y-170180000D03*
X50800000Y-170180000D03*
X48260000Y-170180000D03*
X45720000Y-170180000D03*
X43180000Y-170180000D03*
X40640000Y-170180000D03*
X38100000Y-170180000D03*
D15*
X35560000Y-170180000D03*
D18*
X96520000Y-125730000D03*
X93980000Y-125730000D03*
X91440000Y-125730000D03*
X88900000Y-125730000D03*
X86360000Y-125730000D03*
X83820000Y-125730000D03*
X81280000Y-125730000D03*
X78740000Y-125730000D03*
D17*
X76200000Y-125730000D03*
D19*
X144780000Y-134620000D03*
X149860000Y-132080000D03*
X144780000Y-129540000D03*
D14*
X146050000Y-119380000D03*
X143510000Y-119380000D03*
D15*
X140970000Y-119380000D03*
D14*
X161290000Y-147320000D03*
X161290000Y-144780000D03*
X161290000Y-142240000D03*
X161290000Y-139700000D03*
X161290000Y-137160000D03*
X161290000Y-134620000D03*
X161290000Y-132080000D03*
X161290000Y-129540000D03*
X161290000Y-127000000D03*
X161290000Y-124460000D03*
X161290000Y-121920000D03*
X161290000Y-119380000D03*
X161290000Y-116840000D03*
X161290000Y-114300000D03*
X161290000Y-111760000D03*
X161290000Y-109220000D03*
X161290000Y-106680000D03*
X161290000Y-104140000D03*
X161290000Y-101600000D03*
X161290000Y-99060000D03*
X161290000Y-96520000D03*
X161290000Y-93980000D03*
X161290000Y-91440000D03*
X161290000Y-88900000D03*
X161290000Y-86360000D03*
X161290000Y-83820000D03*
X161290000Y-81280000D03*
X161290000Y-78740000D03*
X161290000Y-76200000D03*
X161290000Y-73660000D03*
X161290000Y-71120000D03*
X161290000Y-68580000D03*
X161290000Y-66040000D03*
X161290000Y-63500000D03*
X161290000Y-60960000D03*
X161290000Y-58420000D03*
X161290000Y-55880000D03*
X161290000Y-53340000D03*
X161290000Y-50800000D03*
D15*
X161290000Y-48260000D03*
D14*
X25400000Y-147320000D03*
X25400000Y-144780000D03*
X25400000Y-142240000D03*
X25400000Y-139700000D03*
X25400000Y-137160000D03*
X25400000Y-134620000D03*
X25400000Y-132080000D03*
X25400000Y-129540000D03*
X25400000Y-127000000D03*
X25400000Y-124460000D03*
X25400000Y-121920000D03*
X25400000Y-119380000D03*
X25400000Y-116840000D03*
X25400000Y-114300000D03*
X25400000Y-111760000D03*
X25400000Y-109220000D03*
X25400000Y-106680000D03*
X25400000Y-104140000D03*
X25400000Y-101600000D03*
X25400000Y-99060000D03*
X25400000Y-96520000D03*
X25400000Y-93980000D03*
X25400000Y-91440000D03*
X25400000Y-88900000D03*
X25400000Y-86360000D03*
X25400000Y-83820000D03*
X25400000Y-81280000D03*
X25400000Y-78740000D03*
X25400000Y-76200000D03*
X25400000Y-73660000D03*
X25400000Y-71120000D03*
X25400000Y-68580000D03*
X25400000Y-66040000D03*
X25400000Y-63500000D03*
X25400000Y-60960000D03*
X25400000Y-58420000D03*
X25400000Y-55880000D03*
X25400000Y-53340000D03*
X25400000Y-50800000D03*
D15*
X25400000Y-48260000D03*
G36*
G01*
X146825000Y-159375000D02*
X146825000Y-158125000D01*
G75*
G02*
X147075000Y-157875000I250000J0D01*
G01*
X148000000Y-157875000D01*
G75*
G02*
X148250000Y-158125000I0J-250000D01*
G01*
X148250000Y-159375000D01*
G75*
G02*
X148000000Y-159625000I-250000J0D01*
G01*
X147075000Y-159625000D01*
G75*
G02*
X146825000Y-159375000I0J250000D01*
G01*
G37*
G36*
G01*
X143850000Y-159375000D02*
X143850000Y-158125000D01*
G75*
G02*
X144100000Y-157875000I250000J0D01*
G01*
X145025000Y-157875000D01*
G75*
G02*
X145275000Y-158125000I0J-250000D01*
G01*
X145275000Y-159375000D01*
G75*
G02*
X145025000Y-159625000I-250000J0D01*
G01*
X144100000Y-159625000D01*
G75*
G02*
X143850000Y-159375000I0J250000D01*
G01*
G37*
G36*
G01*
X132575000Y-53985000D02*
X132575000Y-55235000D01*
G75*
G02*
X132325000Y-55485000I-250000J0D01*
G01*
X131400000Y-55485000D01*
G75*
G02*
X131150000Y-55235000I0J250000D01*
G01*
X131150000Y-53985000D01*
G75*
G02*
X131400000Y-53735000I250000J0D01*
G01*
X132325000Y-53735000D01*
G75*
G02*
X132575000Y-53985000I0J-250000D01*
G01*
G37*
G36*
G01*
X135550000Y-53985000D02*
X135550000Y-55235000D01*
G75*
G02*
X135300000Y-55485000I-250000J0D01*
G01*
X134375000Y-55485000D01*
G75*
G02*
X134125000Y-55235000I0J250000D01*
G01*
X134125000Y-53985000D01*
G75*
G02*
X134375000Y-53735000I250000J0D01*
G01*
X135300000Y-53735000D01*
G75*
G02*
X135550000Y-53985000I0J-250000D01*
G01*
G37*
G36*
G01*
X56375000Y-71765000D02*
X56375000Y-73015000D01*
G75*
G02*
X56125000Y-73265000I-250000J0D01*
G01*
X55200000Y-73265000D01*
G75*
G02*
X54950000Y-73015000I0J250000D01*
G01*
X54950000Y-71765000D01*
G75*
G02*
X55200000Y-71515000I250000J0D01*
G01*
X56125000Y-71515000D01*
G75*
G02*
X56375000Y-71765000I0J-250000D01*
G01*
G37*
G36*
G01*
X59350000Y-71765000D02*
X59350000Y-73015000D01*
G75*
G02*
X59100000Y-73265000I-250000J0D01*
G01*
X58175000Y-73265000D01*
G75*
G02*
X57925000Y-73015000I0J250000D01*
G01*
X57925000Y-71765000D01*
G75*
G02*
X58175000Y-71515000I250000J0D01*
G01*
X59100000Y-71515000D01*
G75*
G02*
X59350000Y-71765000I0J-250000D01*
G01*
G37*
G36*
G01*
X150505000Y-96025000D02*
X151755000Y-96025000D01*
G75*
G02*
X152005000Y-96275000I0J-250000D01*
G01*
X152005000Y-97200000D01*
G75*
G02*
X151755000Y-97450000I-250000J0D01*
G01*
X150505000Y-97450000D01*
G75*
G02*
X150255000Y-97200000I0J250000D01*
G01*
X150255000Y-96275000D01*
G75*
G02*
X150505000Y-96025000I250000J0D01*
G01*
G37*
G36*
G01*
X150505000Y-93050000D02*
X151755000Y-93050000D01*
G75*
G02*
X152005000Y-93300000I0J-250000D01*
G01*
X152005000Y-94225000D01*
G75*
G02*
X151755000Y-94475000I-250000J0D01*
G01*
X150505000Y-94475000D01*
G75*
G02*
X150255000Y-94225000I0J250000D01*
G01*
X150255000Y-93300000D01*
G75*
G02*
X150505000Y-93050000I250000J0D01*
G01*
G37*
G36*
G01*
X106055000Y-122695000D02*
X107305000Y-122695000D01*
G75*
G02*
X107555000Y-122945000I0J-250000D01*
G01*
X107555000Y-123870000D01*
G75*
G02*
X107305000Y-124120000I-250000J0D01*
G01*
X106055000Y-124120000D01*
G75*
G02*
X105805000Y-123870000I0J250000D01*
G01*
X105805000Y-122945000D01*
G75*
G02*
X106055000Y-122695000I250000J0D01*
G01*
G37*
G36*
G01*
X106055000Y-119720000D02*
X107305000Y-119720000D01*
G75*
G02*
X107555000Y-119970000I0J-250000D01*
G01*
X107555000Y-120895000D01*
G75*
G02*
X107305000Y-121145000I-250000J0D01*
G01*
X106055000Y-121145000D01*
G75*
G02*
X105805000Y-120895000I0J250000D01*
G01*
X105805000Y-119970000D01*
G75*
G02*
X106055000Y-119720000I250000J0D01*
G01*
G37*
G36*
G01*
X34935000Y-153175000D02*
X36185000Y-153175000D01*
G75*
G02*
X36435000Y-153425000I0J-250000D01*
G01*
X36435000Y-154350000D01*
G75*
G02*
X36185000Y-154600000I-250000J0D01*
G01*
X34935000Y-154600000D01*
G75*
G02*
X34685000Y-154350000I0J250000D01*
G01*
X34685000Y-153425000D01*
G75*
G02*
X34935000Y-153175000I250000J0D01*
G01*
G37*
G36*
G01*
X34935000Y-150200000D02*
X36185000Y-150200000D01*
G75*
G02*
X36435000Y-150450000I0J-250000D01*
G01*
X36435000Y-151375000D01*
G75*
G02*
X36185000Y-151625000I-250000J0D01*
G01*
X34935000Y-151625000D01*
G75*
G02*
X34685000Y-151375000I0J250000D01*
G01*
X34685000Y-150450000D01*
G75*
G02*
X34935000Y-150200000I250000J0D01*
G01*
G37*
G36*
G01*
X34935000Y-134125000D02*
X36185000Y-134125000D01*
G75*
G02*
X36435000Y-134375000I0J-250000D01*
G01*
X36435000Y-135300000D01*
G75*
G02*
X36185000Y-135550000I-250000J0D01*
G01*
X34935000Y-135550000D01*
G75*
G02*
X34685000Y-135300000I0J250000D01*
G01*
X34685000Y-134375000D01*
G75*
G02*
X34935000Y-134125000I250000J0D01*
G01*
G37*
G36*
G01*
X34935000Y-131150000D02*
X36185000Y-131150000D01*
G75*
G02*
X36435000Y-131400000I0J-250000D01*
G01*
X36435000Y-132325000D01*
G75*
G02*
X36185000Y-132575000I-250000J0D01*
G01*
X34935000Y-132575000D01*
G75*
G02*
X34685000Y-132325000I0J250000D01*
G01*
X34685000Y-131400000D01*
G75*
G02*
X34935000Y-131150000I250000J0D01*
G01*
G37*
G36*
G01*
X34935000Y-99835000D02*
X36185000Y-99835000D01*
G75*
G02*
X36435000Y-100085000I0J-250000D01*
G01*
X36435000Y-101010000D01*
G75*
G02*
X36185000Y-101260000I-250000J0D01*
G01*
X34935000Y-101260000D01*
G75*
G02*
X34685000Y-101010000I0J250000D01*
G01*
X34685000Y-100085000D01*
G75*
G02*
X34935000Y-99835000I250000J0D01*
G01*
G37*
G36*
G01*
X34935000Y-96860000D02*
X36185000Y-96860000D01*
G75*
G02*
X36435000Y-97110000I0J-250000D01*
G01*
X36435000Y-98035000D01*
G75*
G02*
X36185000Y-98285000I-250000J0D01*
G01*
X34935000Y-98285000D01*
G75*
G02*
X34685000Y-98035000I0J250000D01*
G01*
X34685000Y-97110000D01*
G75*
G02*
X34935000Y-96860000I250000J0D01*
G01*
G37*
G36*
G01*
X60465000Y-80880000D02*
X60465000Y-79630000D01*
G75*
G02*
X60715000Y-79380000I250000J0D01*
G01*
X61640000Y-79380000D01*
G75*
G02*
X61890000Y-79630000I0J-250000D01*
G01*
X61890000Y-80880000D01*
G75*
G02*
X61640000Y-81130000I-250000J0D01*
G01*
X60715000Y-81130000D01*
G75*
G02*
X60465000Y-80880000I0J250000D01*
G01*
G37*
G36*
G01*
X57490000Y-80880000D02*
X57490000Y-79630000D01*
G75*
G02*
X57740000Y-79380000I250000J0D01*
G01*
X58665000Y-79380000D01*
G75*
G02*
X58915000Y-79630000I0J-250000D01*
G01*
X58915000Y-80880000D01*
G75*
G02*
X58665000Y-81130000I-250000J0D01*
G01*
X57740000Y-81130000D01*
G75*
G02*
X57490000Y-80880000I0J250000D01*
G01*
G37*
G36*
G01*
X34935000Y-118885000D02*
X36185000Y-118885000D01*
G75*
G02*
X36435000Y-119135000I0J-250000D01*
G01*
X36435000Y-120060000D01*
G75*
G02*
X36185000Y-120310000I-250000J0D01*
G01*
X34935000Y-120310000D01*
G75*
G02*
X34685000Y-120060000I0J250000D01*
G01*
X34685000Y-119135000D01*
G75*
G02*
X34935000Y-118885000I250000J0D01*
G01*
G37*
G36*
G01*
X34935000Y-115910000D02*
X36185000Y-115910000D01*
G75*
G02*
X36435000Y-116160000I0J-250000D01*
G01*
X36435000Y-117085000D01*
G75*
G02*
X36185000Y-117335000I-250000J0D01*
G01*
X34935000Y-117335000D01*
G75*
G02*
X34685000Y-117085000I0J250000D01*
G01*
X34685000Y-116160000D01*
G75*
G02*
X34935000Y-115910000I250000J0D01*
G01*
G37*
D18*
X35560000Y-144780000D03*
X68580000Y-160020000D03*
X38100000Y-144780000D03*
X66040000Y-160020000D03*
X40640000Y-144780000D03*
X63500000Y-160020000D03*
X43180000Y-144780000D03*
X60960000Y-160020000D03*
X45720000Y-144780000D03*
X58420000Y-160020000D03*
X48260000Y-144780000D03*
X55880000Y-160020000D03*
X50800000Y-144780000D03*
X53340000Y-160020000D03*
X53340000Y-144780000D03*
X50800000Y-160020000D03*
X55880000Y-144780000D03*
X48260000Y-160020000D03*
X58420000Y-144780000D03*
X45720000Y-160020000D03*
X60960000Y-144780000D03*
X43180000Y-160020000D03*
X63500000Y-144780000D03*
X40640000Y-160020000D03*
X66040000Y-144780000D03*
X38100000Y-160020000D03*
X68580000Y-144780000D03*
D17*
X35560000Y-160020000D03*
D18*
X35560000Y-114300000D03*
X68580000Y-121920000D03*
X38100000Y-114300000D03*
X66040000Y-121920000D03*
X40640000Y-114300000D03*
X63500000Y-121920000D03*
X43180000Y-114300000D03*
X60960000Y-121920000D03*
X45720000Y-114300000D03*
X58420000Y-121920000D03*
X48260000Y-114300000D03*
X55880000Y-121920000D03*
X50800000Y-114300000D03*
X53340000Y-121920000D03*
X53340000Y-114300000D03*
X50800000Y-121920000D03*
X55880000Y-114300000D03*
X48260000Y-121920000D03*
X58420000Y-114300000D03*
X45720000Y-121920000D03*
X60960000Y-114300000D03*
X43180000Y-121920000D03*
X63500000Y-114300000D03*
X40640000Y-121920000D03*
X66040000Y-114300000D03*
X38100000Y-121920000D03*
X68580000Y-114300000D03*
D17*
X35560000Y-121920000D03*
G36*
G01*
X101995000Y-44780000D02*
X103745000Y-44780000D01*
G75*
G02*
X104620000Y-45655000I0J-875000D01*
G01*
X104620000Y-47405000D01*
G75*
G02*
X103745000Y-48280000I-875000J0D01*
G01*
X101995000Y-48280000D01*
G75*
G02*
X101120000Y-47405000I0J875000D01*
G01*
X101120000Y-45655000D01*
G75*
G02*
X101995000Y-44780000I875000J0D01*
G01*
G37*
G36*
G01*
X106570000Y-42030000D02*
X108570000Y-42030000D01*
G75*
G02*
X109320000Y-42780000I0J-750000D01*
G01*
X109320000Y-44280000D01*
G75*
G02*
X108570000Y-45030000I-750000J0D01*
G01*
X106570000Y-45030000D01*
G75*
G02*
X105820000Y-44280000I0J750000D01*
G01*
X105820000Y-42780000D01*
G75*
G02*
X106570000Y-42030000I750000J0D01*
G01*
G37*
D20*
X107570000Y-49530000D03*
D21*
X151130000Y-68380000D03*
X151130000Y-63500000D03*
X65840000Y-60960000D03*
X60960000Y-60960000D03*
D18*
X102870000Y-83820000D03*
X151130000Y-99060000D03*
X105410000Y-83820000D03*
X148590000Y-99060000D03*
X107950000Y-83820000D03*
X146050000Y-99060000D03*
X110490000Y-83820000D03*
X143510000Y-99060000D03*
X113030000Y-83820000D03*
X140970000Y-99060000D03*
X115570000Y-83820000D03*
X138430000Y-99060000D03*
X118110000Y-83820000D03*
X135890000Y-99060000D03*
X120650000Y-83820000D03*
X133350000Y-99060000D03*
X123190000Y-83820000D03*
X130810000Y-99060000D03*
X125730000Y-83820000D03*
X128270000Y-99060000D03*
X128270000Y-83820000D03*
X125730000Y-99060000D03*
X130810000Y-83820000D03*
X123190000Y-99060000D03*
X133350000Y-83820000D03*
X120650000Y-99060000D03*
X135890000Y-83820000D03*
X118110000Y-99060000D03*
X138430000Y-83820000D03*
X115570000Y-99060000D03*
X140970000Y-83820000D03*
X113030000Y-99060000D03*
X143510000Y-83820000D03*
X110490000Y-99060000D03*
X146050000Y-83820000D03*
X107950000Y-99060000D03*
X148590000Y-83820000D03*
X105410000Y-99060000D03*
X151130000Y-83820000D03*
D17*
X102870000Y-99060000D03*
D22*
X142240000Y-59690000D03*
X142240000Y-62230000D03*
X142240000Y-64770000D03*
X142240000Y-67310000D03*
X142240000Y-69850000D03*
X139700000Y-57150000D03*
X139700000Y-62230000D03*
X139700000Y-64770000D03*
X139700000Y-67310000D03*
X139700000Y-69850000D03*
X139700000Y-72390000D03*
X139700000Y-74930000D03*
X137160000Y-74930000D03*
X134620000Y-74930000D03*
X132080000Y-74930000D03*
X129540000Y-74930000D03*
X127000000Y-74930000D03*
X142240000Y-72390000D03*
X137160000Y-72390000D03*
X134620000Y-72390000D03*
X132080000Y-72390000D03*
X129540000Y-72390000D03*
X127000000Y-72390000D03*
X124460000Y-72390000D03*
X124460000Y-69850000D03*
X124460000Y-67310000D03*
X124460000Y-64770000D03*
X124460000Y-62230000D03*
X124460000Y-59690000D03*
X127000000Y-69850000D03*
X127000000Y-67310000D03*
X127000000Y-64770000D03*
X127000000Y-62230000D03*
X127000000Y-59690000D03*
X137160000Y-57150000D03*
X134620000Y-57150000D03*
X127000000Y-57150000D03*
X129540000Y-57150000D03*
X132080000Y-57150000D03*
X139700000Y-59690000D03*
X137160000Y-59690000D03*
X129540000Y-59690000D03*
X132080000Y-59690000D03*
D23*
X134620000Y-59690000D03*
D24*
X35560000Y-50800000D03*
D21*
X40640000Y-50800000D03*
X38100000Y-50800000D03*
D18*
X35560000Y-68580000D03*
X83820000Y-83820000D03*
X38100000Y-68580000D03*
X81280000Y-83820000D03*
X40640000Y-68580000D03*
X78740000Y-83820000D03*
X43180000Y-68580000D03*
X76200000Y-83820000D03*
X45720000Y-68580000D03*
X73660000Y-83820000D03*
X48260000Y-68580000D03*
X71120000Y-83820000D03*
X50800000Y-68580000D03*
X68580000Y-83820000D03*
X53340000Y-68580000D03*
X66040000Y-83820000D03*
X55880000Y-68580000D03*
X63500000Y-83820000D03*
X58420000Y-68580000D03*
X60960000Y-83820000D03*
X60960000Y-68580000D03*
X58420000Y-83820000D03*
X63500000Y-68580000D03*
X55880000Y-83820000D03*
X66040000Y-68580000D03*
X53340000Y-83820000D03*
X68580000Y-68580000D03*
X50800000Y-83820000D03*
X71120000Y-68580000D03*
X48260000Y-83820000D03*
X73660000Y-68580000D03*
X45720000Y-83820000D03*
X76200000Y-68580000D03*
X43180000Y-83820000D03*
X78740000Y-68580000D03*
X40640000Y-83820000D03*
X81280000Y-68580000D03*
X38100000Y-83820000D03*
X83820000Y-68580000D03*
D17*
X35560000Y-83820000D03*
D18*
X106680000Y-118110000D03*
X134620000Y-125730000D03*
X109220000Y-118110000D03*
X132080000Y-125730000D03*
X111760000Y-118110000D03*
X129540000Y-125730000D03*
X114300000Y-118110000D03*
X127000000Y-125730000D03*
X116840000Y-118110000D03*
X124460000Y-125730000D03*
X119380000Y-118110000D03*
X121920000Y-125730000D03*
X121920000Y-118110000D03*
X119380000Y-125730000D03*
X124460000Y-118110000D03*
X116840000Y-125730000D03*
X127000000Y-118110000D03*
X114300000Y-125730000D03*
X129540000Y-118110000D03*
X111760000Y-125730000D03*
X132080000Y-118110000D03*
X109220000Y-125730000D03*
X134620000Y-118110000D03*
D17*
X106680000Y-125730000D03*
D18*
X35560000Y-91440000D03*
X83820000Y-106680000D03*
X38100000Y-91440000D03*
X81280000Y-106680000D03*
X40640000Y-91440000D03*
X78740000Y-106680000D03*
X43180000Y-91440000D03*
X76200000Y-106680000D03*
X45720000Y-91440000D03*
X73660000Y-106680000D03*
X48260000Y-91440000D03*
X71120000Y-106680000D03*
X50800000Y-91440000D03*
X68580000Y-106680000D03*
X53340000Y-91440000D03*
X66040000Y-106680000D03*
X55880000Y-91440000D03*
X63500000Y-106680000D03*
X58420000Y-91440000D03*
X60960000Y-106680000D03*
X60960000Y-91440000D03*
X58420000Y-106680000D03*
X63500000Y-91440000D03*
X55880000Y-106680000D03*
X66040000Y-91440000D03*
X53340000Y-106680000D03*
X68580000Y-91440000D03*
X50800000Y-106680000D03*
X71120000Y-91440000D03*
X48260000Y-106680000D03*
X73660000Y-91440000D03*
X45720000Y-106680000D03*
X76200000Y-91440000D03*
X43180000Y-106680000D03*
X78740000Y-91440000D03*
X40640000Y-106680000D03*
X81280000Y-91440000D03*
X38100000Y-106680000D03*
X83820000Y-91440000D03*
D17*
X35560000Y-106680000D03*
D18*
X35560000Y-129540000D03*
X68580000Y-137160000D03*
X38100000Y-129540000D03*
X66040000Y-137160000D03*
X40640000Y-129540000D03*
X63500000Y-137160000D03*
X43180000Y-129540000D03*
X60960000Y-137160000D03*
X45720000Y-129540000D03*
X58420000Y-137160000D03*
X48260000Y-129540000D03*
X55880000Y-137160000D03*
X50800000Y-129540000D03*
X53340000Y-137160000D03*
X53340000Y-129540000D03*
X50800000Y-137160000D03*
X55880000Y-129540000D03*
X48260000Y-137160000D03*
X58420000Y-129540000D03*
X45720000Y-137160000D03*
X60960000Y-129540000D03*
X43180000Y-137160000D03*
X63500000Y-129540000D03*
X40640000Y-137160000D03*
X66040000Y-129540000D03*
X38100000Y-137160000D03*
X68580000Y-129540000D03*
D17*
X35560000Y-137160000D03*
D12*
X87630000Y-119380000D03*
X74930000Y-119380000D03*
D25*
X42060000Y-39370000D03*
X42060000Y-43870000D03*
X35560000Y-39370000D03*
X35560000Y-43870000D03*
D18*
X151130000Y-111760000D03*
D16*
X151130000Y-121920000D03*
D14*
X151130000Y-105410000D03*
X148590000Y-105410000D03*
X146050000Y-105410000D03*
X143510000Y-105410000D03*
X140970000Y-105410000D03*
X138430000Y-105410000D03*
X135890000Y-105410000D03*
X133350000Y-105410000D03*
X130810000Y-105410000D03*
X128270000Y-105410000D03*
X125730000Y-105410000D03*
X123190000Y-105410000D03*
X120650000Y-105410000D03*
X118110000Y-105410000D03*
X115570000Y-105410000D03*
X113030000Y-105410000D03*
X110490000Y-105410000D03*
X107950000Y-105410000D03*
X105410000Y-105410000D03*
D15*
X102870000Y-105410000D03*
D14*
X146050000Y-111760000D03*
X143510000Y-111760000D03*
X140970000Y-111760000D03*
X138430000Y-111760000D03*
X135890000Y-111760000D03*
X133350000Y-111760000D03*
X130810000Y-111760000D03*
X128270000Y-111760000D03*
X125730000Y-111760000D03*
X123190000Y-111760000D03*
X120650000Y-111760000D03*
X118110000Y-111760000D03*
X115570000Y-111760000D03*
X113030000Y-111760000D03*
X110490000Y-111760000D03*
D15*
X107950000Y-111760000D03*
D14*
X151130000Y-45720000D03*
X148590000Y-45720000D03*
X146050000Y-45720000D03*
X143510000Y-45720000D03*
X140970000Y-45720000D03*
D15*
X138430000Y-45720000D03*
D14*
X130810000Y-45720000D03*
X128270000Y-45720000D03*
X125730000Y-45720000D03*
X123190000Y-45720000D03*
X120650000Y-45720000D03*
D15*
X118110000Y-45720000D03*
D14*
X63500000Y-45720000D03*
X60960000Y-45720000D03*
X58420000Y-45720000D03*
X55880000Y-45720000D03*
X53340000Y-45720000D03*
D15*
X50800000Y-45720000D03*
D26*
X83470000Y-46090000D03*
X71430000Y-46090000D03*
D27*
X76200000Y-48800000D03*
X78700000Y-48800000D03*
X78700000Y-50800000D03*
D15*
X76200000Y-50800000D03*
D14*
X38100000Y-62230000D03*
X38100000Y-59690000D03*
X40640000Y-62230000D03*
X40640000Y-59690000D03*
X43180000Y-62230000D03*
D15*
X43180000Y-59690000D03*
D28*
X99695000Y-76200000D03*
D29*
X97155000Y-76200000D03*
D28*
X99695000Y-69850000D03*
D29*
X97155000Y-69850000D03*
D28*
X99695000Y-63500000D03*
D29*
X97155000Y-63500000D03*
D28*
X99695000Y-57150000D03*
D29*
X97155000Y-57150000D03*
M02*
