G04 #@! TF.GenerationSoftware,KiCad,Pcbnew,(5.1.10-0-10_14)*
G04 #@! TF.CreationDate,2021-05-08T22:18:36+02:00*
G04 #@! TF.ProjectId,DB6502_proto,44423635-3032-45f7-9072-6f746f2e6b69,rev?*
G04 #@! TF.SameCoordinates,Original*
G04 #@! TF.FileFunction,Soldermask,Top*
G04 #@! TF.FilePolarity,Negative*
%FSLAX46Y46*%
G04 Gerber Fmt 4.6, Leading zero omitted, Abs format (unit mm)*
G04 Created by KiCad (PCBNEW (5.1.10-0-10_14)) date 2021-05-08 22:18:36*
%MOMM*%
%LPD*%
G01*
G04 APERTURE LIST*
%ADD10C,1.200000*%
%ADD11R,1.200000X1.200000*%
%ADD12C,2.800000*%
%ADD13C,6.400000*%
%ADD14O,1.700000X1.700000*%
%ADD15R,1.700000X1.700000*%
%ADD16C,1.600000*%
%ADD17R,1.600000X1.600000*%
%ADD18O,1.600000X1.600000*%
%ADD19C,1.440000*%
%ADD20R,3.500000X3.500000*%
%ADD21C,1.500000*%
%ADD22C,1.422400*%
%ADD23R,1.422400X1.422400*%
%ADD24R,1.500000X1.500000*%
%ADD25R,1.200000X0.400000*%
%ADD26C,2.000000*%
%ADD27C,3.500000*%
%ADD28C,1.700000*%
%ADD29C,1.800000*%
%ADD30R,1.800000X1.800000*%
G04 APERTURE END LIST*
G36*
G01*
X151780001Y-75935000D02*
X150479999Y-75935000D01*
G75*
G02*
X150230000Y-75685001I0J249999D01*
G01*
X150230000Y-74859999D01*
G75*
G02*
X150479999Y-74610000I249999J0D01*
G01*
X151780001Y-74610000D01*
G75*
G02*
X152030000Y-74859999I0J-249999D01*
G01*
X152030000Y-75685001D01*
G75*
G02*
X151780001Y-75935000I-249999J0D01*
G01*
G37*
G36*
G01*
X151780001Y-79060000D02*
X150479999Y-79060000D01*
G75*
G02*
X150230000Y-78810001I0J249999D01*
G01*
X150230000Y-77984999D01*
G75*
G02*
X150479999Y-77735000I249999J0D01*
G01*
X151780001Y-77735000D01*
G75*
G02*
X152030000Y-77984999I0J-249999D01*
G01*
X152030000Y-78810001D01*
G75*
G02*
X151780001Y-79060000I-249999J0D01*
G01*
G37*
G36*
G01*
X151780001Y-53456000D02*
X150479999Y-53456000D01*
G75*
G02*
X150230000Y-53206001I0J249999D01*
G01*
X150230000Y-52380999D01*
G75*
G02*
X150479999Y-52131000I249999J0D01*
G01*
X151780001Y-52131000D01*
G75*
G02*
X152030000Y-52380999I0J-249999D01*
G01*
X152030000Y-53206001D01*
G75*
G02*
X151780001Y-53456000I-249999J0D01*
G01*
G37*
G36*
G01*
X151780001Y-56581000D02*
X150479999Y-56581000D01*
G75*
G02*
X150230000Y-56331001I0J249999D01*
G01*
X150230000Y-55505999D01*
G75*
G02*
X150479999Y-55256000I249999J0D01*
G01*
X151780001Y-55256000D01*
G75*
G02*
X152030000Y-55505999I0J-249999D01*
G01*
X152030000Y-56331001D01*
G75*
G02*
X151780001Y-56581000I-249999J0D01*
G01*
G37*
G36*
G01*
X72800000Y-60309999D02*
X72800000Y-61610001D01*
G75*
G02*
X72550001Y-61860000I-249999J0D01*
G01*
X71724999Y-61860000D01*
G75*
G02*
X71475000Y-61610001I0J249999D01*
G01*
X71475000Y-60309999D01*
G75*
G02*
X71724999Y-60060000I249999J0D01*
G01*
X72550001Y-60060000D01*
G75*
G02*
X72800000Y-60309999I0J-249999D01*
G01*
G37*
G36*
G01*
X75925000Y-60309999D02*
X75925000Y-61610001D01*
G75*
G02*
X75675001Y-61860000I-249999J0D01*
G01*
X74849999Y-61860000D01*
G75*
G02*
X74600000Y-61610001I0J249999D01*
G01*
X74600000Y-60309999D01*
G75*
G02*
X74849999Y-60060000I249999J0D01*
G01*
X75675001Y-60060000D01*
G75*
G02*
X75925000Y-60309999I0J-249999D01*
G01*
G37*
G36*
G01*
X53947500Y-61610001D02*
X53947500Y-60309999D01*
G75*
G02*
X54197499Y-60060000I249999J0D01*
G01*
X55022501Y-60060000D01*
G75*
G02*
X55272500Y-60309999I0J-249999D01*
G01*
X55272500Y-61610001D01*
G75*
G02*
X55022501Y-61860000I-249999J0D01*
G01*
X54197499Y-61860000D01*
G75*
G02*
X53947500Y-61610001I0J249999D01*
G01*
G37*
G36*
G01*
X50822500Y-61610001D02*
X50822500Y-60309999D01*
G75*
G02*
X51072499Y-60060000I249999J0D01*
G01*
X51897501Y-60060000D01*
G75*
G02*
X52147500Y-60309999I0J-249999D01*
G01*
X52147500Y-61610001D01*
G75*
G02*
X51897501Y-61860000I-249999J0D01*
G01*
X51072499Y-61860000D01*
G75*
G02*
X50822500Y-61610001I0J249999D01*
G01*
G37*
G36*
G01*
X97170001Y-39740000D02*
X95869999Y-39740000D01*
G75*
G02*
X95620000Y-39490001I0J249999D01*
G01*
X95620000Y-38664999D01*
G75*
G02*
X95869999Y-38415000I249999J0D01*
G01*
X97170001Y-38415000D01*
G75*
G02*
X97420000Y-38664999I0J-249999D01*
G01*
X97420000Y-39490001D01*
G75*
G02*
X97170001Y-39740000I-249999J0D01*
G01*
G37*
G36*
G01*
X97170001Y-42865000D02*
X95869999Y-42865000D01*
G75*
G02*
X95620000Y-42615001I0J249999D01*
G01*
X95620000Y-41789999D01*
G75*
G02*
X95869999Y-41540000I249999J0D01*
G01*
X97170001Y-41540000D01*
G75*
G02*
X97420000Y-41789999I0J-249999D01*
G01*
X97420000Y-42615001D01*
G75*
G02*
X97170001Y-42865000I-249999J0D01*
G01*
G37*
G36*
G01*
X92090001Y-39740000D02*
X90789999Y-39740000D01*
G75*
G02*
X90540000Y-39490001I0J249999D01*
G01*
X90540000Y-38664999D01*
G75*
G02*
X90789999Y-38415000I249999J0D01*
G01*
X92090001Y-38415000D01*
G75*
G02*
X92340000Y-38664999I0J-249999D01*
G01*
X92340000Y-39490001D01*
G75*
G02*
X92090001Y-39740000I-249999J0D01*
G01*
G37*
G36*
G01*
X92090001Y-42865000D02*
X90789999Y-42865000D01*
G75*
G02*
X90540000Y-42615001I0J249999D01*
G01*
X90540000Y-41789999D01*
G75*
G02*
X90789999Y-41540000I249999J0D01*
G01*
X92090001Y-41540000D01*
G75*
G02*
X92340000Y-41789999I0J-249999D01*
G01*
X92340000Y-42615001D01*
G75*
G02*
X92090001Y-42865000I-249999J0D01*
G01*
G37*
G36*
G01*
X80380000Y-118729999D02*
X80380000Y-120030001D01*
G75*
G02*
X80130001Y-120280000I-249999J0D01*
G01*
X79304999Y-120280000D01*
G75*
G02*
X79055000Y-120030001I0J249999D01*
G01*
X79055000Y-118729999D01*
G75*
G02*
X79304999Y-118480000I249999J0D01*
G01*
X80130001Y-118480000D01*
G75*
G02*
X80380000Y-118729999I0J-249999D01*
G01*
G37*
G36*
G01*
X83505000Y-118729999D02*
X83505000Y-120030001D01*
G75*
G02*
X83255001Y-120280000I-249999J0D01*
G01*
X82429999Y-120280000D01*
G75*
G02*
X82180000Y-120030001I0J249999D01*
G01*
X82180000Y-118729999D01*
G75*
G02*
X82429999Y-118480000I249999J0D01*
G01*
X83255001Y-118480000D01*
G75*
G02*
X83505000Y-118729999I0J-249999D01*
G01*
G37*
D10*
X117705000Y-53340000D03*
D11*
X116205000Y-53340000D03*
D12*
X113665000Y-78740000D03*
D13*
X160020000Y-168910000D03*
X26670000Y-168910000D03*
X26670000Y-40640000D03*
X160020000Y-40640000D03*
D14*
X112395000Y-72390000D03*
X114935000Y-72390000D03*
X112395000Y-69850000D03*
X114935000Y-69850000D03*
X112395000Y-67310000D03*
X114935000Y-67310000D03*
X112395000Y-64770000D03*
X114935000Y-64770000D03*
X112395000Y-62230000D03*
X114935000Y-62230000D03*
X112395000Y-59690000D03*
D15*
X114935000Y-59690000D03*
G36*
G01*
X84595000Y-62855000D02*
X84595000Y-61605000D01*
G75*
G02*
X84845000Y-61355000I250000J0D01*
G01*
X85770000Y-61355000D01*
G75*
G02*
X86020000Y-61605000I0J-250000D01*
G01*
X86020000Y-62855000D01*
G75*
G02*
X85770000Y-63105000I-250000J0D01*
G01*
X84845000Y-63105000D01*
G75*
G02*
X84595000Y-62855000I0J250000D01*
G01*
G37*
G36*
G01*
X81620000Y-62855000D02*
X81620000Y-61605000D01*
G75*
G02*
X81870000Y-61355000I250000J0D01*
G01*
X82795000Y-61355000D01*
G75*
G02*
X83045000Y-61605000I0J-250000D01*
G01*
X83045000Y-62855000D01*
G75*
G02*
X82795000Y-63105000I-250000J0D01*
G01*
X81870000Y-63105000D01*
G75*
G02*
X81620000Y-62855000I0J250000D01*
G01*
G37*
G36*
G01*
X84595000Y-57775000D02*
X84595000Y-56525000D01*
G75*
G02*
X84845000Y-56275000I250000J0D01*
G01*
X85770000Y-56275000D01*
G75*
G02*
X86020000Y-56525000I0J-250000D01*
G01*
X86020000Y-57775000D01*
G75*
G02*
X85770000Y-58025000I-250000J0D01*
G01*
X84845000Y-58025000D01*
G75*
G02*
X84595000Y-57775000I0J250000D01*
G01*
G37*
G36*
G01*
X81620000Y-57775000D02*
X81620000Y-56525000D01*
G75*
G02*
X81870000Y-56275000I250000J0D01*
G01*
X82795000Y-56275000D01*
G75*
G02*
X83045000Y-56525000I0J-250000D01*
G01*
X83045000Y-57775000D01*
G75*
G02*
X82795000Y-58025000I-250000J0D01*
G01*
X81870000Y-58025000D01*
G75*
G02*
X81620000Y-57775000I0J250000D01*
G01*
G37*
G36*
G01*
X92850000Y-76825000D02*
X92850000Y-75575000D01*
G75*
G02*
X93100000Y-75325000I250000J0D01*
G01*
X94025000Y-75325000D01*
G75*
G02*
X94275000Y-75575000I0J-250000D01*
G01*
X94275000Y-76825000D01*
G75*
G02*
X94025000Y-77075000I-250000J0D01*
G01*
X93100000Y-77075000D01*
G75*
G02*
X92850000Y-76825000I0J250000D01*
G01*
G37*
G36*
G01*
X89875000Y-76825000D02*
X89875000Y-75575000D01*
G75*
G02*
X90125000Y-75325000I250000J0D01*
G01*
X91050000Y-75325000D01*
G75*
G02*
X91300000Y-75575000I0J-250000D01*
G01*
X91300000Y-76825000D01*
G75*
G02*
X91050000Y-77075000I-250000J0D01*
G01*
X90125000Y-77075000D01*
G75*
G02*
X89875000Y-76825000I0J250000D01*
G01*
G37*
G36*
G01*
X92850000Y-70475000D02*
X92850000Y-69225000D01*
G75*
G02*
X93100000Y-68975000I250000J0D01*
G01*
X94025000Y-68975000D01*
G75*
G02*
X94275000Y-69225000I0J-250000D01*
G01*
X94275000Y-70475000D01*
G75*
G02*
X94025000Y-70725000I-250000J0D01*
G01*
X93100000Y-70725000D01*
G75*
G02*
X92850000Y-70475000I0J250000D01*
G01*
G37*
G36*
G01*
X89875000Y-70475000D02*
X89875000Y-69225000D01*
G75*
G02*
X90125000Y-68975000I250000J0D01*
G01*
X91050000Y-68975000D01*
G75*
G02*
X91300000Y-69225000I0J-250000D01*
G01*
X91300000Y-70475000D01*
G75*
G02*
X91050000Y-70725000I-250000J0D01*
G01*
X90125000Y-70725000D01*
G75*
G02*
X89875000Y-70475000I0J250000D01*
G01*
G37*
G36*
G01*
X94755000Y-120005000D02*
X94755000Y-118755000D01*
G75*
G02*
X95005000Y-118505000I250000J0D01*
G01*
X95930000Y-118505000D01*
G75*
G02*
X96180000Y-118755000I0J-250000D01*
G01*
X96180000Y-120005000D01*
G75*
G02*
X95930000Y-120255000I-250000J0D01*
G01*
X95005000Y-120255000D01*
G75*
G02*
X94755000Y-120005000I0J250000D01*
G01*
G37*
G36*
G01*
X91780000Y-120005000D02*
X91780000Y-118755000D01*
G75*
G02*
X92030000Y-118505000I250000J0D01*
G01*
X92955000Y-118505000D01*
G75*
G02*
X93205000Y-118755000I0J-250000D01*
G01*
X93205000Y-120005000D01*
G75*
G02*
X92955000Y-120255000I-250000J0D01*
G01*
X92030000Y-120255000D01*
G75*
G02*
X91780000Y-120005000I0J250000D01*
G01*
G37*
D16*
X149860000Y-143510000D03*
X142240000Y-143510000D03*
X142240000Y-158750000D03*
D17*
X149860000Y-158750000D03*
G36*
G01*
X134435000Y-149375000D02*
X134435000Y-149075000D01*
G75*
G02*
X134585000Y-148925000I150000J0D01*
G01*
X136335000Y-148925000D01*
G75*
G02*
X136485000Y-149075000I0J-150000D01*
G01*
X136485000Y-149375000D01*
G75*
G02*
X136335000Y-149525000I-150000J0D01*
G01*
X134585000Y-149525000D01*
G75*
G02*
X134435000Y-149375000I0J150000D01*
G01*
G37*
G36*
G01*
X134435000Y-150645000D02*
X134435000Y-150345000D01*
G75*
G02*
X134585000Y-150195000I150000J0D01*
G01*
X136335000Y-150195000D01*
G75*
G02*
X136485000Y-150345000I0J-150000D01*
G01*
X136485000Y-150645000D01*
G75*
G02*
X136335000Y-150795000I-150000J0D01*
G01*
X134585000Y-150795000D01*
G75*
G02*
X134435000Y-150645000I0J150000D01*
G01*
G37*
G36*
G01*
X134435000Y-151915000D02*
X134435000Y-151615000D01*
G75*
G02*
X134585000Y-151465000I150000J0D01*
G01*
X136335000Y-151465000D01*
G75*
G02*
X136485000Y-151615000I0J-150000D01*
G01*
X136485000Y-151915000D01*
G75*
G02*
X136335000Y-152065000I-150000J0D01*
G01*
X134585000Y-152065000D01*
G75*
G02*
X134435000Y-151915000I0J150000D01*
G01*
G37*
G36*
G01*
X134435000Y-153185000D02*
X134435000Y-152885000D01*
G75*
G02*
X134585000Y-152735000I150000J0D01*
G01*
X136335000Y-152735000D01*
G75*
G02*
X136485000Y-152885000I0J-150000D01*
G01*
X136485000Y-153185000D01*
G75*
G02*
X136335000Y-153335000I-150000J0D01*
G01*
X134585000Y-153335000D01*
G75*
G02*
X134435000Y-153185000I0J150000D01*
G01*
G37*
G36*
G01*
X134435000Y-154455000D02*
X134435000Y-154155000D01*
G75*
G02*
X134585000Y-154005000I150000J0D01*
G01*
X136335000Y-154005000D01*
G75*
G02*
X136485000Y-154155000I0J-150000D01*
G01*
X136485000Y-154455000D01*
G75*
G02*
X136335000Y-154605000I-150000J0D01*
G01*
X134585000Y-154605000D01*
G75*
G02*
X134435000Y-154455000I0J150000D01*
G01*
G37*
G36*
G01*
X134435000Y-155725000D02*
X134435000Y-155425000D01*
G75*
G02*
X134585000Y-155275000I150000J0D01*
G01*
X136335000Y-155275000D01*
G75*
G02*
X136485000Y-155425000I0J-150000D01*
G01*
X136485000Y-155725000D01*
G75*
G02*
X136335000Y-155875000I-150000J0D01*
G01*
X134585000Y-155875000D01*
G75*
G02*
X134435000Y-155725000I0J150000D01*
G01*
G37*
G36*
G01*
X134435000Y-156995000D02*
X134435000Y-156695000D01*
G75*
G02*
X134585000Y-156545000I150000J0D01*
G01*
X136335000Y-156545000D01*
G75*
G02*
X136485000Y-156695000I0J-150000D01*
G01*
X136485000Y-156995000D01*
G75*
G02*
X136335000Y-157145000I-150000J0D01*
G01*
X134585000Y-157145000D01*
G75*
G02*
X134435000Y-156995000I0J150000D01*
G01*
G37*
G36*
G01*
X134435000Y-158265000D02*
X134435000Y-157965000D01*
G75*
G02*
X134585000Y-157815000I150000J0D01*
G01*
X136335000Y-157815000D01*
G75*
G02*
X136485000Y-157965000I0J-150000D01*
G01*
X136485000Y-158265000D01*
G75*
G02*
X136335000Y-158415000I-150000J0D01*
G01*
X134585000Y-158415000D01*
G75*
G02*
X134435000Y-158265000I0J150000D01*
G01*
G37*
G36*
G01*
X134435000Y-159535000D02*
X134435000Y-159235000D01*
G75*
G02*
X134585000Y-159085000I150000J0D01*
G01*
X136335000Y-159085000D01*
G75*
G02*
X136485000Y-159235000I0J-150000D01*
G01*
X136485000Y-159535000D01*
G75*
G02*
X136335000Y-159685000I-150000J0D01*
G01*
X134585000Y-159685000D01*
G75*
G02*
X134435000Y-159535000I0J150000D01*
G01*
G37*
G36*
G01*
X134435000Y-160805000D02*
X134435000Y-160505000D01*
G75*
G02*
X134585000Y-160355000I150000J0D01*
G01*
X136335000Y-160355000D01*
G75*
G02*
X136485000Y-160505000I0J-150000D01*
G01*
X136485000Y-160805000D01*
G75*
G02*
X136335000Y-160955000I-150000J0D01*
G01*
X134585000Y-160955000D01*
G75*
G02*
X134435000Y-160805000I0J150000D01*
G01*
G37*
G36*
G01*
X125135000Y-160805000D02*
X125135000Y-160505000D01*
G75*
G02*
X125285000Y-160355000I150000J0D01*
G01*
X127035000Y-160355000D01*
G75*
G02*
X127185000Y-160505000I0J-150000D01*
G01*
X127185000Y-160805000D01*
G75*
G02*
X127035000Y-160955000I-150000J0D01*
G01*
X125285000Y-160955000D01*
G75*
G02*
X125135000Y-160805000I0J150000D01*
G01*
G37*
G36*
G01*
X125135000Y-159535000D02*
X125135000Y-159235000D01*
G75*
G02*
X125285000Y-159085000I150000J0D01*
G01*
X127035000Y-159085000D01*
G75*
G02*
X127185000Y-159235000I0J-150000D01*
G01*
X127185000Y-159535000D01*
G75*
G02*
X127035000Y-159685000I-150000J0D01*
G01*
X125285000Y-159685000D01*
G75*
G02*
X125135000Y-159535000I0J150000D01*
G01*
G37*
G36*
G01*
X125135000Y-158265000D02*
X125135000Y-157965000D01*
G75*
G02*
X125285000Y-157815000I150000J0D01*
G01*
X127035000Y-157815000D01*
G75*
G02*
X127185000Y-157965000I0J-150000D01*
G01*
X127185000Y-158265000D01*
G75*
G02*
X127035000Y-158415000I-150000J0D01*
G01*
X125285000Y-158415000D01*
G75*
G02*
X125135000Y-158265000I0J150000D01*
G01*
G37*
G36*
G01*
X125135000Y-156995000D02*
X125135000Y-156695000D01*
G75*
G02*
X125285000Y-156545000I150000J0D01*
G01*
X127035000Y-156545000D01*
G75*
G02*
X127185000Y-156695000I0J-150000D01*
G01*
X127185000Y-156995000D01*
G75*
G02*
X127035000Y-157145000I-150000J0D01*
G01*
X125285000Y-157145000D01*
G75*
G02*
X125135000Y-156995000I0J150000D01*
G01*
G37*
G36*
G01*
X125135000Y-155725000D02*
X125135000Y-155425000D01*
G75*
G02*
X125285000Y-155275000I150000J0D01*
G01*
X127035000Y-155275000D01*
G75*
G02*
X127185000Y-155425000I0J-150000D01*
G01*
X127185000Y-155725000D01*
G75*
G02*
X127035000Y-155875000I-150000J0D01*
G01*
X125285000Y-155875000D01*
G75*
G02*
X125135000Y-155725000I0J150000D01*
G01*
G37*
G36*
G01*
X125135000Y-154455000D02*
X125135000Y-154155000D01*
G75*
G02*
X125285000Y-154005000I150000J0D01*
G01*
X127035000Y-154005000D01*
G75*
G02*
X127185000Y-154155000I0J-150000D01*
G01*
X127185000Y-154455000D01*
G75*
G02*
X127035000Y-154605000I-150000J0D01*
G01*
X125285000Y-154605000D01*
G75*
G02*
X125135000Y-154455000I0J150000D01*
G01*
G37*
G36*
G01*
X125135000Y-153185000D02*
X125135000Y-152885000D01*
G75*
G02*
X125285000Y-152735000I150000J0D01*
G01*
X127035000Y-152735000D01*
G75*
G02*
X127185000Y-152885000I0J-150000D01*
G01*
X127185000Y-153185000D01*
G75*
G02*
X127035000Y-153335000I-150000J0D01*
G01*
X125285000Y-153335000D01*
G75*
G02*
X125135000Y-153185000I0J150000D01*
G01*
G37*
G36*
G01*
X125135000Y-151915000D02*
X125135000Y-151615000D01*
G75*
G02*
X125285000Y-151465000I150000J0D01*
G01*
X127035000Y-151465000D01*
G75*
G02*
X127185000Y-151615000I0J-150000D01*
G01*
X127185000Y-151915000D01*
G75*
G02*
X127035000Y-152065000I-150000J0D01*
G01*
X125285000Y-152065000D01*
G75*
G02*
X125135000Y-151915000I0J150000D01*
G01*
G37*
G36*
G01*
X125135000Y-150645000D02*
X125135000Y-150345000D01*
G75*
G02*
X125285000Y-150195000I150000J0D01*
G01*
X127035000Y-150195000D01*
G75*
G02*
X127185000Y-150345000I0J-150000D01*
G01*
X127185000Y-150645000D01*
G75*
G02*
X127035000Y-150795000I-150000J0D01*
G01*
X125285000Y-150795000D01*
G75*
G02*
X125135000Y-150645000I0J150000D01*
G01*
G37*
G36*
G01*
X125135000Y-149375000D02*
X125135000Y-149075000D01*
G75*
G02*
X125285000Y-148925000I150000J0D01*
G01*
X127035000Y-148925000D01*
G75*
G02*
X127185000Y-149075000I0J-150000D01*
G01*
X127185000Y-149375000D01*
G75*
G02*
X127035000Y-149525000I-150000J0D01*
G01*
X125285000Y-149525000D01*
G75*
G02*
X125135000Y-149375000I0J150000D01*
G01*
G37*
G36*
G01*
X129690000Y-133120000D02*
X129390000Y-133120000D01*
G75*
G02*
X129240000Y-132970000I0J150000D01*
G01*
X129240000Y-131320000D01*
G75*
G02*
X129390000Y-131170000I150000J0D01*
G01*
X129690000Y-131170000D01*
G75*
G02*
X129840000Y-131320000I0J-150000D01*
G01*
X129840000Y-132970000D01*
G75*
G02*
X129690000Y-133120000I-150000J0D01*
G01*
G37*
G36*
G01*
X130960000Y-133120000D02*
X130660000Y-133120000D01*
G75*
G02*
X130510000Y-132970000I0J150000D01*
G01*
X130510000Y-131320000D01*
G75*
G02*
X130660000Y-131170000I150000J0D01*
G01*
X130960000Y-131170000D01*
G75*
G02*
X131110000Y-131320000I0J-150000D01*
G01*
X131110000Y-132970000D01*
G75*
G02*
X130960000Y-133120000I-150000J0D01*
G01*
G37*
G36*
G01*
X132230000Y-133120000D02*
X131930000Y-133120000D01*
G75*
G02*
X131780000Y-132970000I0J150000D01*
G01*
X131780000Y-131320000D01*
G75*
G02*
X131930000Y-131170000I150000J0D01*
G01*
X132230000Y-131170000D01*
G75*
G02*
X132380000Y-131320000I0J-150000D01*
G01*
X132380000Y-132970000D01*
G75*
G02*
X132230000Y-133120000I-150000J0D01*
G01*
G37*
G36*
G01*
X133500000Y-133120000D02*
X133200000Y-133120000D01*
G75*
G02*
X133050000Y-132970000I0J150000D01*
G01*
X133050000Y-131320000D01*
G75*
G02*
X133200000Y-131170000I150000J0D01*
G01*
X133500000Y-131170000D01*
G75*
G02*
X133650000Y-131320000I0J-150000D01*
G01*
X133650000Y-132970000D01*
G75*
G02*
X133500000Y-133120000I-150000J0D01*
G01*
G37*
G36*
G01*
X134770000Y-133120000D02*
X134470000Y-133120000D01*
G75*
G02*
X134320000Y-132970000I0J150000D01*
G01*
X134320000Y-131320000D01*
G75*
G02*
X134470000Y-131170000I150000J0D01*
G01*
X134770000Y-131170000D01*
G75*
G02*
X134920000Y-131320000I0J-150000D01*
G01*
X134920000Y-132970000D01*
G75*
G02*
X134770000Y-133120000I-150000J0D01*
G01*
G37*
G36*
G01*
X136040000Y-133120000D02*
X135740000Y-133120000D01*
G75*
G02*
X135590000Y-132970000I0J150000D01*
G01*
X135590000Y-131320000D01*
G75*
G02*
X135740000Y-131170000I150000J0D01*
G01*
X136040000Y-131170000D01*
G75*
G02*
X136190000Y-131320000I0J-150000D01*
G01*
X136190000Y-132970000D01*
G75*
G02*
X136040000Y-133120000I-150000J0D01*
G01*
G37*
G36*
G01*
X137310000Y-133120000D02*
X137010000Y-133120000D01*
G75*
G02*
X136860000Y-132970000I0J150000D01*
G01*
X136860000Y-131320000D01*
G75*
G02*
X137010000Y-131170000I150000J0D01*
G01*
X137310000Y-131170000D01*
G75*
G02*
X137460000Y-131320000I0J-150000D01*
G01*
X137460000Y-132970000D01*
G75*
G02*
X137310000Y-133120000I-150000J0D01*
G01*
G37*
G36*
G01*
X137310000Y-138070000D02*
X137010000Y-138070000D01*
G75*
G02*
X136860000Y-137920000I0J150000D01*
G01*
X136860000Y-136270000D01*
G75*
G02*
X137010000Y-136120000I150000J0D01*
G01*
X137310000Y-136120000D01*
G75*
G02*
X137460000Y-136270000I0J-150000D01*
G01*
X137460000Y-137920000D01*
G75*
G02*
X137310000Y-138070000I-150000J0D01*
G01*
G37*
G36*
G01*
X136040000Y-138070000D02*
X135740000Y-138070000D01*
G75*
G02*
X135590000Y-137920000I0J150000D01*
G01*
X135590000Y-136270000D01*
G75*
G02*
X135740000Y-136120000I150000J0D01*
G01*
X136040000Y-136120000D01*
G75*
G02*
X136190000Y-136270000I0J-150000D01*
G01*
X136190000Y-137920000D01*
G75*
G02*
X136040000Y-138070000I-150000J0D01*
G01*
G37*
G36*
G01*
X134770000Y-138070000D02*
X134470000Y-138070000D01*
G75*
G02*
X134320000Y-137920000I0J150000D01*
G01*
X134320000Y-136270000D01*
G75*
G02*
X134470000Y-136120000I150000J0D01*
G01*
X134770000Y-136120000D01*
G75*
G02*
X134920000Y-136270000I0J-150000D01*
G01*
X134920000Y-137920000D01*
G75*
G02*
X134770000Y-138070000I-150000J0D01*
G01*
G37*
G36*
G01*
X133500000Y-138070000D02*
X133200000Y-138070000D01*
G75*
G02*
X133050000Y-137920000I0J150000D01*
G01*
X133050000Y-136270000D01*
G75*
G02*
X133200000Y-136120000I150000J0D01*
G01*
X133500000Y-136120000D01*
G75*
G02*
X133650000Y-136270000I0J-150000D01*
G01*
X133650000Y-137920000D01*
G75*
G02*
X133500000Y-138070000I-150000J0D01*
G01*
G37*
G36*
G01*
X132230000Y-138070000D02*
X131930000Y-138070000D01*
G75*
G02*
X131780000Y-137920000I0J150000D01*
G01*
X131780000Y-136270000D01*
G75*
G02*
X131930000Y-136120000I150000J0D01*
G01*
X132230000Y-136120000D01*
G75*
G02*
X132380000Y-136270000I0J-150000D01*
G01*
X132380000Y-137920000D01*
G75*
G02*
X132230000Y-138070000I-150000J0D01*
G01*
G37*
G36*
G01*
X130960000Y-138070000D02*
X130660000Y-138070000D01*
G75*
G02*
X130510000Y-137920000I0J150000D01*
G01*
X130510000Y-136270000D01*
G75*
G02*
X130660000Y-136120000I150000J0D01*
G01*
X130960000Y-136120000D01*
G75*
G02*
X131110000Y-136270000I0J-150000D01*
G01*
X131110000Y-137920000D01*
G75*
G02*
X130960000Y-138070000I-150000J0D01*
G01*
G37*
G36*
G01*
X129690000Y-138070000D02*
X129390000Y-138070000D01*
G75*
G02*
X129240000Y-137920000I0J150000D01*
G01*
X129240000Y-136270000D01*
G75*
G02*
X129390000Y-136120000I150000J0D01*
G01*
X129690000Y-136120000D01*
G75*
G02*
X129840000Y-136270000I0J-150000D01*
G01*
X129840000Y-137920000D01*
G75*
G02*
X129690000Y-138070000I-150000J0D01*
G01*
G37*
D12*
X127000000Y-144780000D03*
G36*
G01*
X105550000Y-76825000D02*
X105550000Y-75575000D01*
G75*
G02*
X105800000Y-75325000I250000J0D01*
G01*
X106725000Y-75325000D01*
G75*
G02*
X106975000Y-75575000I0J-250000D01*
G01*
X106975000Y-76825000D01*
G75*
G02*
X106725000Y-77075000I-250000J0D01*
G01*
X105800000Y-77075000D01*
G75*
G02*
X105550000Y-76825000I0J250000D01*
G01*
G37*
G36*
G01*
X102575000Y-76825000D02*
X102575000Y-75575000D01*
G75*
G02*
X102825000Y-75325000I250000J0D01*
G01*
X103750000Y-75325000D01*
G75*
G02*
X104000000Y-75575000I0J-250000D01*
G01*
X104000000Y-76825000D01*
G75*
G02*
X103750000Y-77075000I-250000J0D01*
G01*
X102825000Y-77075000D01*
G75*
G02*
X102575000Y-76825000I0J250000D01*
G01*
G37*
G36*
G01*
X104000000Y-69225000D02*
X104000000Y-70475000D01*
G75*
G02*
X103750000Y-70725000I-250000J0D01*
G01*
X102825000Y-70725000D01*
G75*
G02*
X102575000Y-70475000I0J250000D01*
G01*
X102575000Y-69225000D01*
G75*
G02*
X102825000Y-68975000I250000J0D01*
G01*
X103750000Y-68975000D01*
G75*
G02*
X104000000Y-69225000I0J-250000D01*
G01*
G37*
G36*
G01*
X106975000Y-69225000D02*
X106975000Y-70475000D01*
G75*
G02*
X106725000Y-70725000I-250000J0D01*
G01*
X105800000Y-70725000D01*
G75*
G02*
X105550000Y-70475000I0J250000D01*
G01*
X105550000Y-69225000D01*
G75*
G02*
X105800000Y-68975000I250000J0D01*
G01*
X106725000Y-68975000D01*
G75*
G02*
X106975000Y-69225000I0J-250000D01*
G01*
G37*
G36*
G01*
X104000000Y-62875000D02*
X104000000Y-64125000D01*
G75*
G02*
X103750000Y-64375000I-250000J0D01*
G01*
X102825000Y-64375000D01*
G75*
G02*
X102575000Y-64125000I0J250000D01*
G01*
X102575000Y-62875000D01*
G75*
G02*
X102825000Y-62625000I250000J0D01*
G01*
X103750000Y-62625000D01*
G75*
G02*
X104000000Y-62875000I0J-250000D01*
G01*
G37*
G36*
G01*
X106975000Y-62875000D02*
X106975000Y-64125000D01*
G75*
G02*
X106725000Y-64375000I-250000J0D01*
G01*
X105800000Y-64375000D01*
G75*
G02*
X105550000Y-64125000I0J250000D01*
G01*
X105550000Y-62875000D01*
G75*
G02*
X105800000Y-62625000I250000J0D01*
G01*
X106725000Y-62625000D01*
G75*
G02*
X106975000Y-62875000I0J-250000D01*
G01*
G37*
G36*
G01*
X104000000Y-56525000D02*
X104000000Y-57775000D01*
G75*
G02*
X103750000Y-58025000I-250000J0D01*
G01*
X102825000Y-58025000D01*
G75*
G02*
X102575000Y-57775000I0J250000D01*
G01*
X102575000Y-56525000D01*
G75*
G02*
X102825000Y-56275000I250000J0D01*
G01*
X103750000Y-56275000D01*
G75*
G02*
X104000000Y-56525000I0J-250000D01*
G01*
G37*
G36*
G01*
X106975000Y-56525000D02*
X106975000Y-57775000D01*
G75*
G02*
X106725000Y-58025000I-250000J0D01*
G01*
X105800000Y-58025000D01*
G75*
G02*
X105550000Y-57775000I0J250000D01*
G01*
X105550000Y-56525000D01*
G75*
G02*
X105800000Y-56275000I250000J0D01*
G01*
X106725000Y-56275000D01*
G75*
G02*
X106975000Y-56525000I0J-250000D01*
G01*
G37*
G36*
G01*
X80505000Y-113675000D02*
X80505000Y-114925000D01*
G75*
G02*
X80255000Y-115175000I-250000J0D01*
G01*
X79330000Y-115175000D01*
G75*
G02*
X79080000Y-114925000I0J250000D01*
G01*
X79080000Y-113675000D01*
G75*
G02*
X79330000Y-113425000I250000J0D01*
G01*
X80255000Y-113425000D01*
G75*
G02*
X80505000Y-113675000I0J-250000D01*
G01*
G37*
G36*
G01*
X83480000Y-113675000D02*
X83480000Y-114925000D01*
G75*
G02*
X83230000Y-115175000I-250000J0D01*
G01*
X82305000Y-115175000D01*
G75*
G02*
X82055000Y-114925000I0J250000D01*
G01*
X82055000Y-113675000D01*
G75*
G02*
X82305000Y-113425000I250000J0D01*
G01*
X83230000Y-113425000D01*
G75*
G02*
X83480000Y-113675000I0J-250000D01*
G01*
G37*
D14*
X95250000Y-114300000D03*
X92710000Y-114300000D03*
X95250000Y-111760000D03*
X92710000Y-111760000D03*
X95250000Y-109220000D03*
X92710000Y-109220000D03*
X95250000Y-106680000D03*
X92710000Y-106680000D03*
X95250000Y-104140000D03*
X92710000Y-104140000D03*
X95250000Y-101600000D03*
X92710000Y-101600000D03*
X95250000Y-99060000D03*
X92710000Y-99060000D03*
X95250000Y-96520000D03*
X92710000Y-96520000D03*
X95250000Y-93980000D03*
X92710000Y-93980000D03*
X95250000Y-91440000D03*
X92710000Y-91440000D03*
X95250000Y-88900000D03*
X92710000Y-88900000D03*
X95250000Y-86360000D03*
X92710000Y-86360000D03*
X95250000Y-83820000D03*
D15*
X92710000Y-83820000D03*
G36*
G01*
X132575000Y-144155000D02*
X132575000Y-145405000D01*
G75*
G02*
X132325000Y-145655000I-250000J0D01*
G01*
X131400000Y-145655000D01*
G75*
G02*
X131150000Y-145405000I0J250000D01*
G01*
X131150000Y-144155000D01*
G75*
G02*
X131400000Y-143905000I250000J0D01*
G01*
X132325000Y-143905000D01*
G75*
G02*
X132575000Y-144155000I0J-250000D01*
G01*
G37*
G36*
G01*
X135550000Y-144155000D02*
X135550000Y-145405000D01*
G75*
G02*
X135300000Y-145655000I-250000J0D01*
G01*
X134375000Y-145655000D01*
G75*
G02*
X134125000Y-145405000I0J250000D01*
G01*
X134125000Y-144155000D01*
G75*
G02*
X134375000Y-143905000I250000J0D01*
G01*
X135300000Y-143905000D01*
G75*
G02*
X135550000Y-144155000I0J-250000D01*
G01*
G37*
G36*
G01*
X126355000Y-133845000D02*
X125105000Y-133845000D01*
G75*
G02*
X124855000Y-133595000I0J250000D01*
G01*
X124855000Y-132670000D01*
G75*
G02*
X125105000Y-132420000I250000J0D01*
G01*
X126355000Y-132420000D01*
G75*
G02*
X126605000Y-132670000I0J-250000D01*
G01*
X126605000Y-133595000D01*
G75*
G02*
X126355000Y-133845000I-250000J0D01*
G01*
G37*
G36*
G01*
X126355000Y-136820000D02*
X125105000Y-136820000D01*
G75*
G02*
X124855000Y-136570000I0J250000D01*
G01*
X124855000Y-135645000D01*
G75*
G02*
X125105000Y-135395000I250000J0D01*
G01*
X126355000Y-135395000D01*
G75*
G02*
X126605000Y-135645000I0J-250000D01*
G01*
X126605000Y-136570000D01*
G75*
G02*
X126355000Y-136820000I-250000J0D01*
G01*
G37*
D14*
X134620000Y-170180000D03*
X132080000Y-170180000D03*
X129540000Y-170180000D03*
X127000000Y-170180000D03*
X124460000Y-170180000D03*
X121920000Y-170180000D03*
X119380000Y-170180000D03*
X116840000Y-170180000D03*
X114300000Y-170180000D03*
X111760000Y-170180000D03*
X109220000Y-170180000D03*
X106680000Y-170180000D03*
X104140000Y-170180000D03*
X101600000Y-170180000D03*
X99060000Y-170180000D03*
X96520000Y-170180000D03*
X93980000Y-170180000D03*
X91440000Y-170180000D03*
X88900000Y-170180000D03*
X86360000Y-170180000D03*
X83820000Y-170180000D03*
X81280000Y-170180000D03*
X78740000Y-170180000D03*
X76200000Y-170180000D03*
X73660000Y-170180000D03*
X71120000Y-170180000D03*
X68580000Y-170180000D03*
X66040000Y-170180000D03*
X63500000Y-170180000D03*
X60960000Y-170180000D03*
X58420000Y-170180000D03*
X55880000Y-170180000D03*
X53340000Y-170180000D03*
X50800000Y-170180000D03*
X48260000Y-170180000D03*
X45720000Y-170180000D03*
X43180000Y-170180000D03*
X40640000Y-170180000D03*
X38100000Y-170180000D03*
D15*
X35560000Y-170180000D03*
D18*
X96520000Y-125730000D03*
X93980000Y-125730000D03*
X91440000Y-125730000D03*
X88900000Y-125730000D03*
X86360000Y-125730000D03*
X83820000Y-125730000D03*
X81280000Y-125730000D03*
X78740000Y-125730000D03*
D17*
X76200000Y-125730000D03*
D19*
X144780000Y-134620000D03*
X149860000Y-132080000D03*
X144780000Y-129540000D03*
D14*
X146050000Y-119380000D03*
X143510000Y-119380000D03*
D15*
X140970000Y-119380000D03*
D14*
X161290000Y-147320000D03*
X161290000Y-144780000D03*
X161290000Y-142240000D03*
X161290000Y-139700000D03*
X161290000Y-137160000D03*
X161290000Y-134620000D03*
X161290000Y-132080000D03*
X161290000Y-129540000D03*
X161290000Y-127000000D03*
X161290000Y-124460000D03*
X161290000Y-121920000D03*
X161290000Y-119380000D03*
X161290000Y-116840000D03*
X161290000Y-114300000D03*
X161290000Y-111760000D03*
X161290000Y-109220000D03*
X161290000Y-106680000D03*
X161290000Y-104140000D03*
X161290000Y-101600000D03*
X161290000Y-99060000D03*
X161290000Y-96520000D03*
X161290000Y-93980000D03*
X161290000Y-91440000D03*
X161290000Y-88900000D03*
X161290000Y-86360000D03*
X161290000Y-83820000D03*
X161290000Y-81280000D03*
X161290000Y-78740000D03*
X161290000Y-76200000D03*
X161290000Y-73660000D03*
X161290000Y-71120000D03*
X161290000Y-68580000D03*
X161290000Y-66040000D03*
X161290000Y-63500000D03*
X161290000Y-60960000D03*
X161290000Y-58420000D03*
X161290000Y-55880000D03*
X161290000Y-53340000D03*
X161290000Y-50800000D03*
D15*
X161290000Y-48260000D03*
D14*
X25400000Y-147320000D03*
X25400000Y-144780000D03*
X25400000Y-142240000D03*
X25400000Y-139700000D03*
X25400000Y-137160000D03*
X25400000Y-134620000D03*
X25400000Y-132080000D03*
X25400000Y-129540000D03*
X25400000Y-127000000D03*
X25400000Y-124460000D03*
X25400000Y-121920000D03*
X25400000Y-119380000D03*
X25400000Y-116840000D03*
X25400000Y-114300000D03*
X25400000Y-111760000D03*
X25400000Y-109220000D03*
X25400000Y-106680000D03*
X25400000Y-104140000D03*
X25400000Y-101600000D03*
X25400000Y-99060000D03*
X25400000Y-96520000D03*
X25400000Y-93980000D03*
X25400000Y-91440000D03*
X25400000Y-88900000D03*
X25400000Y-86360000D03*
X25400000Y-83820000D03*
X25400000Y-81280000D03*
X25400000Y-78740000D03*
X25400000Y-76200000D03*
X25400000Y-73660000D03*
X25400000Y-71120000D03*
X25400000Y-68580000D03*
X25400000Y-66040000D03*
X25400000Y-63500000D03*
X25400000Y-60960000D03*
X25400000Y-58420000D03*
X25400000Y-55880000D03*
X25400000Y-53340000D03*
X25400000Y-50800000D03*
D15*
X25400000Y-48260000D03*
G36*
G01*
X108067000Y-145275000D02*
X106817000Y-145275000D01*
G75*
G02*
X106567000Y-145025000I0J250000D01*
G01*
X106567000Y-144100000D01*
G75*
G02*
X106817000Y-143850000I250000J0D01*
G01*
X108067000Y-143850000D01*
G75*
G02*
X108317000Y-144100000I0J-250000D01*
G01*
X108317000Y-145025000D01*
G75*
G02*
X108067000Y-145275000I-250000J0D01*
G01*
G37*
G36*
G01*
X108067000Y-148250000D02*
X106817000Y-148250000D01*
G75*
G02*
X106567000Y-148000000I0J250000D01*
G01*
X106567000Y-147075000D01*
G75*
G02*
X106817000Y-146825000I250000J0D01*
G01*
X108067000Y-146825000D01*
G75*
G02*
X108317000Y-147075000I0J-250000D01*
G01*
X108317000Y-148000000D01*
G75*
G02*
X108067000Y-148250000I-250000J0D01*
G01*
G37*
G36*
G01*
X90795000Y-145030000D02*
X89545000Y-145030000D01*
G75*
G02*
X89295000Y-144780000I0J250000D01*
G01*
X89295000Y-143855000D01*
G75*
G02*
X89545000Y-143605000I250000J0D01*
G01*
X90795000Y-143605000D01*
G75*
G02*
X91045000Y-143855000I0J-250000D01*
G01*
X91045000Y-144780000D01*
G75*
G02*
X90795000Y-145030000I-250000J0D01*
G01*
G37*
G36*
G01*
X90795000Y-148005000D02*
X89545000Y-148005000D01*
G75*
G02*
X89295000Y-147755000I0J250000D01*
G01*
X89295000Y-146830000D01*
G75*
G02*
X89545000Y-146580000I250000J0D01*
G01*
X90795000Y-146580000D01*
G75*
G02*
X91045000Y-146830000I0J-250000D01*
G01*
X91045000Y-147755000D01*
G75*
G02*
X90795000Y-148005000I-250000J0D01*
G01*
G37*
G36*
G01*
X90795000Y-156705000D02*
X89545000Y-156705000D01*
G75*
G02*
X89295000Y-156455000I0J250000D01*
G01*
X89295000Y-155530000D01*
G75*
G02*
X89545000Y-155280000I250000J0D01*
G01*
X90795000Y-155280000D01*
G75*
G02*
X91045000Y-155530000I0J-250000D01*
G01*
X91045000Y-156455000D01*
G75*
G02*
X90795000Y-156705000I-250000J0D01*
G01*
G37*
G36*
G01*
X90795000Y-159680000D02*
X89545000Y-159680000D01*
G75*
G02*
X89295000Y-159430000I0J250000D01*
G01*
X89295000Y-158505000D01*
G75*
G02*
X89545000Y-158255000I250000J0D01*
G01*
X90795000Y-158255000D01*
G75*
G02*
X91045000Y-158505000I0J-250000D01*
G01*
X91045000Y-159430000D01*
G75*
G02*
X90795000Y-159680000I-250000J0D01*
G01*
G37*
G36*
G01*
X92850000Y-57775000D02*
X92850000Y-56525000D01*
G75*
G02*
X93100000Y-56275000I250000J0D01*
G01*
X94025000Y-56275000D01*
G75*
G02*
X94275000Y-56525000I0J-250000D01*
G01*
X94275000Y-57775000D01*
G75*
G02*
X94025000Y-58025000I-250000J0D01*
G01*
X93100000Y-58025000D01*
G75*
G02*
X92850000Y-57775000I0J250000D01*
G01*
G37*
G36*
G01*
X89875000Y-57775000D02*
X89875000Y-56525000D01*
G75*
G02*
X90125000Y-56275000I250000J0D01*
G01*
X91050000Y-56275000D01*
G75*
G02*
X91300000Y-56525000I0J-250000D01*
G01*
X91300000Y-57775000D01*
G75*
G02*
X91050000Y-58025000I-250000J0D01*
G01*
X90125000Y-58025000D01*
G75*
G02*
X89875000Y-57775000I0J250000D01*
G01*
G37*
G36*
G01*
X92850000Y-64125000D02*
X92850000Y-62875000D01*
G75*
G02*
X93100000Y-62625000I250000J0D01*
G01*
X94025000Y-62625000D01*
G75*
G02*
X94275000Y-62875000I0J-250000D01*
G01*
X94275000Y-64125000D01*
G75*
G02*
X94025000Y-64375000I-250000J0D01*
G01*
X93100000Y-64375000D01*
G75*
G02*
X92850000Y-64125000I0J250000D01*
G01*
G37*
G36*
G01*
X89875000Y-64125000D02*
X89875000Y-62875000D01*
G75*
G02*
X90125000Y-62625000I250000J0D01*
G01*
X91050000Y-62625000D01*
G75*
G02*
X91300000Y-62875000I0J-250000D01*
G01*
X91300000Y-64125000D01*
G75*
G02*
X91050000Y-64375000I-250000J0D01*
G01*
X90125000Y-64375000D01*
G75*
G02*
X89875000Y-64125000I0J250000D01*
G01*
G37*
G36*
G01*
X108067000Y-133845000D02*
X106817000Y-133845000D01*
G75*
G02*
X106567000Y-133595000I0J250000D01*
G01*
X106567000Y-132670000D01*
G75*
G02*
X106817000Y-132420000I250000J0D01*
G01*
X108067000Y-132420000D01*
G75*
G02*
X108317000Y-132670000I0J-250000D01*
G01*
X108317000Y-133595000D01*
G75*
G02*
X108067000Y-133845000I-250000J0D01*
G01*
G37*
G36*
G01*
X108067000Y-136820000D02*
X106817000Y-136820000D01*
G75*
G02*
X106567000Y-136570000I0J250000D01*
G01*
X106567000Y-135645000D01*
G75*
G02*
X106817000Y-135395000I250000J0D01*
G01*
X108067000Y-135395000D01*
G75*
G02*
X108317000Y-135645000I0J-250000D01*
G01*
X108317000Y-136570000D01*
G75*
G02*
X108067000Y-136820000I-250000J0D01*
G01*
G37*
G36*
G01*
X108067000Y-156705000D02*
X106817000Y-156705000D01*
G75*
G02*
X106567000Y-156455000I0J250000D01*
G01*
X106567000Y-155530000D01*
G75*
G02*
X106817000Y-155280000I250000J0D01*
G01*
X108067000Y-155280000D01*
G75*
G02*
X108317000Y-155530000I0J-250000D01*
G01*
X108317000Y-156455000D01*
G75*
G02*
X108067000Y-156705000I-250000J0D01*
G01*
G37*
G36*
G01*
X108067000Y-159680000D02*
X106817000Y-159680000D01*
G75*
G02*
X106567000Y-159430000I0J250000D01*
G01*
X106567000Y-158505000D01*
G75*
G02*
X106817000Y-158255000I250000J0D01*
G01*
X108067000Y-158255000D01*
G75*
G02*
X108317000Y-158505000I0J-250000D01*
G01*
X108317000Y-159430000D01*
G75*
G02*
X108067000Y-159680000I-250000J0D01*
G01*
G37*
G36*
G01*
X74285000Y-156705000D02*
X73035000Y-156705000D01*
G75*
G02*
X72785000Y-156455000I0J250000D01*
G01*
X72785000Y-155530000D01*
G75*
G02*
X73035000Y-155280000I250000J0D01*
G01*
X74285000Y-155280000D01*
G75*
G02*
X74535000Y-155530000I0J-250000D01*
G01*
X74535000Y-156455000D01*
G75*
G02*
X74285000Y-156705000I-250000J0D01*
G01*
G37*
G36*
G01*
X74285000Y-159680000D02*
X73035000Y-159680000D01*
G75*
G02*
X72785000Y-159430000I0J250000D01*
G01*
X72785000Y-158505000D01*
G75*
G02*
X73035000Y-158255000I250000J0D01*
G01*
X74285000Y-158255000D01*
G75*
G02*
X74535000Y-158505000I0J-250000D01*
G01*
X74535000Y-159430000D01*
G75*
G02*
X74285000Y-159680000I-250000J0D01*
G01*
G37*
G36*
G01*
X74285000Y-145275000D02*
X73035000Y-145275000D01*
G75*
G02*
X72785000Y-145025000I0J250000D01*
G01*
X72785000Y-144100000D01*
G75*
G02*
X73035000Y-143850000I250000J0D01*
G01*
X74285000Y-143850000D01*
G75*
G02*
X74535000Y-144100000I0J-250000D01*
G01*
X74535000Y-145025000D01*
G75*
G02*
X74285000Y-145275000I-250000J0D01*
G01*
G37*
G36*
G01*
X74285000Y-148250000D02*
X73035000Y-148250000D01*
G75*
G02*
X72785000Y-148000000I0J250000D01*
G01*
X72785000Y-147075000D01*
G75*
G02*
X73035000Y-146825000I250000J0D01*
G01*
X74285000Y-146825000D01*
G75*
G02*
X74535000Y-147075000I0J-250000D01*
G01*
X74535000Y-148000000D01*
G75*
G02*
X74285000Y-148250000I-250000J0D01*
G01*
G37*
G36*
G01*
X74285000Y-133845000D02*
X73035000Y-133845000D01*
G75*
G02*
X72785000Y-133595000I0J250000D01*
G01*
X72785000Y-132670000D01*
G75*
G02*
X73035000Y-132420000I250000J0D01*
G01*
X74285000Y-132420000D01*
G75*
G02*
X74535000Y-132670000I0J-250000D01*
G01*
X74535000Y-133595000D01*
G75*
G02*
X74285000Y-133845000I-250000J0D01*
G01*
G37*
G36*
G01*
X74285000Y-136820000D02*
X73035000Y-136820000D01*
G75*
G02*
X72785000Y-136570000I0J250000D01*
G01*
X72785000Y-135645000D01*
G75*
G02*
X73035000Y-135395000I250000J0D01*
G01*
X74285000Y-135395000D01*
G75*
G02*
X74535000Y-135645000I0J-250000D01*
G01*
X74535000Y-136570000D01*
G75*
G02*
X74285000Y-136820000I-250000J0D01*
G01*
G37*
G36*
G01*
X90795000Y-133845000D02*
X89545000Y-133845000D01*
G75*
G02*
X89295000Y-133595000I0J250000D01*
G01*
X89295000Y-132670000D01*
G75*
G02*
X89545000Y-132420000I250000J0D01*
G01*
X90795000Y-132420000D01*
G75*
G02*
X91045000Y-132670000I0J-250000D01*
G01*
X91045000Y-133595000D01*
G75*
G02*
X90795000Y-133845000I-250000J0D01*
G01*
G37*
G36*
G01*
X90795000Y-136820000D02*
X89545000Y-136820000D01*
G75*
G02*
X89295000Y-136570000I0J250000D01*
G01*
X89295000Y-135645000D01*
G75*
G02*
X89545000Y-135395000I250000J0D01*
G01*
X90795000Y-135395000D01*
G75*
G02*
X91045000Y-135645000I0J-250000D01*
G01*
X91045000Y-136570000D01*
G75*
G02*
X90795000Y-136820000I-250000J0D01*
G01*
G37*
G36*
G01*
X94130000Y-133120000D02*
X93830000Y-133120000D01*
G75*
G02*
X93680000Y-132970000I0J150000D01*
G01*
X93680000Y-131320000D01*
G75*
G02*
X93830000Y-131170000I150000J0D01*
G01*
X94130000Y-131170000D01*
G75*
G02*
X94280000Y-131320000I0J-150000D01*
G01*
X94280000Y-132970000D01*
G75*
G02*
X94130000Y-133120000I-150000J0D01*
G01*
G37*
G36*
G01*
X95400000Y-133120000D02*
X95100000Y-133120000D01*
G75*
G02*
X94950000Y-132970000I0J150000D01*
G01*
X94950000Y-131320000D01*
G75*
G02*
X95100000Y-131170000I150000J0D01*
G01*
X95400000Y-131170000D01*
G75*
G02*
X95550000Y-131320000I0J-150000D01*
G01*
X95550000Y-132970000D01*
G75*
G02*
X95400000Y-133120000I-150000J0D01*
G01*
G37*
G36*
G01*
X96670000Y-133120000D02*
X96370000Y-133120000D01*
G75*
G02*
X96220000Y-132970000I0J150000D01*
G01*
X96220000Y-131320000D01*
G75*
G02*
X96370000Y-131170000I150000J0D01*
G01*
X96670000Y-131170000D01*
G75*
G02*
X96820000Y-131320000I0J-150000D01*
G01*
X96820000Y-132970000D01*
G75*
G02*
X96670000Y-133120000I-150000J0D01*
G01*
G37*
G36*
G01*
X97940000Y-133120000D02*
X97640000Y-133120000D01*
G75*
G02*
X97490000Y-132970000I0J150000D01*
G01*
X97490000Y-131320000D01*
G75*
G02*
X97640000Y-131170000I150000J0D01*
G01*
X97940000Y-131170000D01*
G75*
G02*
X98090000Y-131320000I0J-150000D01*
G01*
X98090000Y-132970000D01*
G75*
G02*
X97940000Y-133120000I-150000J0D01*
G01*
G37*
G36*
G01*
X99210000Y-133120000D02*
X98910000Y-133120000D01*
G75*
G02*
X98760000Y-132970000I0J150000D01*
G01*
X98760000Y-131320000D01*
G75*
G02*
X98910000Y-131170000I150000J0D01*
G01*
X99210000Y-131170000D01*
G75*
G02*
X99360000Y-131320000I0J-150000D01*
G01*
X99360000Y-132970000D01*
G75*
G02*
X99210000Y-133120000I-150000J0D01*
G01*
G37*
G36*
G01*
X100480000Y-133120000D02*
X100180000Y-133120000D01*
G75*
G02*
X100030000Y-132970000I0J150000D01*
G01*
X100030000Y-131320000D01*
G75*
G02*
X100180000Y-131170000I150000J0D01*
G01*
X100480000Y-131170000D01*
G75*
G02*
X100630000Y-131320000I0J-150000D01*
G01*
X100630000Y-132970000D01*
G75*
G02*
X100480000Y-133120000I-150000J0D01*
G01*
G37*
G36*
G01*
X101750000Y-133120000D02*
X101450000Y-133120000D01*
G75*
G02*
X101300000Y-132970000I0J150000D01*
G01*
X101300000Y-131320000D01*
G75*
G02*
X101450000Y-131170000I150000J0D01*
G01*
X101750000Y-131170000D01*
G75*
G02*
X101900000Y-131320000I0J-150000D01*
G01*
X101900000Y-132970000D01*
G75*
G02*
X101750000Y-133120000I-150000J0D01*
G01*
G37*
G36*
G01*
X101750000Y-138070000D02*
X101450000Y-138070000D01*
G75*
G02*
X101300000Y-137920000I0J150000D01*
G01*
X101300000Y-136270000D01*
G75*
G02*
X101450000Y-136120000I150000J0D01*
G01*
X101750000Y-136120000D01*
G75*
G02*
X101900000Y-136270000I0J-150000D01*
G01*
X101900000Y-137920000D01*
G75*
G02*
X101750000Y-138070000I-150000J0D01*
G01*
G37*
G36*
G01*
X100480000Y-138070000D02*
X100180000Y-138070000D01*
G75*
G02*
X100030000Y-137920000I0J150000D01*
G01*
X100030000Y-136270000D01*
G75*
G02*
X100180000Y-136120000I150000J0D01*
G01*
X100480000Y-136120000D01*
G75*
G02*
X100630000Y-136270000I0J-150000D01*
G01*
X100630000Y-137920000D01*
G75*
G02*
X100480000Y-138070000I-150000J0D01*
G01*
G37*
G36*
G01*
X99210000Y-138070000D02*
X98910000Y-138070000D01*
G75*
G02*
X98760000Y-137920000I0J150000D01*
G01*
X98760000Y-136270000D01*
G75*
G02*
X98910000Y-136120000I150000J0D01*
G01*
X99210000Y-136120000D01*
G75*
G02*
X99360000Y-136270000I0J-150000D01*
G01*
X99360000Y-137920000D01*
G75*
G02*
X99210000Y-138070000I-150000J0D01*
G01*
G37*
G36*
G01*
X97940000Y-138070000D02*
X97640000Y-138070000D01*
G75*
G02*
X97490000Y-137920000I0J150000D01*
G01*
X97490000Y-136270000D01*
G75*
G02*
X97640000Y-136120000I150000J0D01*
G01*
X97940000Y-136120000D01*
G75*
G02*
X98090000Y-136270000I0J-150000D01*
G01*
X98090000Y-137920000D01*
G75*
G02*
X97940000Y-138070000I-150000J0D01*
G01*
G37*
G36*
G01*
X96670000Y-138070000D02*
X96370000Y-138070000D01*
G75*
G02*
X96220000Y-137920000I0J150000D01*
G01*
X96220000Y-136270000D01*
G75*
G02*
X96370000Y-136120000I150000J0D01*
G01*
X96670000Y-136120000D01*
G75*
G02*
X96820000Y-136270000I0J-150000D01*
G01*
X96820000Y-137920000D01*
G75*
G02*
X96670000Y-138070000I-150000J0D01*
G01*
G37*
G36*
G01*
X95400000Y-138070000D02*
X95100000Y-138070000D01*
G75*
G02*
X94950000Y-137920000I0J150000D01*
G01*
X94950000Y-136270000D01*
G75*
G02*
X95100000Y-136120000I150000J0D01*
G01*
X95400000Y-136120000D01*
G75*
G02*
X95550000Y-136270000I0J-150000D01*
G01*
X95550000Y-137920000D01*
G75*
G02*
X95400000Y-138070000I-150000J0D01*
G01*
G37*
G36*
G01*
X94130000Y-138070000D02*
X93830000Y-138070000D01*
G75*
G02*
X93680000Y-137920000I0J150000D01*
G01*
X93680000Y-136270000D01*
G75*
G02*
X93830000Y-136120000I150000J0D01*
G01*
X94130000Y-136120000D01*
G75*
G02*
X94280000Y-136270000I0J-150000D01*
G01*
X94280000Y-137920000D01*
G75*
G02*
X94130000Y-138070000I-150000J0D01*
G01*
G37*
G36*
G01*
X77620000Y-133120000D02*
X77320000Y-133120000D01*
G75*
G02*
X77170000Y-132970000I0J150000D01*
G01*
X77170000Y-131320000D01*
G75*
G02*
X77320000Y-131170000I150000J0D01*
G01*
X77620000Y-131170000D01*
G75*
G02*
X77770000Y-131320000I0J-150000D01*
G01*
X77770000Y-132970000D01*
G75*
G02*
X77620000Y-133120000I-150000J0D01*
G01*
G37*
G36*
G01*
X78890000Y-133120000D02*
X78590000Y-133120000D01*
G75*
G02*
X78440000Y-132970000I0J150000D01*
G01*
X78440000Y-131320000D01*
G75*
G02*
X78590000Y-131170000I150000J0D01*
G01*
X78890000Y-131170000D01*
G75*
G02*
X79040000Y-131320000I0J-150000D01*
G01*
X79040000Y-132970000D01*
G75*
G02*
X78890000Y-133120000I-150000J0D01*
G01*
G37*
G36*
G01*
X80160000Y-133120000D02*
X79860000Y-133120000D01*
G75*
G02*
X79710000Y-132970000I0J150000D01*
G01*
X79710000Y-131320000D01*
G75*
G02*
X79860000Y-131170000I150000J0D01*
G01*
X80160000Y-131170000D01*
G75*
G02*
X80310000Y-131320000I0J-150000D01*
G01*
X80310000Y-132970000D01*
G75*
G02*
X80160000Y-133120000I-150000J0D01*
G01*
G37*
G36*
G01*
X81430000Y-133120000D02*
X81130000Y-133120000D01*
G75*
G02*
X80980000Y-132970000I0J150000D01*
G01*
X80980000Y-131320000D01*
G75*
G02*
X81130000Y-131170000I150000J0D01*
G01*
X81430000Y-131170000D01*
G75*
G02*
X81580000Y-131320000I0J-150000D01*
G01*
X81580000Y-132970000D01*
G75*
G02*
X81430000Y-133120000I-150000J0D01*
G01*
G37*
G36*
G01*
X82700000Y-133120000D02*
X82400000Y-133120000D01*
G75*
G02*
X82250000Y-132970000I0J150000D01*
G01*
X82250000Y-131320000D01*
G75*
G02*
X82400000Y-131170000I150000J0D01*
G01*
X82700000Y-131170000D01*
G75*
G02*
X82850000Y-131320000I0J-150000D01*
G01*
X82850000Y-132970000D01*
G75*
G02*
X82700000Y-133120000I-150000J0D01*
G01*
G37*
G36*
G01*
X83970000Y-133120000D02*
X83670000Y-133120000D01*
G75*
G02*
X83520000Y-132970000I0J150000D01*
G01*
X83520000Y-131320000D01*
G75*
G02*
X83670000Y-131170000I150000J0D01*
G01*
X83970000Y-131170000D01*
G75*
G02*
X84120000Y-131320000I0J-150000D01*
G01*
X84120000Y-132970000D01*
G75*
G02*
X83970000Y-133120000I-150000J0D01*
G01*
G37*
G36*
G01*
X85240000Y-133120000D02*
X84940000Y-133120000D01*
G75*
G02*
X84790000Y-132970000I0J150000D01*
G01*
X84790000Y-131320000D01*
G75*
G02*
X84940000Y-131170000I150000J0D01*
G01*
X85240000Y-131170000D01*
G75*
G02*
X85390000Y-131320000I0J-150000D01*
G01*
X85390000Y-132970000D01*
G75*
G02*
X85240000Y-133120000I-150000J0D01*
G01*
G37*
G36*
G01*
X85240000Y-138070000D02*
X84940000Y-138070000D01*
G75*
G02*
X84790000Y-137920000I0J150000D01*
G01*
X84790000Y-136270000D01*
G75*
G02*
X84940000Y-136120000I150000J0D01*
G01*
X85240000Y-136120000D01*
G75*
G02*
X85390000Y-136270000I0J-150000D01*
G01*
X85390000Y-137920000D01*
G75*
G02*
X85240000Y-138070000I-150000J0D01*
G01*
G37*
G36*
G01*
X83970000Y-138070000D02*
X83670000Y-138070000D01*
G75*
G02*
X83520000Y-137920000I0J150000D01*
G01*
X83520000Y-136270000D01*
G75*
G02*
X83670000Y-136120000I150000J0D01*
G01*
X83970000Y-136120000D01*
G75*
G02*
X84120000Y-136270000I0J-150000D01*
G01*
X84120000Y-137920000D01*
G75*
G02*
X83970000Y-138070000I-150000J0D01*
G01*
G37*
G36*
G01*
X82700000Y-138070000D02*
X82400000Y-138070000D01*
G75*
G02*
X82250000Y-137920000I0J150000D01*
G01*
X82250000Y-136270000D01*
G75*
G02*
X82400000Y-136120000I150000J0D01*
G01*
X82700000Y-136120000D01*
G75*
G02*
X82850000Y-136270000I0J-150000D01*
G01*
X82850000Y-137920000D01*
G75*
G02*
X82700000Y-138070000I-150000J0D01*
G01*
G37*
G36*
G01*
X81430000Y-138070000D02*
X81130000Y-138070000D01*
G75*
G02*
X80980000Y-137920000I0J150000D01*
G01*
X80980000Y-136270000D01*
G75*
G02*
X81130000Y-136120000I150000J0D01*
G01*
X81430000Y-136120000D01*
G75*
G02*
X81580000Y-136270000I0J-150000D01*
G01*
X81580000Y-137920000D01*
G75*
G02*
X81430000Y-138070000I-150000J0D01*
G01*
G37*
G36*
G01*
X80160000Y-138070000D02*
X79860000Y-138070000D01*
G75*
G02*
X79710000Y-137920000I0J150000D01*
G01*
X79710000Y-136270000D01*
G75*
G02*
X79860000Y-136120000I150000J0D01*
G01*
X80160000Y-136120000D01*
G75*
G02*
X80310000Y-136270000I0J-150000D01*
G01*
X80310000Y-137920000D01*
G75*
G02*
X80160000Y-138070000I-150000J0D01*
G01*
G37*
G36*
G01*
X78890000Y-138070000D02*
X78590000Y-138070000D01*
G75*
G02*
X78440000Y-137920000I0J150000D01*
G01*
X78440000Y-136270000D01*
G75*
G02*
X78590000Y-136120000I150000J0D01*
G01*
X78890000Y-136120000D01*
G75*
G02*
X79040000Y-136270000I0J-150000D01*
G01*
X79040000Y-137920000D01*
G75*
G02*
X78890000Y-138070000I-150000J0D01*
G01*
G37*
G36*
G01*
X77620000Y-138070000D02*
X77320000Y-138070000D01*
G75*
G02*
X77170000Y-137920000I0J150000D01*
G01*
X77170000Y-136270000D01*
G75*
G02*
X77320000Y-136120000I150000J0D01*
G01*
X77620000Y-136120000D01*
G75*
G02*
X77770000Y-136270000I0J-150000D01*
G01*
X77770000Y-137920000D01*
G75*
G02*
X77620000Y-138070000I-150000J0D01*
G01*
G37*
G36*
G01*
X77620000Y-155915000D02*
X77320000Y-155915000D01*
G75*
G02*
X77170000Y-155765000I0J150000D01*
G01*
X77170000Y-154115000D01*
G75*
G02*
X77320000Y-153965000I150000J0D01*
G01*
X77620000Y-153965000D01*
G75*
G02*
X77770000Y-154115000I0J-150000D01*
G01*
X77770000Y-155765000D01*
G75*
G02*
X77620000Y-155915000I-150000J0D01*
G01*
G37*
G36*
G01*
X78890000Y-155915000D02*
X78590000Y-155915000D01*
G75*
G02*
X78440000Y-155765000I0J150000D01*
G01*
X78440000Y-154115000D01*
G75*
G02*
X78590000Y-153965000I150000J0D01*
G01*
X78890000Y-153965000D01*
G75*
G02*
X79040000Y-154115000I0J-150000D01*
G01*
X79040000Y-155765000D01*
G75*
G02*
X78890000Y-155915000I-150000J0D01*
G01*
G37*
G36*
G01*
X80160000Y-155915000D02*
X79860000Y-155915000D01*
G75*
G02*
X79710000Y-155765000I0J150000D01*
G01*
X79710000Y-154115000D01*
G75*
G02*
X79860000Y-153965000I150000J0D01*
G01*
X80160000Y-153965000D01*
G75*
G02*
X80310000Y-154115000I0J-150000D01*
G01*
X80310000Y-155765000D01*
G75*
G02*
X80160000Y-155915000I-150000J0D01*
G01*
G37*
G36*
G01*
X81430000Y-155915000D02*
X81130000Y-155915000D01*
G75*
G02*
X80980000Y-155765000I0J150000D01*
G01*
X80980000Y-154115000D01*
G75*
G02*
X81130000Y-153965000I150000J0D01*
G01*
X81430000Y-153965000D01*
G75*
G02*
X81580000Y-154115000I0J-150000D01*
G01*
X81580000Y-155765000D01*
G75*
G02*
X81430000Y-155915000I-150000J0D01*
G01*
G37*
G36*
G01*
X82700000Y-155915000D02*
X82400000Y-155915000D01*
G75*
G02*
X82250000Y-155765000I0J150000D01*
G01*
X82250000Y-154115000D01*
G75*
G02*
X82400000Y-153965000I150000J0D01*
G01*
X82700000Y-153965000D01*
G75*
G02*
X82850000Y-154115000I0J-150000D01*
G01*
X82850000Y-155765000D01*
G75*
G02*
X82700000Y-155915000I-150000J0D01*
G01*
G37*
G36*
G01*
X83970000Y-155915000D02*
X83670000Y-155915000D01*
G75*
G02*
X83520000Y-155765000I0J150000D01*
G01*
X83520000Y-154115000D01*
G75*
G02*
X83670000Y-153965000I150000J0D01*
G01*
X83970000Y-153965000D01*
G75*
G02*
X84120000Y-154115000I0J-150000D01*
G01*
X84120000Y-155765000D01*
G75*
G02*
X83970000Y-155915000I-150000J0D01*
G01*
G37*
G36*
G01*
X85240000Y-155915000D02*
X84940000Y-155915000D01*
G75*
G02*
X84790000Y-155765000I0J150000D01*
G01*
X84790000Y-154115000D01*
G75*
G02*
X84940000Y-153965000I150000J0D01*
G01*
X85240000Y-153965000D01*
G75*
G02*
X85390000Y-154115000I0J-150000D01*
G01*
X85390000Y-155765000D01*
G75*
G02*
X85240000Y-155915000I-150000J0D01*
G01*
G37*
G36*
G01*
X85240000Y-160865000D02*
X84940000Y-160865000D01*
G75*
G02*
X84790000Y-160715000I0J150000D01*
G01*
X84790000Y-159065000D01*
G75*
G02*
X84940000Y-158915000I150000J0D01*
G01*
X85240000Y-158915000D01*
G75*
G02*
X85390000Y-159065000I0J-150000D01*
G01*
X85390000Y-160715000D01*
G75*
G02*
X85240000Y-160865000I-150000J0D01*
G01*
G37*
G36*
G01*
X83970000Y-160865000D02*
X83670000Y-160865000D01*
G75*
G02*
X83520000Y-160715000I0J150000D01*
G01*
X83520000Y-159065000D01*
G75*
G02*
X83670000Y-158915000I150000J0D01*
G01*
X83970000Y-158915000D01*
G75*
G02*
X84120000Y-159065000I0J-150000D01*
G01*
X84120000Y-160715000D01*
G75*
G02*
X83970000Y-160865000I-150000J0D01*
G01*
G37*
G36*
G01*
X82700000Y-160865000D02*
X82400000Y-160865000D01*
G75*
G02*
X82250000Y-160715000I0J150000D01*
G01*
X82250000Y-159065000D01*
G75*
G02*
X82400000Y-158915000I150000J0D01*
G01*
X82700000Y-158915000D01*
G75*
G02*
X82850000Y-159065000I0J-150000D01*
G01*
X82850000Y-160715000D01*
G75*
G02*
X82700000Y-160865000I-150000J0D01*
G01*
G37*
G36*
G01*
X81430000Y-160865000D02*
X81130000Y-160865000D01*
G75*
G02*
X80980000Y-160715000I0J150000D01*
G01*
X80980000Y-159065000D01*
G75*
G02*
X81130000Y-158915000I150000J0D01*
G01*
X81430000Y-158915000D01*
G75*
G02*
X81580000Y-159065000I0J-150000D01*
G01*
X81580000Y-160715000D01*
G75*
G02*
X81430000Y-160865000I-150000J0D01*
G01*
G37*
G36*
G01*
X80160000Y-160865000D02*
X79860000Y-160865000D01*
G75*
G02*
X79710000Y-160715000I0J150000D01*
G01*
X79710000Y-159065000D01*
G75*
G02*
X79860000Y-158915000I150000J0D01*
G01*
X80160000Y-158915000D01*
G75*
G02*
X80310000Y-159065000I0J-150000D01*
G01*
X80310000Y-160715000D01*
G75*
G02*
X80160000Y-160865000I-150000J0D01*
G01*
G37*
G36*
G01*
X78890000Y-160865000D02*
X78590000Y-160865000D01*
G75*
G02*
X78440000Y-160715000I0J150000D01*
G01*
X78440000Y-159065000D01*
G75*
G02*
X78590000Y-158915000I150000J0D01*
G01*
X78890000Y-158915000D01*
G75*
G02*
X79040000Y-159065000I0J-150000D01*
G01*
X79040000Y-160715000D01*
G75*
G02*
X78890000Y-160865000I-150000J0D01*
G01*
G37*
G36*
G01*
X77620000Y-160865000D02*
X77320000Y-160865000D01*
G75*
G02*
X77170000Y-160715000I0J150000D01*
G01*
X77170000Y-159065000D01*
G75*
G02*
X77320000Y-158915000I150000J0D01*
G01*
X77620000Y-158915000D01*
G75*
G02*
X77770000Y-159065000I0J-150000D01*
G01*
X77770000Y-160715000D01*
G75*
G02*
X77620000Y-160865000I-150000J0D01*
G01*
G37*
G36*
G01*
X111275000Y-144550000D02*
X110975000Y-144550000D01*
G75*
G02*
X110825000Y-144400000I0J150000D01*
G01*
X110825000Y-142750000D01*
G75*
G02*
X110975000Y-142600000I150000J0D01*
G01*
X111275000Y-142600000D01*
G75*
G02*
X111425000Y-142750000I0J-150000D01*
G01*
X111425000Y-144400000D01*
G75*
G02*
X111275000Y-144550000I-150000J0D01*
G01*
G37*
G36*
G01*
X112545000Y-144550000D02*
X112245000Y-144550000D01*
G75*
G02*
X112095000Y-144400000I0J150000D01*
G01*
X112095000Y-142750000D01*
G75*
G02*
X112245000Y-142600000I150000J0D01*
G01*
X112545000Y-142600000D01*
G75*
G02*
X112695000Y-142750000I0J-150000D01*
G01*
X112695000Y-144400000D01*
G75*
G02*
X112545000Y-144550000I-150000J0D01*
G01*
G37*
G36*
G01*
X113815000Y-144550000D02*
X113515000Y-144550000D01*
G75*
G02*
X113365000Y-144400000I0J150000D01*
G01*
X113365000Y-142750000D01*
G75*
G02*
X113515000Y-142600000I150000J0D01*
G01*
X113815000Y-142600000D01*
G75*
G02*
X113965000Y-142750000I0J-150000D01*
G01*
X113965000Y-144400000D01*
G75*
G02*
X113815000Y-144550000I-150000J0D01*
G01*
G37*
G36*
G01*
X115085000Y-144550000D02*
X114785000Y-144550000D01*
G75*
G02*
X114635000Y-144400000I0J150000D01*
G01*
X114635000Y-142750000D01*
G75*
G02*
X114785000Y-142600000I150000J0D01*
G01*
X115085000Y-142600000D01*
G75*
G02*
X115235000Y-142750000I0J-150000D01*
G01*
X115235000Y-144400000D01*
G75*
G02*
X115085000Y-144550000I-150000J0D01*
G01*
G37*
G36*
G01*
X116355000Y-144550000D02*
X116055000Y-144550000D01*
G75*
G02*
X115905000Y-144400000I0J150000D01*
G01*
X115905000Y-142750000D01*
G75*
G02*
X116055000Y-142600000I150000J0D01*
G01*
X116355000Y-142600000D01*
G75*
G02*
X116505000Y-142750000I0J-150000D01*
G01*
X116505000Y-144400000D01*
G75*
G02*
X116355000Y-144550000I-150000J0D01*
G01*
G37*
G36*
G01*
X117625000Y-144550000D02*
X117325000Y-144550000D01*
G75*
G02*
X117175000Y-144400000I0J150000D01*
G01*
X117175000Y-142750000D01*
G75*
G02*
X117325000Y-142600000I150000J0D01*
G01*
X117625000Y-142600000D01*
G75*
G02*
X117775000Y-142750000I0J-150000D01*
G01*
X117775000Y-144400000D01*
G75*
G02*
X117625000Y-144550000I-150000J0D01*
G01*
G37*
G36*
G01*
X118895000Y-144550000D02*
X118595000Y-144550000D01*
G75*
G02*
X118445000Y-144400000I0J150000D01*
G01*
X118445000Y-142750000D01*
G75*
G02*
X118595000Y-142600000I150000J0D01*
G01*
X118895000Y-142600000D01*
G75*
G02*
X119045000Y-142750000I0J-150000D01*
G01*
X119045000Y-144400000D01*
G75*
G02*
X118895000Y-144550000I-150000J0D01*
G01*
G37*
G36*
G01*
X120165000Y-144550000D02*
X119865000Y-144550000D01*
G75*
G02*
X119715000Y-144400000I0J150000D01*
G01*
X119715000Y-142750000D01*
G75*
G02*
X119865000Y-142600000I150000J0D01*
G01*
X120165000Y-142600000D01*
G75*
G02*
X120315000Y-142750000I0J-150000D01*
G01*
X120315000Y-144400000D01*
G75*
G02*
X120165000Y-144550000I-150000J0D01*
G01*
G37*
G36*
G01*
X120165000Y-149500000D02*
X119865000Y-149500000D01*
G75*
G02*
X119715000Y-149350000I0J150000D01*
G01*
X119715000Y-147700000D01*
G75*
G02*
X119865000Y-147550000I150000J0D01*
G01*
X120165000Y-147550000D01*
G75*
G02*
X120315000Y-147700000I0J-150000D01*
G01*
X120315000Y-149350000D01*
G75*
G02*
X120165000Y-149500000I-150000J0D01*
G01*
G37*
G36*
G01*
X118895000Y-149500000D02*
X118595000Y-149500000D01*
G75*
G02*
X118445000Y-149350000I0J150000D01*
G01*
X118445000Y-147700000D01*
G75*
G02*
X118595000Y-147550000I150000J0D01*
G01*
X118895000Y-147550000D01*
G75*
G02*
X119045000Y-147700000I0J-150000D01*
G01*
X119045000Y-149350000D01*
G75*
G02*
X118895000Y-149500000I-150000J0D01*
G01*
G37*
G36*
G01*
X117625000Y-149500000D02*
X117325000Y-149500000D01*
G75*
G02*
X117175000Y-149350000I0J150000D01*
G01*
X117175000Y-147700000D01*
G75*
G02*
X117325000Y-147550000I150000J0D01*
G01*
X117625000Y-147550000D01*
G75*
G02*
X117775000Y-147700000I0J-150000D01*
G01*
X117775000Y-149350000D01*
G75*
G02*
X117625000Y-149500000I-150000J0D01*
G01*
G37*
G36*
G01*
X116355000Y-149500000D02*
X116055000Y-149500000D01*
G75*
G02*
X115905000Y-149350000I0J150000D01*
G01*
X115905000Y-147700000D01*
G75*
G02*
X116055000Y-147550000I150000J0D01*
G01*
X116355000Y-147550000D01*
G75*
G02*
X116505000Y-147700000I0J-150000D01*
G01*
X116505000Y-149350000D01*
G75*
G02*
X116355000Y-149500000I-150000J0D01*
G01*
G37*
G36*
G01*
X115085000Y-149500000D02*
X114785000Y-149500000D01*
G75*
G02*
X114635000Y-149350000I0J150000D01*
G01*
X114635000Y-147700000D01*
G75*
G02*
X114785000Y-147550000I150000J0D01*
G01*
X115085000Y-147550000D01*
G75*
G02*
X115235000Y-147700000I0J-150000D01*
G01*
X115235000Y-149350000D01*
G75*
G02*
X115085000Y-149500000I-150000J0D01*
G01*
G37*
G36*
G01*
X113815000Y-149500000D02*
X113515000Y-149500000D01*
G75*
G02*
X113365000Y-149350000I0J150000D01*
G01*
X113365000Y-147700000D01*
G75*
G02*
X113515000Y-147550000I150000J0D01*
G01*
X113815000Y-147550000D01*
G75*
G02*
X113965000Y-147700000I0J-150000D01*
G01*
X113965000Y-149350000D01*
G75*
G02*
X113815000Y-149500000I-150000J0D01*
G01*
G37*
G36*
G01*
X112545000Y-149500000D02*
X112245000Y-149500000D01*
G75*
G02*
X112095000Y-149350000I0J150000D01*
G01*
X112095000Y-147700000D01*
G75*
G02*
X112245000Y-147550000I150000J0D01*
G01*
X112545000Y-147550000D01*
G75*
G02*
X112695000Y-147700000I0J-150000D01*
G01*
X112695000Y-149350000D01*
G75*
G02*
X112545000Y-149500000I-150000J0D01*
G01*
G37*
G36*
G01*
X111275000Y-149500000D02*
X110975000Y-149500000D01*
G75*
G02*
X110825000Y-149350000I0J150000D01*
G01*
X110825000Y-147700000D01*
G75*
G02*
X110975000Y-147550000I150000J0D01*
G01*
X111275000Y-147550000D01*
G75*
G02*
X111425000Y-147700000I0J-150000D01*
G01*
X111425000Y-149350000D01*
G75*
G02*
X111275000Y-149500000I-150000J0D01*
G01*
G37*
G36*
G01*
X111275000Y-133120000D02*
X110975000Y-133120000D01*
G75*
G02*
X110825000Y-132970000I0J150000D01*
G01*
X110825000Y-131320000D01*
G75*
G02*
X110975000Y-131170000I150000J0D01*
G01*
X111275000Y-131170000D01*
G75*
G02*
X111425000Y-131320000I0J-150000D01*
G01*
X111425000Y-132970000D01*
G75*
G02*
X111275000Y-133120000I-150000J0D01*
G01*
G37*
G36*
G01*
X112545000Y-133120000D02*
X112245000Y-133120000D01*
G75*
G02*
X112095000Y-132970000I0J150000D01*
G01*
X112095000Y-131320000D01*
G75*
G02*
X112245000Y-131170000I150000J0D01*
G01*
X112545000Y-131170000D01*
G75*
G02*
X112695000Y-131320000I0J-150000D01*
G01*
X112695000Y-132970000D01*
G75*
G02*
X112545000Y-133120000I-150000J0D01*
G01*
G37*
G36*
G01*
X113815000Y-133120000D02*
X113515000Y-133120000D01*
G75*
G02*
X113365000Y-132970000I0J150000D01*
G01*
X113365000Y-131320000D01*
G75*
G02*
X113515000Y-131170000I150000J0D01*
G01*
X113815000Y-131170000D01*
G75*
G02*
X113965000Y-131320000I0J-150000D01*
G01*
X113965000Y-132970000D01*
G75*
G02*
X113815000Y-133120000I-150000J0D01*
G01*
G37*
G36*
G01*
X115085000Y-133120000D02*
X114785000Y-133120000D01*
G75*
G02*
X114635000Y-132970000I0J150000D01*
G01*
X114635000Y-131320000D01*
G75*
G02*
X114785000Y-131170000I150000J0D01*
G01*
X115085000Y-131170000D01*
G75*
G02*
X115235000Y-131320000I0J-150000D01*
G01*
X115235000Y-132970000D01*
G75*
G02*
X115085000Y-133120000I-150000J0D01*
G01*
G37*
G36*
G01*
X116355000Y-133120000D02*
X116055000Y-133120000D01*
G75*
G02*
X115905000Y-132970000I0J150000D01*
G01*
X115905000Y-131320000D01*
G75*
G02*
X116055000Y-131170000I150000J0D01*
G01*
X116355000Y-131170000D01*
G75*
G02*
X116505000Y-131320000I0J-150000D01*
G01*
X116505000Y-132970000D01*
G75*
G02*
X116355000Y-133120000I-150000J0D01*
G01*
G37*
G36*
G01*
X117625000Y-133120000D02*
X117325000Y-133120000D01*
G75*
G02*
X117175000Y-132970000I0J150000D01*
G01*
X117175000Y-131320000D01*
G75*
G02*
X117325000Y-131170000I150000J0D01*
G01*
X117625000Y-131170000D01*
G75*
G02*
X117775000Y-131320000I0J-150000D01*
G01*
X117775000Y-132970000D01*
G75*
G02*
X117625000Y-133120000I-150000J0D01*
G01*
G37*
G36*
G01*
X118895000Y-133120000D02*
X118595000Y-133120000D01*
G75*
G02*
X118445000Y-132970000I0J150000D01*
G01*
X118445000Y-131320000D01*
G75*
G02*
X118595000Y-131170000I150000J0D01*
G01*
X118895000Y-131170000D01*
G75*
G02*
X119045000Y-131320000I0J-150000D01*
G01*
X119045000Y-132970000D01*
G75*
G02*
X118895000Y-133120000I-150000J0D01*
G01*
G37*
G36*
G01*
X120165000Y-133120000D02*
X119865000Y-133120000D01*
G75*
G02*
X119715000Y-132970000I0J150000D01*
G01*
X119715000Y-131320000D01*
G75*
G02*
X119865000Y-131170000I150000J0D01*
G01*
X120165000Y-131170000D01*
G75*
G02*
X120315000Y-131320000I0J-150000D01*
G01*
X120315000Y-132970000D01*
G75*
G02*
X120165000Y-133120000I-150000J0D01*
G01*
G37*
G36*
G01*
X120165000Y-138070000D02*
X119865000Y-138070000D01*
G75*
G02*
X119715000Y-137920000I0J150000D01*
G01*
X119715000Y-136270000D01*
G75*
G02*
X119865000Y-136120000I150000J0D01*
G01*
X120165000Y-136120000D01*
G75*
G02*
X120315000Y-136270000I0J-150000D01*
G01*
X120315000Y-137920000D01*
G75*
G02*
X120165000Y-138070000I-150000J0D01*
G01*
G37*
G36*
G01*
X118895000Y-138070000D02*
X118595000Y-138070000D01*
G75*
G02*
X118445000Y-137920000I0J150000D01*
G01*
X118445000Y-136270000D01*
G75*
G02*
X118595000Y-136120000I150000J0D01*
G01*
X118895000Y-136120000D01*
G75*
G02*
X119045000Y-136270000I0J-150000D01*
G01*
X119045000Y-137920000D01*
G75*
G02*
X118895000Y-138070000I-150000J0D01*
G01*
G37*
G36*
G01*
X117625000Y-138070000D02*
X117325000Y-138070000D01*
G75*
G02*
X117175000Y-137920000I0J150000D01*
G01*
X117175000Y-136270000D01*
G75*
G02*
X117325000Y-136120000I150000J0D01*
G01*
X117625000Y-136120000D01*
G75*
G02*
X117775000Y-136270000I0J-150000D01*
G01*
X117775000Y-137920000D01*
G75*
G02*
X117625000Y-138070000I-150000J0D01*
G01*
G37*
G36*
G01*
X116355000Y-138070000D02*
X116055000Y-138070000D01*
G75*
G02*
X115905000Y-137920000I0J150000D01*
G01*
X115905000Y-136270000D01*
G75*
G02*
X116055000Y-136120000I150000J0D01*
G01*
X116355000Y-136120000D01*
G75*
G02*
X116505000Y-136270000I0J-150000D01*
G01*
X116505000Y-137920000D01*
G75*
G02*
X116355000Y-138070000I-150000J0D01*
G01*
G37*
G36*
G01*
X115085000Y-138070000D02*
X114785000Y-138070000D01*
G75*
G02*
X114635000Y-137920000I0J150000D01*
G01*
X114635000Y-136270000D01*
G75*
G02*
X114785000Y-136120000I150000J0D01*
G01*
X115085000Y-136120000D01*
G75*
G02*
X115235000Y-136270000I0J-150000D01*
G01*
X115235000Y-137920000D01*
G75*
G02*
X115085000Y-138070000I-150000J0D01*
G01*
G37*
G36*
G01*
X113815000Y-138070000D02*
X113515000Y-138070000D01*
G75*
G02*
X113365000Y-137920000I0J150000D01*
G01*
X113365000Y-136270000D01*
G75*
G02*
X113515000Y-136120000I150000J0D01*
G01*
X113815000Y-136120000D01*
G75*
G02*
X113965000Y-136270000I0J-150000D01*
G01*
X113965000Y-137920000D01*
G75*
G02*
X113815000Y-138070000I-150000J0D01*
G01*
G37*
G36*
G01*
X112545000Y-138070000D02*
X112245000Y-138070000D01*
G75*
G02*
X112095000Y-137920000I0J150000D01*
G01*
X112095000Y-136270000D01*
G75*
G02*
X112245000Y-136120000I150000J0D01*
G01*
X112545000Y-136120000D01*
G75*
G02*
X112695000Y-136270000I0J-150000D01*
G01*
X112695000Y-137920000D01*
G75*
G02*
X112545000Y-138070000I-150000J0D01*
G01*
G37*
G36*
G01*
X111275000Y-138070000D02*
X110975000Y-138070000D01*
G75*
G02*
X110825000Y-137920000I0J150000D01*
G01*
X110825000Y-136270000D01*
G75*
G02*
X110975000Y-136120000I150000J0D01*
G01*
X111275000Y-136120000D01*
G75*
G02*
X111425000Y-136270000I0J-150000D01*
G01*
X111425000Y-137920000D01*
G75*
G02*
X111275000Y-138070000I-150000J0D01*
G01*
G37*
G36*
G01*
X77620000Y-144550000D02*
X77320000Y-144550000D01*
G75*
G02*
X77170000Y-144400000I0J150000D01*
G01*
X77170000Y-142750000D01*
G75*
G02*
X77320000Y-142600000I150000J0D01*
G01*
X77620000Y-142600000D01*
G75*
G02*
X77770000Y-142750000I0J-150000D01*
G01*
X77770000Y-144400000D01*
G75*
G02*
X77620000Y-144550000I-150000J0D01*
G01*
G37*
G36*
G01*
X78890000Y-144550000D02*
X78590000Y-144550000D01*
G75*
G02*
X78440000Y-144400000I0J150000D01*
G01*
X78440000Y-142750000D01*
G75*
G02*
X78590000Y-142600000I150000J0D01*
G01*
X78890000Y-142600000D01*
G75*
G02*
X79040000Y-142750000I0J-150000D01*
G01*
X79040000Y-144400000D01*
G75*
G02*
X78890000Y-144550000I-150000J0D01*
G01*
G37*
G36*
G01*
X80160000Y-144550000D02*
X79860000Y-144550000D01*
G75*
G02*
X79710000Y-144400000I0J150000D01*
G01*
X79710000Y-142750000D01*
G75*
G02*
X79860000Y-142600000I150000J0D01*
G01*
X80160000Y-142600000D01*
G75*
G02*
X80310000Y-142750000I0J-150000D01*
G01*
X80310000Y-144400000D01*
G75*
G02*
X80160000Y-144550000I-150000J0D01*
G01*
G37*
G36*
G01*
X81430000Y-144550000D02*
X81130000Y-144550000D01*
G75*
G02*
X80980000Y-144400000I0J150000D01*
G01*
X80980000Y-142750000D01*
G75*
G02*
X81130000Y-142600000I150000J0D01*
G01*
X81430000Y-142600000D01*
G75*
G02*
X81580000Y-142750000I0J-150000D01*
G01*
X81580000Y-144400000D01*
G75*
G02*
X81430000Y-144550000I-150000J0D01*
G01*
G37*
G36*
G01*
X82700000Y-144550000D02*
X82400000Y-144550000D01*
G75*
G02*
X82250000Y-144400000I0J150000D01*
G01*
X82250000Y-142750000D01*
G75*
G02*
X82400000Y-142600000I150000J0D01*
G01*
X82700000Y-142600000D01*
G75*
G02*
X82850000Y-142750000I0J-150000D01*
G01*
X82850000Y-144400000D01*
G75*
G02*
X82700000Y-144550000I-150000J0D01*
G01*
G37*
G36*
G01*
X83970000Y-144550000D02*
X83670000Y-144550000D01*
G75*
G02*
X83520000Y-144400000I0J150000D01*
G01*
X83520000Y-142750000D01*
G75*
G02*
X83670000Y-142600000I150000J0D01*
G01*
X83970000Y-142600000D01*
G75*
G02*
X84120000Y-142750000I0J-150000D01*
G01*
X84120000Y-144400000D01*
G75*
G02*
X83970000Y-144550000I-150000J0D01*
G01*
G37*
G36*
G01*
X85240000Y-144550000D02*
X84940000Y-144550000D01*
G75*
G02*
X84790000Y-144400000I0J150000D01*
G01*
X84790000Y-142750000D01*
G75*
G02*
X84940000Y-142600000I150000J0D01*
G01*
X85240000Y-142600000D01*
G75*
G02*
X85390000Y-142750000I0J-150000D01*
G01*
X85390000Y-144400000D01*
G75*
G02*
X85240000Y-144550000I-150000J0D01*
G01*
G37*
G36*
G01*
X85240000Y-149500000D02*
X84940000Y-149500000D01*
G75*
G02*
X84790000Y-149350000I0J150000D01*
G01*
X84790000Y-147700000D01*
G75*
G02*
X84940000Y-147550000I150000J0D01*
G01*
X85240000Y-147550000D01*
G75*
G02*
X85390000Y-147700000I0J-150000D01*
G01*
X85390000Y-149350000D01*
G75*
G02*
X85240000Y-149500000I-150000J0D01*
G01*
G37*
G36*
G01*
X83970000Y-149500000D02*
X83670000Y-149500000D01*
G75*
G02*
X83520000Y-149350000I0J150000D01*
G01*
X83520000Y-147700000D01*
G75*
G02*
X83670000Y-147550000I150000J0D01*
G01*
X83970000Y-147550000D01*
G75*
G02*
X84120000Y-147700000I0J-150000D01*
G01*
X84120000Y-149350000D01*
G75*
G02*
X83970000Y-149500000I-150000J0D01*
G01*
G37*
G36*
G01*
X82700000Y-149500000D02*
X82400000Y-149500000D01*
G75*
G02*
X82250000Y-149350000I0J150000D01*
G01*
X82250000Y-147700000D01*
G75*
G02*
X82400000Y-147550000I150000J0D01*
G01*
X82700000Y-147550000D01*
G75*
G02*
X82850000Y-147700000I0J-150000D01*
G01*
X82850000Y-149350000D01*
G75*
G02*
X82700000Y-149500000I-150000J0D01*
G01*
G37*
G36*
G01*
X81430000Y-149500000D02*
X81130000Y-149500000D01*
G75*
G02*
X80980000Y-149350000I0J150000D01*
G01*
X80980000Y-147700000D01*
G75*
G02*
X81130000Y-147550000I150000J0D01*
G01*
X81430000Y-147550000D01*
G75*
G02*
X81580000Y-147700000I0J-150000D01*
G01*
X81580000Y-149350000D01*
G75*
G02*
X81430000Y-149500000I-150000J0D01*
G01*
G37*
G36*
G01*
X80160000Y-149500000D02*
X79860000Y-149500000D01*
G75*
G02*
X79710000Y-149350000I0J150000D01*
G01*
X79710000Y-147700000D01*
G75*
G02*
X79860000Y-147550000I150000J0D01*
G01*
X80160000Y-147550000D01*
G75*
G02*
X80310000Y-147700000I0J-150000D01*
G01*
X80310000Y-149350000D01*
G75*
G02*
X80160000Y-149500000I-150000J0D01*
G01*
G37*
G36*
G01*
X78890000Y-149500000D02*
X78590000Y-149500000D01*
G75*
G02*
X78440000Y-149350000I0J150000D01*
G01*
X78440000Y-147700000D01*
G75*
G02*
X78590000Y-147550000I150000J0D01*
G01*
X78890000Y-147550000D01*
G75*
G02*
X79040000Y-147700000I0J-150000D01*
G01*
X79040000Y-149350000D01*
G75*
G02*
X78890000Y-149500000I-150000J0D01*
G01*
G37*
G36*
G01*
X77620000Y-149500000D02*
X77320000Y-149500000D01*
G75*
G02*
X77170000Y-149350000I0J150000D01*
G01*
X77170000Y-147700000D01*
G75*
G02*
X77320000Y-147550000I150000J0D01*
G01*
X77620000Y-147550000D01*
G75*
G02*
X77770000Y-147700000I0J-150000D01*
G01*
X77770000Y-149350000D01*
G75*
G02*
X77620000Y-149500000I-150000J0D01*
G01*
G37*
G36*
G01*
X94130000Y-144550000D02*
X93830000Y-144550000D01*
G75*
G02*
X93680000Y-144400000I0J150000D01*
G01*
X93680000Y-142750000D01*
G75*
G02*
X93830000Y-142600000I150000J0D01*
G01*
X94130000Y-142600000D01*
G75*
G02*
X94280000Y-142750000I0J-150000D01*
G01*
X94280000Y-144400000D01*
G75*
G02*
X94130000Y-144550000I-150000J0D01*
G01*
G37*
G36*
G01*
X95400000Y-144550000D02*
X95100000Y-144550000D01*
G75*
G02*
X94950000Y-144400000I0J150000D01*
G01*
X94950000Y-142750000D01*
G75*
G02*
X95100000Y-142600000I150000J0D01*
G01*
X95400000Y-142600000D01*
G75*
G02*
X95550000Y-142750000I0J-150000D01*
G01*
X95550000Y-144400000D01*
G75*
G02*
X95400000Y-144550000I-150000J0D01*
G01*
G37*
G36*
G01*
X96670000Y-144550000D02*
X96370000Y-144550000D01*
G75*
G02*
X96220000Y-144400000I0J150000D01*
G01*
X96220000Y-142750000D01*
G75*
G02*
X96370000Y-142600000I150000J0D01*
G01*
X96670000Y-142600000D01*
G75*
G02*
X96820000Y-142750000I0J-150000D01*
G01*
X96820000Y-144400000D01*
G75*
G02*
X96670000Y-144550000I-150000J0D01*
G01*
G37*
G36*
G01*
X97940000Y-144550000D02*
X97640000Y-144550000D01*
G75*
G02*
X97490000Y-144400000I0J150000D01*
G01*
X97490000Y-142750000D01*
G75*
G02*
X97640000Y-142600000I150000J0D01*
G01*
X97940000Y-142600000D01*
G75*
G02*
X98090000Y-142750000I0J-150000D01*
G01*
X98090000Y-144400000D01*
G75*
G02*
X97940000Y-144550000I-150000J0D01*
G01*
G37*
G36*
G01*
X99210000Y-144550000D02*
X98910000Y-144550000D01*
G75*
G02*
X98760000Y-144400000I0J150000D01*
G01*
X98760000Y-142750000D01*
G75*
G02*
X98910000Y-142600000I150000J0D01*
G01*
X99210000Y-142600000D01*
G75*
G02*
X99360000Y-142750000I0J-150000D01*
G01*
X99360000Y-144400000D01*
G75*
G02*
X99210000Y-144550000I-150000J0D01*
G01*
G37*
G36*
G01*
X100480000Y-144550000D02*
X100180000Y-144550000D01*
G75*
G02*
X100030000Y-144400000I0J150000D01*
G01*
X100030000Y-142750000D01*
G75*
G02*
X100180000Y-142600000I150000J0D01*
G01*
X100480000Y-142600000D01*
G75*
G02*
X100630000Y-142750000I0J-150000D01*
G01*
X100630000Y-144400000D01*
G75*
G02*
X100480000Y-144550000I-150000J0D01*
G01*
G37*
G36*
G01*
X101750000Y-144550000D02*
X101450000Y-144550000D01*
G75*
G02*
X101300000Y-144400000I0J150000D01*
G01*
X101300000Y-142750000D01*
G75*
G02*
X101450000Y-142600000I150000J0D01*
G01*
X101750000Y-142600000D01*
G75*
G02*
X101900000Y-142750000I0J-150000D01*
G01*
X101900000Y-144400000D01*
G75*
G02*
X101750000Y-144550000I-150000J0D01*
G01*
G37*
G36*
G01*
X101750000Y-149500000D02*
X101450000Y-149500000D01*
G75*
G02*
X101300000Y-149350000I0J150000D01*
G01*
X101300000Y-147700000D01*
G75*
G02*
X101450000Y-147550000I150000J0D01*
G01*
X101750000Y-147550000D01*
G75*
G02*
X101900000Y-147700000I0J-150000D01*
G01*
X101900000Y-149350000D01*
G75*
G02*
X101750000Y-149500000I-150000J0D01*
G01*
G37*
G36*
G01*
X100480000Y-149500000D02*
X100180000Y-149500000D01*
G75*
G02*
X100030000Y-149350000I0J150000D01*
G01*
X100030000Y-147700000D01*
G75*
G02*
X100180000Y-147550000I150000J0D01*
G01*
X100480000Y-147550000D01*
G75*
G02*
X100630000Y-147700000I0J-150000D01*
G01*
X100630000Y-149350000D01*
G75*
G02*
X100480000Y-149500000I-150000J0D01*
G01*
G37*
G36*
G01*
X99210000Y-149500000D02*
X98910000Y-149500000D01*
G75*
G02*
X98760000Y-149350000I0J150000D01*
G01*
X98760000Y-147700000D01*
G75*
G02*
X98910000Y-147550000I150000J0D01*
G01*
X99210000Y-147550000D01*
G75*
G02*
X99360000Y-147700000I0J-150000D01*
G01*
X99360000Y-149350000D01*
G75*
G02*
X99210000Y-149500000I-150000J0D01*
G01*
G37*
G36*
G01*
X97940000Y-149500000D02*
X97640000Y-149500000D01*
G75*
G02*
X97490000Y-149350000I0J150000D01*
G01*
X97490000Y-147700000D01*
G75*
G02*
X97640000Y-147550000I150000J0D01*
G01*
X97940000Y-147550000D01*
G75*
G02*
X98090000Y-147700000I0J-150000D01*
G01*
X98090000Y-149350000D01*
G75*
G02*
X97940000Y-149500000I-150000J0D01*
G01*
G37*
G36*
G01*
X96670000Y-149500000D02*
X96370000Y-149500000D01*
G75*
G02*
X96220000Y-149350000I0J150000D01*
G01*
X96220000Y-147700000D01*
G75*
G02*
X96370000Y-147550000I150000J0D01*
G01*
X96670000Y-147550000D01*
G75*
G02*
X96820000Y-147700000I0J-150000D01*
G01*
X96820000Y-149350000D01*
G75*
G02*
X96670000Y-149500000I-150000J0D01*
G01*
G37*
G36*
G01*
X95400000Y-149500000D02*
X95100000Y-149500000D01*
G75*
G02*
X94950000Y-149350000I0J150000D01*
G01*
X94950000Y-147700000D01*
G75*
G02*
X95100000Y-147550000I150000J0D01*
G01*
X95400000Y-147550000D01*
G75*
G02*
X95550000Y-147700000I0J-150000D01*
G01*
X95550000Y-149350000D01*
G75*
G02*
X95400000Y-149500000I-150000J0D01*
G01*
G37*
G36*
G01*
X94130000Y-149500000D02*
X93830000Y-149500000D01*
G75*
G02*
X93680000Y-149350000I0J150000D01*
G01*
X93680000Y-147700000D01*
G75*
G02*
X93830000Y-147550000I150000J0D01*
G01*
X94130000Y-147550000D01*
G75*
G02*
X94280000Y-147700000I0J-150000D01*
G01*
X94280000Y-149350000D01*
G75*
G02*
X94130000Y-149500000I-150000J0D01*
G01*
G37*
G36*
G01*
X111275000Y-155980000D02*
X110975000Y-155980000D01*
G75*
G02*
X110825000Y-155830000I0J150000D01*
G01*
X110825000Y-154180000D01*
G75*
G02*
X110975000Y-154030000I150000J0D01*
G01*
X111275000Y-154030000D01*
G75*
G02*
X111425000Y-154180000I0J-150000D01*
G01*
X111425000Y-155830000D01*
G75*
G02*
X111275000Y-155980000I-150000J0D01*
G01*
G37*
G36*
G01*
X112545000Y-155980000D02*
X112245000Y-155980000D01*
G75*
G02*
X112095000Y-155830000I0J150000D01*
G01*
X112095000Y-154180000D01*
G75*
G02*
X112245000Y-154030000I150000J0D01*
G01*
X112545000Y-154030000D01*
G75*
G02*
X112695000Y-154180000I0J-150000D01*
G01*
X112695000Y-155830000D01*
G75*
G02*
X112545000Y-155980000I-150000J0D01*
G01*
G37*
G36*
G01*
X113815000Y-155980000D02*
X113515000Y-155980000D01*
G75*
G02*
X113365000Y-155830000I0J150000D01*
G01*
X113365000Y-154180000D01*
G75*
G02*
X113515000Y-154030000I150000J0D01*
G01*
X113815000Y-154030000D01*
G75*
G02*
X113965000Y-154180000I0J-150000D01*
G01*
X113965000Y-155830000D01*
G75*
G02*
X113815000Y-155980000I-150000J0D01*
G01*
G37*
G36*
G01*
X115085000Y-155980000D02*
X114785000Y-155980000D01*
G75*
G02*
X114635000Y-155830000I0J150000D01*
G01*
X114635000Y-154180000D01*
G75*
G02*
X114785000Y-154030000I150000J0D01*
G01*
X115085000Y-154030000D01*
G75*
G02*
X115235000Y-154180000I0J-150000D01*
G01*
X115235000Y-155830000D01*
G75*
G02*
X115085000Y-155980000I-150000J0D01*
G01*
G37*
G36*
G01*
X116355000Y-155980000D02*
X116055000Y-155980000D01*
G75*
G02*
X115905000Y-155830000I0J150000D01*
G01*
X115905000Y-154180000D01*
G75*
G02*
X116055000Y-154030000I150000J0D01*
G01*
X116355000Y-154030000D01*
G75*
G02*
X116505000Y-154180000I0J-150000D01*
G01*
X116505000Y-155830000D01*
G75*
G02*
X116355000Y-155980000I-150000J0D01*
G01*
G37*
G36*
G01*
X117625000Y-155980000D02*
X117325000Y-155980000D01*
G75*
G02*
X117175000Y-155830000I0J150000D01*
G01*
X117175000Y-154180000D01*
G75*
G02*
X117325000Y-154030000I150000J0D01*
G01*
X117625000Y-154030000D01*
G75*
G02*
X117775000Y-154180000I0J-150000D01*
G01*
X117775000Y-155830000D01*
G75*
G02*
X117625000Y-155980000I-150000J0D01*
G01*
G37*
G36*
G01*
X118895000Y-155980000D02*
X118595000Y-155980000D01*
G75*
G02*
X118445000Y-155830000I0J150000D01*
G01*
X118445000Y-154180000D01*
G75*
G02*
X118595000Y-154030000I150000J0D01*
G01*
X118895000Y-154030000D01*
G75*
G02*
X119045000Y-154180000I0J-150000D01*
G01*
X119045000Y-155830000D01*
G75*
G02*
X118895000Y-155980000I-150000J0D01*
G01*
G37*
G36*
G01*
X120165000Y-155980000D02*
X119865000Y-155980000D01*
G75*
G02*
X119715000Y-155830000I0J150000D01*
G01*
X119715000Y-154180000D01*
G75*
G02*
X119865000Y-154030000I150000J0D01*
G01*
X120165000Y-154030000D01*
G75*
G02*
X120315000Y-154180000I0J-150000D01*
G01*
X120315000Y-155830000D01*
G75*
G02*
X120165000Y-155980000I-150000J0D01*
G01*
G37*
G36*
G01*
X120165000Y-160930000D02*
X119865000Y-160930000D01*
G75*
G02*
X119715000Y-160780000I0J150000D01*
G01*
X119715000Y-159130000D01*
G75*
G02*
X119865000Y-158980000I150000J0D01*
G01*
X120165000Y-158980000D01*
G75*
G02*
X120315000Y-159130000I0J-150000D01*
G01*
X120315000Y-160780000D01*
G75*
G02*
X120165000Y-160930000I-150000J0D01*
G01*
G37*
G36*
G01*
X118895000Y-160930000D02*
X118595000Y-160930000D01*
G75*
G02*
X118445000Y-160780000I0J150000D01*
G01*
X118445000Y-159130000D01*
G75*
G02*
X118595000Y-158980000I150000J0D01*
G01*
X118895000Y-158980000D01*
G75*
G02*
X119045000Y-159130000I0J-150000D01*
G01*
X119045000Y-160780000D01*
G75*
G02*
X118895000Y-160930000I-150000J0D01*
G01*
G37*
G36*
G01*
X117625000Y-160930000D02*
X117325000Y-160930000D01*
G75*
G02*
X117175000Y-160780000I0J150000D01*
G01*
X117175000Y-159130000D01*
G75*
G02*
X117325000Y-158980000I150000J0D01*
G01*
X117625000Y-158980000D01*
G75*
G02*
X117775000Y-159130000I0J-150000D01*
G01*
X117775000Y-160780000D01*
G75*
G02*
X117625000Y-160930000I-150000J0D01*
G01*
G37*
G36*
G01*
X116355000Y-160930000D02*
X116055000Y-160930000D01*
G75*
G02*
X115905000Y-160780000I0J150000D01*
G01*
X115905000Y-159130000D01*
G75*
G02*
X116055000Y-158980000I150000J0D01*
G01*
X116355000Y-158980000D01*
G75*
G02*
X116505000Y-159130000I0J-150000D01*
G01*
X116505000Y-160780000D01*
G75*
G02*
X116355000Y-160930000I-150000J0D01*
G01*
G37*
G36*
G01*
X115085000Y-160930000D02*
X114785000Y-160930000D01*
G75*
G02*
X114635000Y-160780000I0J150000D01*
G01*
X114635000Y-159130000D01*
G75*
G02*
X114785000Y-158980000I150000J0D01*
G01*
X115085000Y-158980000D01*
G75*
G02*
X115235000Y-159130000I0J-150000D01*
G01*
X115235000Y-160780000D01*
G75*
G02*
X115085000Y-160930000I-150000J0D01*
G01*
G37*
G36*
G01*
X113815000Y-160930000D02*
X113515000Y-160930000D01*
G75*
G02*
X113365000Y-160780000I0J150000D01*
G01*
X113365000Y-159130000D01*
G75*
G02*
X113515000Y-158980000I150000J0D01*
G01*
X113815000Y-158980000D01*
G75*
G02*
X113965000Y-159130000I0J-150000D01*
G01*
X113965000Y-160780000D01*
G75*
G02*
X113815000Y-160930000I-150000J0D01*
G01*
G37*
G36*
G01*
X112545000Y-160930000D02*
X112245000Y-160930000D01*
G75*
G02*
X112095000Y-160780000I0J150000D01*
G01*
X112095000Y-159130000D01*
G75*
G02*
X112245000Y-158980000I150000J0D01*
G01*
X112545000Y-158980000D01*
G75*
G02*
X112695000Y-159130000I0J-150000D01*
G01*
X112695000Y-160780000D01*
G75*
G02*
X112545000Y-160930000I-150000J0D01*
G01*
G37*
G36*
G01*
X111275000Y-160930000D02*
X110975000Y-160930000D01*
G75*
G02*
X110825000Y-160780000I0J150000D01*
G01*
X110825000Y-159130000D01*
G75*
G02*
X110975000Y-158980000I150000J0D01*
G01*
X111275000Y-158980000D01*
G75*
G02*
X111425000Y-159130000I0J-150000D01*
G01*
X111425000Y-160780000D01*
G75*
G02*
X111275000Y-160930000I-150000J0D01*
G01*
G37*
G36*
G01*
X94130000Y-155980000D02*
X93830000Y-155980000D01*
G75*
G02*
X93680000Y-155830000I0J150000D01*
G01*
X93680000Y-154180000D01*
G75*
G02*
X93830000Y-154030000I150000J0D01*
G01*
X94130000Y-154030000D01*
G75*
G02*
X94280000Y-154180000I0J-150000D01*
G01*
X94280000Y-155830000D01*
G75*
G02*
X94130000Y-155980000I-150000J0D01*
G01*
G37*
G36*
G01*
X95400000Y-155980000D02*
X95100000Y-155980000D01*
G75*
G02*
X94950000Y-155830000I0J150000D01*
G01*
X94950000Y-154180000D01*
G75*
G02*
X95100000Y-154030000I150000J0D01*
G01*
X95400000Y-154030000D01*
G75*
G02*
X95550000Y-154180000I0J-150000D01*
G01*
X95550000Y-155830000D01*
G75*
G02*
X95400000Y-155980000I-150000J0D01*
G01*
G37*
G36*
G01*
X96670000Y-155980000D02*
X96370000Y-155980000D01*
G75*
G02*
X96220000Y-155830000I0J150000D01*
G01*
X96220000Y-154180000D01*
G75*
G02*
X96370000Y-154030000I150000J0D01*
G01*
X96670000Y-154030000D01*
G75*
G02*
X96820000Y-154180000I0J-150000D01*
G01*
X96820000Y-155830000D01*
G75*
G02*
X96670000Y-155980000I-150000J0D01*
G01*
G37*
G36*
G01*
X97940000Y-155980000D02*
X97640000Y-155980000D01*
G75*
G02*
X97490000Y-155830000I0J150000D01*
G01*
X97490000Y-154180000D01*
G75*
G02*
X97640000Y-154030000I150000J0D01*
G01*
X97940000Y-154030000D01*
G75*
G02*
X98090000Y-154180000I0J-150000D01*
G01*
X98090000Y-155830000D01*
G75*
G02*
X97940000Y-155980000I-150000J0D01*
G01*
G37*
G36*
G01*
X99210000Y-155980000D02*
X98910000Y-155980000D01*
G75*
G02*
X98760000Y-155830000I0J150000D01*
G01*
X98760000Y-154180000D01*
G75*
G02*
X98910000Y-154030000I150000J0D01*
G01*
X99210000Y-154030000D01*
G75*
G02*
X99360000Y-154180000I0J-150000D01*
G01*
X99360000Y-155830000D01*
G75*
G02*
X99210000Y-155980000I-150000J0D01*
G01*
G37*
G36*
G01*
X100480000Y-155980000D02*
X100180000Y-155980000D01*
G75*
G02*
X100030000Y-155830000I0J150000D01*
G01*
X100030000Y-154180000D01*
G75*
G02*
X100180000Y-154030000I150000J0D01*
G01*
X100480000Y-154030000D01*
G75*
G02*
X100630000Y-154180000I0J-150000D01*
G01*
X100630000Y-155830000D01*
G75*
G02*
X100480000Y-155980000I-150000J0D01*
G01*
G37*
G36*
G01*
X101750000Y-155980000D02*
X101450000Y-155980000D01*
G75*
G02*
X101300000Y-155830000I0J150000D01*
G01*
X101300000Y-154180000D01*
G75*
G02*
X101450000Y-154030000I150000J0D01*
G01*
X101750000Y-154030000D01*
G75*
G02*
X101900000Y-154180000I0J-150000D01*
G01*
X101900000Y-155830000D01*
G75*
G02*
X101750000Y-155980000I-150000J0D01*
G01*
G37*
G36*
G01*
X101750000Y-160930000D02*
X101450000Y-160930000D01*
G75*
G02*
X101300000Y-160780000I0J150000D01*
G01*
X101300000Y-159130000D01*
G75*
G02*
X101450000Y-158980000I150000J0D01*
G01*
X101750000Y-158980000D01*
G75*
G02*
X101900000Y-159130000I0J-150000D01*
G01*
X101900000Y-160780000D01*
G75*
G02*
X101750000Y-160930000I-150000J0D01*
G01*
G37*
G36*
G01*
X100480000Y-160930000D02*
X100180000Y-160930000D01*
G75*
G02*
X100030000Y-160780000I0J150000D01*
G01*
X100030000Y-159130000D01*
G75*
G02*
X100180000Y-158980000I150000J0D01*
G01*
X100480000Y-158980000D01*
G75*
G02*
X100630000Y-159130000I0J-150000D01*
G01*
X100630000Y-160780000D01*
G75*
G02*
X100480000Y-160930000I-150000J0D01*
G01*
G37*
G36*
G01*
X99210000Y-160930000D02*
X98910000Y-160930000D01*
G75*
G02*
X98760000Y-160780000I0J150000D01*
G01*
X98760000Y-159130000D01*
G75*
G02*
X98910000Y-158980000I150000J0D01*
G01*
X99210000Y-158980000D01*
G75*
G02*
X99360000Y-159130000I0J-150000D01*
G01*
X99360000Y-160780000D01*
G75*
G02*
X99210000Y-160930000I-150000J0D01*
G01*
G37*
G36*
G01*
X97940000Y-160930000D02*
X97640000Y-160930000D01*
G75*
G02*
X97490000Y-160780000I0J150000D01*
G01*
X97490000Y-159130000D01*
G75*
G02*
X97640000Y-158980000I150000J0D01*
G01*
X97940000Y-158980000D01*
G75*
G02*
X98090000Y-159130000I0J-150000D01*
G01*
X98090000Y-160780000D01*
G75*
G02*
X97940000Y-160930000I-150000J0D01*
G01*
G37*
G36*
G01*
X96670000Y-160930000D02*
X96370000Y-160930000D01*
G75*
G02*
X96220000Y-160780000I0J150000D01*
G01*
X96220000Y-159130000D01*
G75*
G02*
X96370000Y-158980000I150000J0D01*
G01*
X96670000Y-158980000D01*
G75*
G02*
X96820000Y-159130000I0J-150000D01*
G01*
X96820000Y-160780000D01*
G75*
G02*
X96670000Y-160930000I-150000J0D01*
G01*
G37*
G36*
G01*
X95400000Y-160930000D02*
X95100000Y-160930000D01*
G75*
G02*
X94950000Y-160780000I0J150000D01*
G01*
X94950000Y-159130000D01*
G75*
G02*
X95100000Y-158980000I150000J0D01*
G01*
X95400000Y-158980000D01*
G75*
G02*
X95550000Y-159130000I0J-150000D01*
G01*
X95550000Y-160780000D01*
G75*
G02*
X95400000Y-160930000I-150000J0D01*
G01*
G37*
G36*
G01*
X94130000Y-160930000D02*
X93830000Y-160930000D01*
G75*
G02*
X93680000Y-160780000I0J150000D01*
G01*
X93680000Y-159130000D01*
G75*
G02*
X93830000Y-158980000I150000J0D01*
G01*
X94130000Y-158980000D01*
G75*
G02*
X94280000Y-159130000I0J-150000D01*
G01*
X94280000Y-160780000D01*
G75*
G02*
X94130000Y-160930000I-150000J0D01*
G01*
G37*
D18*
X35560000Y-144780000D03*
X68580000Y-160020000D03*
X38100000Y-144780000D03*
X66040000Y-160020000D03*
X40640000Y-144780000D03*
X63500000Y-160020000D03*
X43180000Y-144780000D03*
X60960000Y-160020000D03*
X45720000Y-144780000D03*
X58420000Y-160020000D03*
X48260000Y-144780000D03*
X55880000Y-160020000D03*
X50800000Y-144780000D03*
X53340000Y-160020000D03*
X53340000Y-144780000D03*
X50800000Y-160020000D03*
X55880000Y-144780000D03*
X48260000Y-160020000D03*
X58420000Y-144780000D03*
X45720000Y-160020000D03*
X60960000Y-144780000D03*
X43180000Y-160020000D03*
X63500000Y-144780000D03*
X40640000Y-160020000D03*
X66040000Y-144780000D03*
X38100000Y-160020000D03*
X68580000Y-144780000D03*
D17*
X35560000Y-160020000D03*
D18*
X35560000Y-114300000D03*
X68580000Y-121920000D03*
X38100000Y-114300000D03*
X66040000Y-121920000D03*
X40640000Y-114300000D03*
X63500000Y-121920000D03*
X43180000Y-114300000D03*
X60960000Y-121920000D03*
X45720000Y-114300000D03*
X58420000Y-121920000D03*
X48260000Y-114300000D03*
X55880000Y-121920000D03*
X50800000Y-114300000D03*
X53340000Y-121920000D03*
X53340000Y-114300000D03*
X50800000Y-121920000D03*
X55880000Y-114300000D03*
X48260000Y-121920000D03*
X58420000Y-114300000D03*
X45720000Y-121920000D03*
X60960000Y-114300000D03*
X43180000Y-121920000D03*
X63500000Y-114300000D03*
X40640000Y-121920000D03*
X66040000Y-114300000D03*
X38100000Y-121920000D03*
X68580000Y-114300000D03*
D17*
X35560000Y-121920000D03*
G36*
G01*
X101995000Y-44780000D02*
X103745000Y-44780000D01*
G75*
G02*
X104620000Y-45655000I0J-875000D01*
G01*
X104620000Y-47405000D01*
G75*
G02*
X103745000Y-48280000I-875000J0D01*
G01*
X101995000Y-48280000D01*
G75*
G02*
X101120000Y-47405000I0J875000D01*
G01*
X101120000Y-45655000D01*
G75*
G02*
X101995000Y-44780000I875000J0D01*
G01*
G37*
G36*
G01*
X106570000Y-42030000D02*
X108570000Y-42030000D01*
G75*
G02*
X109320000Y-42780000I0J-750000D01*
G01*
X109320000Y-44280000D01*
G75*
G02*
X108570000Y-45030000I-750000J0D01*
G01*
X106570000Y-45030000D01*
G75*
G02*
X105820000Y-44280000I0J750000D01*
G01*
X105820000Y-42780000D01*
G75*
G02*
X106570000Y-42030000I750000J0D01*
G01*
G37*
D20*
X107570000Y-49530000D03*
D21*
X151130000Y-68380000D03*
X151130000Y-63500000D03*
X65840000Y-60960000D03*
X60960000Y-60960000D03*
D18*
X102870000Y-83820000D03*
X151130000Y-99060000D03*
X105410000Y-83820000D03*
X148590000Y-99060000D03*
X107950000Y-83820000D03*
X146050000Y-99060000D03*
X110490000Y-83820000D03*
X143510000Y-99060000D03*
X113030000Y-83820000D03*
X140970000Y-99060000D03*
X115570000Y-83820000D03*
X138430000Y-99060000D03*
X118110000Y-83820000D03*
X135890000Y-99060000D03*
X120650000Y-83820000D03*
X133350000Y-99060000D03*
X123190000Y-83820000D03*
X130810000Y-99060000D03*
X125730000Y-83820000D03*
X128270000Y-99060000D03*
X128270000Y-83820000D03*
X125730000Y-99060000D03*
X130810000Y-83820000D03*
X123190000Y-99060000D03*
X133350000Y-83820000D03*
X120650000Y-99060000D03*
X135890000Y-83820000D03*
X118110000Y-99060000D03*
X138430000Y-83820000D03*
X115570000Y-99060000D03*
X140970000Y-83820000D03*
X113030000Y-99060000D03*
X143510000Y-83820000D03*
X110490000Y-99060000D03*
X146050000Y-83820000D03*
X107950000Y-99060000D03*
X148590000Y-83820000D03*
X105410000Y-99060000D03*
X151130000Y-83820000D03*
D17*
X102870000Y-99060000D03*
D22*
X142240000Y-59690000D03*
X142240000Y-62230000D03*
X142240000Y-64770000D03*
X142240000Y-67310000D03*
X142240000Y-69850000D03*
X139700000Y-57150000D03*
X139700000Y-62230000D03*
X139700000Y-64770000D03*
X139700000Y-67310000D03*
X139700000Y-69850000D03*
X139700000Y-72390000D03*
X139700000Y-74930000D03*
X137160000Y-74930000D03*
X134620000Y-74930000D03*
X132080000Y-74930000D03*
X129540000Y-74930000D03*
X127000000Y-74930000D03*
X142240000Y-72390000D03*
X137160000Y-72390000D03*
X134620000Y-72390000D03*
X132080000Y-72390000D03*
X129540000Y-72390000D03*
X127000000Y-72390000D03*
X124460000Y-72390000D03*
X124460000Y-69850000D03*
X124460000Y-67310000D03*
X124460000Y-64770000D03*
X124460000Y-62230000D03*
X124460000Y-59690000D03*
X127000000Y-69850000D03*
X127000000Y-67310000D03*
X127000000Y-64770000D03*
X127000000Y-62230000D03*
X127000000Y-59690000D03*
X137160000Y-57150000D03*
X134620000Y-57150000D03*
X127000000Y-57150000D03*
X129540000Y-57150000D03*
X132080000Y-57150000D03*
X139700000Y-59690000D03*
X137160000Y-59690000D03*
X129540000Y-59690000D03*
X132080000Y-59690000D03*
D23*
X134620000Y-59690000D03*
D24*
X35560000Y-50800000D03*
D21*
X40640000Y-50800000D03*
X38100000Y-50800000D03*
D18*
X35560000Y-68580000D03*
X83820000Y-83820000D03*
X38100000Y-68580000D03*
X81280000Y-83820000D03*
X40640000Y-68580000D03*
X78740000Y-83820000D03*
X43180000Y-68580000D03*
X76200000Y-83820000D03*
X45720000Y-68580000D03*
X73660000Y-83820000D03*
X48260000Y-68580000D03*
X71120000Y-83820000D03*
X50800000Y-68580000D03*
X68580000Y-83820000D03*
X53340000Y-68580000D03*
X66040000Y-83820000D03*
X55880000Y-68580000D03*
X63500000Y-83820000D03*
X58420000Y-68580000D03*
X60960000Y-83820000D03*
X60960000Y-68580000D03*
X58420000Y-83820000D03*
X63500000Y-68580000D03*
X55880000Y-83820000D03*
X66040000Y-68580000D03*
X53340000Y-83820000D03*
X68580000Y-68580000D03*
X50800000Y-83820000D03*
X71120000Y-68580000D03*
X48260000Y-83820000D03*
X73660000Y-68580000D03*
X45720000Y-83820000D03*
X76200000Y-68580000D03*
X43180000Y-83820000D03*
X78740000Y-68580000D03*
X40640000Y-83820000D03*
X81280000Y-68580000D03*
X38100000Y-83820000D03*
X83820000Y-68580000D03*
D17*
X35560000Y-83820000D03*
D25*
X97430000Y-45985000D03*
X97430000Y-46635000D03*
X97430000Y-47285000D03*
X97430000Y-47935000D03*
X97430000Y-48585000D03*
X97430000Y-49235000D03*
X97430000Y-49885000D03*
X97430000Y-50535000D03*
X90530000Y-50535000D03*
X90530000Y-49885000D03*
X90530000Y-49235000D03*
X90530000Y-48585000D03*
X90530000Y-47935000D03*
X90530000Y-47285000D03*
X90530000Y-46635000D03*
X90530000Y-45985000D03*
D18*
X106680000Y-118110000D03*
X134620000Y-125730000D03*
X109220000Y-118110000D03*
X132080000Y-125730000D03*
X111760000Y-118110000D03*
X129540000Y-125730000D03*
X114300000Y-118110000D03*
X127000000Y-125730000D03*
X116840000Y-118110000D03*
X124460000Y-125730000D03*
X119380000Y-118110000D03*
X121920000Y-125730000D03*
X121920000Y-118110000D03*
X119380000Y-125730000D03*
X124460000Y-118110000D03*
X116840000Y-125730000D03*
X127000000Y-118110000D03*
X114300000Y-125730000D03*
X129540000Y-118110000D03*
X111760000Y-125730000D03*
X132080000Y-118110000D03*
X109220000Y-125730000D03*
X134620000Y-118110000D03*
D17*
X106680000Y-125730000D03*
D18*
X35560000Y-91440000D03*
X83820000Y-106680000D03*
X38100000Y-91440000D03*
X81280000Y-106680000D03*
X40640000Y-91440000D03*
X78740000Y-106680000D03*
X43180000Y-91440000D03*
X76200000Y-106680000D03*
X45720000Y-91440000D03*
X73660000Y-106680000D03*
X48260000Y-91440000D03*
X71120000Y-106680000D03*
X50800000Y-91440000D03*
X68580000Y-106680000D03*
X53340000Y-91440000D03*
X66040000Y-106680000D03*
X55880000Y-91440000D03*
X63500000Y-106680000D03*
X58420000Y-91440000D03*
X60960000Y-106680000D03*
X60960000Y-91440000D03*
X58420000Y-106680000D03*
X63500000Y-91440000D03*
X55880000Y-106680000D03*
X66040000Y-91440000D03*
X53340000Y-106680000D03*
X68580000Y-91440000D03*
X50800000Y-106680000D03*
X71120000Y-91440000D03*
X48260000Y-106680000D03*
X73660000Y-91440000D03*
X45720000Y-106680000D03*
X76200000Y-91440000D03*
X43180000Y-106680000D03*
X78740000Y-91440000D03*
X40640000Y-106680000D03*
X81280000Y-91440000D03*
X38100000Y-106680000D03*
X83820000Y-91440000D03*
D17*
X35560000Y-106680000D03*
D18*
X35560000Y-129540000D03*
X68580000Y-137160000D03*
X38100000Y-129540000D03*
X66040000Y-137160000D03*
X40640000Y-129540000D03*
X63500000Y-137160000D03*
X43180000Y-129540000D03*
X60960000Y-137160000D03*
X45720000Y-129540000D03*
X58420000Y-137160000D03*
X48260000Y-129540000D03*
X55880000Y-137160000D03*
X50800000Y-129540000D03*
X53340000Y-137160000D03*
X53340000Y-129540000D03*
X50800000Y-137160000D03*
X55880000Y-129540000D03*
X48260000Y-137160000D03*
X58420000Y-129540000D03*
X45720000Y-137160000D03*
X60960000Y-129540000D03*
X43180000Y-137160000D03*
X63500000Y-129540000D03*
X40640000Y-137160000D03*
X66040000Y-129540000D03*
X38100000Y-137160000D03*
X68580000Y-129540000D03*
D17*
X35560000Y-137160000D03*
D12*
X87630000Y-119380000D03*
X74930000Y-119380000D03*
D26*
X42060000Y-39370000D03*
X42060000Y-43870000D03*
X35560000Y-39370000D03*
X35560000Y-43870000D03*
D18*
X151130000Y-111760000D03*
D16*
X151130000Y-121920000D03*
D14*
X151130000Y-105410000D03*
X148590000Y-105410000D03*
X146050000Y-105410000D03*
X143510000Y-105410000D03*
X140970000Y-105410000D03*
X138430000Y-105410000D03*
X135890000Y-105410000D03*
X133350000Y-105410000D03*
X130810000Y-105410000D03*
X128270000Y-105410000D03*
X125730000Y-105410000D03*
X123190000Y-105410000D03*
X120650000Y-105410000D03*
X118110000Y-105410000D03*
X115570000Y-105410000D03*
X113030000Y-105410000D03*
X110490000Y-105410000D03*
X107950000Y-105410000D03*
X105410000Y-105410000D03*
D15*
X102870000Y-105410000D03*
D14*
X146050000Y-111760000D03*
X143510000Y-111760000D03*
X140970000Y-111760000D03*
X138430000Y-111760000D03*
X135890000Y-111760000D03*
X133350000Y-111760000D03*
X130810000Y-111760000D03*
X128270000Y-111760000D03*
X125730000Y-111760000D03*
X123190000Y-111760000D03*
X120650000Y-111760000D03*
X118110000Y-111760000D03*
X115570000Y-111760000D03*
X113030000Y-111760000D03*
X110490000Y-111760000D03*
D15*
X107950000Y-111760000D03*
D14*
X151130000Y-45720000D03*
X148590000Y-45720000D03*
X146050000Y-45720000D03*
X143510000Y-45720000D03*
X140970000Y-45720000D03*
D15*
X138430000Y-45720000D03*
D14*
X130810000Y-45720000D03*
X128270000Y-45720000D03*
X125730000Y-45720000D03*
X123190000Y-45720000D03*
X120650000Y-45720000D03*
D15*
X118110000Y-45720000D03*
D14*
X63500000Y-45720000D03*
X60960000Y-45720000D03*
X58420000Y-45720000D03*
X55880000Y-45720000D03*
X53340000Y-45720000D03*
D15*
X50800000Y-45720000D03*
D27*
X83470000Y-46090000D03*
X71430000Y-46090000D03*
D28*
X76200000Y-48800000D03*
X78700000Y-48800000D03*
X78700000Y-50800000D03*
D15*
X76200000Y-50800000D03*
D14*
X38100000Y-62230000D03*
X38100000Y-59690000D03*
X40640000Y-62230000D03*
X40640000Y-59690000D03*
X43180000Y-62230000D03*
D15*
X43180000Y-59690000D03*
D29*
X99695000Y-76200000D03*
D30*
X97155000Y-76200000D03*
D29*
X99695000Y-69850000D03*
D30*
X97155000Y-69850000D03*
D29*
X99695000Y-63500000D03*
D30*
X97155000Y-63500000D03*
D29*
X99695000Y-57150000D03*
D30*
X97155000Y-57150000D03*
M02*
