M48
; DRILL file {KiCad (5.1.10-0-10_14)} date Saturday, May 08, 2021 at 10:18:31 PM
; FORMAT={2:4/ absolute / inch / suppress leading zeros}
; #@! TF.CreationDate,2021-05-08T22:18:31+02:00
; #@! TF.GenerationSoftware,Kicad,Pcbnew,(5.1.10-0-10_14)
FMAT,2
INCH,TZ
T1C0.0157
T2C0.0236
T3C0.0315
T4C0.0354
T5C0.0362
T6C0.0394
T7C0.0433
T8C0.0630
T9C0.0917
T10C0.1260
%
G90
G05
T1
X10500Y-45500
X10633Y-40200
X10700Y-47500
X10910Y-43416
X11100Y-47400
X11400Y-30400
X11500Y-38500
X11700Y-39400
X11800Y-37400
X11800Y-40200
X12000Y-41400
X12000Y-54700
X12108Y-49337
X12300Y-50100
X12377Y-42058
X12477Y-47000
X12577Y-39700
X12700Y-53100
X12800Y-32100
X12800Y-33200
X12800Y-36500
X12800Y-37000
X12800Y-38500
X12800Y-50800
X13000Y-38000
X13023Y-45740
X13047Y-50208
X13100Y-35100
X13100Y-35800
X13200Y-21400
X13200Y-56400
X13324Y-32160
X13503Y-44500
X13576Y-38943
X13900Y-44100
X13932Y-50208
X13993Y-40628
X14000Y-63900
X14197Y-31773
X14364Y-41387
X14405Y-27654
X14500Y-65900
X14700Y-24000
X14763Y-52488
X14847Y-40792
X14926Y-36800
X15000Y-21500
X15000Y-29400
X15000Y-64100
X15200Y-37000
X15410Y-27716
X15477Y-37499
X15500Y-66200
X15518Y-37792
X15573Y-30508
X15595Y-61705
X15600Y-45900
X15932Y-33792
X16000Y-64400
X16100Y-39300
X16217Y-29100
X16278Y-42732
X16308Y-36500
X16405Y-51787
X16457Y-39672
X16500Y-29800
X16595Y-62005
X16603Y-66208
X16634Y-30236
X16700Y-37208
X16900Y-41387
X17000Y-63900
X17000Y-64700
X17044Y-38172
X17200Y-41387
X17267Y-53109
X17271Y-34706
X17300Y-22600
X17369Y-38492
X17500Y-64200
X17595Y-62405
X17600Y-58400
X17785Y-38492
X18000Y-65000
X18137Y-34892
X18200Y-26100
X18251Y-42792
X18267Y-52796
X18540Y-38460
X18800Y-64600
X18847Y-28153
X19000Y-30508
X19000Y-52300
X19000Y-54800
X19000Y-65028
X19221Y-43093
X19300Y-28900
X19300Y-35048
X19500Y-65300
X19600Y-46900
X19626Y-38102
X19704Y-63832
X19800Y-44300
X19836Y-30092
X19838Y-39408
X20000Y-64908
X20200Y-38102
X20286Y-37446
X20300Y-29100
X20398Y-33552
X20500Y-22400
X20555Y-37652
X20666Y-39648
X20700Y-29700
X20700Y-63500
X20744Y-40208
X20896Y-38252
X21000Y-52500
X21000Y-64492
X21152Y-33648
X21300Y-34608
X21328Y-34164
X21365Y-38102
X21460Y-42481
X21500Y-31300
X21508Y-30792
X21600Y-64500
X22000Y-63996
X22000Y-64292
X22067Y-44028
X22100Y-24000
X22100Y-34400
X22200Y-22300
X22300Y-32300
X22317Y-39648
X22365Y-46317
X22368Y-40197
X22371Y-54613
X22559Y-43272
X22664Y-40672
X22856Y-32127
X23000Y-63800
X23000Y-64708
X23195Y-40792
X23200Y-38252
X23200Y-61200
X23283Y-44028
X23500Y-63600
X23595Y-59105
X23600Y-37408
X23739Y-40328
X23908Y-39768
X23994Y-34781
X24000Y-64500
X24012Y-41387
X24200Y-60992
X24222Y-38252
X24300Y-28600
X24300Y-31200
X24447Y-64041
X24595Y-59705
X24640Y-32663
X24800Y-37408
X24802Y-40208
X24918Y-39408
X25000Y-42733
X25000Y-65692
X25091Y-34854
X25200Y-60792
X25232Y-38468
X25387Y-29928
X25500Y-36552
X25554Y-64528
X25595Y-60005
X25789Y-43302
X25804Y-38688
X25982Y-35062
X26136Y-60708
X26179Y-38735
X26351Y-36352
X26500Y-38600
X26592Y-64528
X26600Y-30800
X26613Y-32000
X26797Y-37428
X26806Y-38328
X26808Y-34110
X27000Y-49500
X27043Y-29308
X27047Y-34618
X27100Y-60095
X27343Y-50313
X27400Y-38208
X27416Y-21416
X27676Y-29724
X27692Y-50566
X27697Y-29308
X27727Y-37565
X27781Y-43093
X27800Y-24000
X28000Y-33800
X28100Y-44300
X28100Y-65200
X28373Y-28505
X28608Y-54149
X28700Y-49500
X28733Y-37757
X29073Y-29428
X29300Y-39200
X29400Y-28300
X29755Y-38636
X29831Y-63992
X30000Y-35004
X30007Y-38792
X30353Y-46347
X30364Y-48608
X30500Y-52900
X30500Y-55500
X30500Y-62400
X30774Y-48848
X30803Y-37208
X30828Y-42853
X30900Y-45992
X30900Y-47000
X31000Y-52900
X31000Y-53400
X31000Y-55800
X31000Y-63992
X31026Y-29308
X31081Y-49014
X31100Y-51100
X31100Y-57300
X31200Y-25808
X31300Y-53400
X31350Y-47800
X31500Y-55300
X31500Y-57800
X31500Y-61600
X31508Y-52872
X31600Y-38500
X31700Y-57300
X31708Y-59289
X31736Y-48887
X31800Y-50800
X31803Y-28700
X31900Y-38300
X32000Y-52800
X32000Y-55508
X32000Y-63992
X32100Y-59497
X32100Y-62400
X32200Y-37792
X32208Y-60095
X32400Y-28600
X32500Y-53400
X32500Y-55900
X32500Y-58000
X32581Y-43064
X32677Y-55498
X32995Y-47792
X33000Y-29100
X33000Y-34783
X33000Y-47000
X33000Y-50800
X33000Y-59087
X33100Y-57400
X33300Y-35100
X33400Y-59087
X33500Y-52800
X33500Y-55500
X33500Y-61600
X33501Y-46408
X33603Y-60303
X33800Y-62400
X33900Y-58000
X33900Y-58600
X33972Y-36792
X34000Y-36300
X34000Y-51197
X34000Y-64628
X34035Y-59497
X34200Y-35800
X34234Y-55708
X34300Y-24000
X34300Y-29500
X34400Y-22400
X34400Y-40300
X34485Y-47849
X34575Y-23075
X34900Y-62700
X34900Y-64628
X35000Y-22400
X35000Y-50989
X35008Y-18900
X35051Y-58751
X35064Y-43392
X35197Y-48887
X35308Y-42310
X35400Y-21300
X35500Y-52800
X35600Y-24100
X35700Y-45613
X35900Y-64508
X36000Y-50900
X36000Y-53400
X36064Y-58108
X36200Y-20500
X36250Y-23600
X36285Y-61408
X36300Y-19600
X36406Y-57494
X36482Y-54918
X36600Y-18700
X36600Y-51400
X36708Y-26133
X36869Y-47676
X36900Y-64000
X36950Y-21800
X36961Y-48092
X37000Y-18700
X37000Y-45300
X37000Y-53400
X37000Y-59797
X37000Y-54613
X37067Y-57909
X37124Y-44454
X37164Y-48598
X37179Y-51408
X37200Y-21200
X37200Y-61600
X37258Y-48092
X37464Y-57476
X37500Y-23800
X37500Y-55366
X37500Y-57900
X37700Y-59800
X37708Y-62400
X37800Y-18800
X37807Y-50072
X37903Y-19351
X37961Y-40369
X37990Y-53106
X38000Y-23590
X38000Y-52800
X38000Y-61600
X38008Y-57815
X38135Y-55366
X38200Y-66208
X38296Y-57501
X38300Y-52700
X38445Y-32455
X38500Y-51200
X38525Y-48325
X38536Y-65792
X38563Y-54692
X38572Y-44382
X38692Y-49600
X38700Y-55800
X38708Y-37700
X38708Y-38600
X38774Y-50992
X38912Y-44120
X38954Y-44949
X38994Y-55926
X39000Y-39100
X39007Y-54542
X39053Y-53353
X39060Y-55637
X39100Y-19700
X39100Y-31300
X39100Y-38100
X39122Y-43910
X39137Y-52770
X39187Y-58128
X39200Y-39808
X39288Y-55448
X39300Y-18600
X39300Y-61700
X39400Y-19400
X39400Y-40913
X39400Y-52600
X39493Y-54542
X39500Y-51100
X39500Y-57508
X39538Y-43544
X39611Y-52808
X39686Y-44180
X39700Y-40200
X39818Y-48482
X40000Y-54542
X40035Y-53325
X40075Y-51025
X40100Y-61700
X40300Y-58500
X40306Y-45094
X40400Y-54692
X40500Y-43700
X40500Y-49300
X40600Y-56800
X40662Y-53633
X40700Y-65500
X40938Y-55105
X41133Y-54292
X41143Y-53966
X41162Y-46605
X41443Y-55106
X41482Y-37718
X41531Y-42217
X41721Y-55208
X41808Y-61464
X41808Y-62464
X41850Y-24300
X41857Y-37409
X42000Y-48586
X42100Y-40500
X42200Y-54500
X42200Y-58500
X42304Y-50473
X42500Y-46900
X42659Y-47373
X42700Y-48500
X42800Y-40000
X42959Y-47692
X43000Y-36000
X43000Y-50700
X43405Y-45105
X43523Y-48577
X43626Y-51333
X43700Y-62300
X43750Y-59087
X43953Y-57808
X43984Y-32591
X44000Y-41000
X44000Y-59797
X44195Y-53092
X44200Y-62100
X44300Y-55700
X44403Y-50174
X44666Y-49907
X44700Y-61900
X44708Y-34379
X44764Y-55727
X45000Y-47423
X45054Y-55648
X45133Y-42110
X45200Y-54700
X45208Y-57721
X45300Y-53400
X45360Y-55768
X45500Y-59600
X45600Y-54800
X45700Y-36900
X45700Y-52800
X45750Y-57550
X45800Y-65500
X45850Y-26700
X45905Y-47872
X45950Y-27600
X46050Y-24800
X46096Y-59031
X46200Y-54800
X46200Y-57500
X46209Y-59848
X46226Y-40826
X46233Y-40294
X46300Y-47423
X46300Y-55700
X46523Y-34100
X46525Y-57275
X46716Y-55700
X46800Y-53177
X46800Y-59908
X46800Y-63700
X47000Y-51308
X47000Y-57723
X47100Y-37000
X47159Y-40676
X47200Y-53400
X47300Y-57600
X47400Y-60400
X47500Y-31400
X47543Y-46936
X47772Y-30492
X47800Y-54000
X47867Y-40285
X47892Y-26715
X47892Y-33317
X47900Y-43300
X48000Y-51800
X48000Y-63200
X48100Y-24500
X48100Y-34000
X48100Y-55092
X48200Y-27600
X48392Y-50627
X48697Y-36100
X48808Y-51100
X48836Y-60108
X48898Y-59196
X48900Y-60800
X48900Y-61200
X48900Y-61600
X48900Y-61900
X48900Y-63200
X48910Y-59492
X48928Y-52136
X48999Y-60356
X49232Y-38061
X49300Y-39700
X49300Y-57800
X49350Y-20600
X49500Y-30200
X49500Y-36877
X49500Y-47200
X49500Y-54000
X49504Y-28007
X49600Y-35208
X49868Y-33381
X49900Y-37800
X50000Y-51800
X50229Y-33792
X50300Y-37100
X50545Y-40039
X50900Y-51400
X50953Y-33552
X50975Y-39725
X51000Y-53100
X51100Y-31008
X51200Y-34692
X51300Y-24492
X51408Y-53008
X51500Y-40292
X51500Y-52600
X51500Y-55100
X51600Y-30400
X51700Y-20200
X51800Y-42600
X52000Y-51300
X52000Y-62300
X52100Y-30600
X52100Y-55300
X52200Y-57800
X52317Y-47998
X52407Y-25078
X52500Y-40500
X52500Y-62300
X52560Y-31327
X52708Y-35208
X52800Y-37400
X52817Y-33672
X53000Y-48800
X53100Y-24800
X53100Y-53300
X53200Y-26600
X53300Y-34700
X53300Y-56400
X53500Y-25600
X53600Y-30100
X53708Y-54875
X53900Y-24800
X54000Y-53300
X54064Y-27208
X54100Y-48200
X54100Y-59200
X54100Y-59700
X54100Y-60208
X54100Y-60708
X54100Y-61200
X54100Y-61700
X54100Y-62200
X54100Y-62700
X54208Y-24200
X54400Y-28792
X54400Y-43200
X54500Y-35400
X54600Y-46200
X54608Y-58250
X54800Y-54300
X55200Y-26000
X55400Y-27800
X55626Y-26922
X55800Y-19392
X55800Y-19700
X55908Y-53608
X56200Y-48900
X56300Y-48000
X56887Y-35607
X56900Y-25000
X57300Y-31207
X57600Y-45100
X57900Y-20500
X58400Y-35100
X58500Y-44700
X58600Y-31000
X58800Y-38200
X59200Y-19900
X59500Y-58600
X60000Y-58800
X60300Y-59600
X60441Y-34353
X60600Y-60100
X60700Y-44900
X60700Y-63800
X60800Y-34100
X61000Y-40700
X61200Y-35200
X61200Y-59100
X61400Y-41800
X61500Y-59500
X61800Y-59900
X62100Y-60300
X62400Y-60700
X62400Y-61200
X62400Y-61600
X62400Y-62000
T2
X45750Y-21000
X46341Y-21000
T3
X14000Y-20000
X14000Y-27000
X14000Y-33000
X14000Y-36000
X14000Y-42000
X14000Y-45000
X14000Y-48000
X14000Y-51000
X14000Y-54000
X14000Y-57000
X14000Y-63000
X15000Y-20000
X15000Y-27000
X15000Y-33000
X15000Y-36000
X15000Y-42000
X15000Y-45000
X15000Y-48000
X15000Y-51000
X15000Y-54000
X15000Y-57000
X15000Y-63000
X16000Y-20000
X16000Y-27000
X16000Y-33000
X16000Y-36000
X16000Y-42000
X16000Y-45000
X16000Y-48000
X16000Y-51000
X16000Y-54000
X16000Y-57000
X16000Y-63000
X17000Y-27000
X17000Y-33000
X17000Y-36000
X17000Y-42000
X17000Y-45000
X17000Y-48000
X17000Y-51000
X17000Y-54000
X17000Y-57000
X17000Y-63000
X18000Y-27000
X18000Y-33000
X18000Y-36000
X18000Y-42000
X18000Y-45000
X18000Y-48000
X18000Y-51000
X18000Y-54000
X18000Y-57000
X18000Y-63000
X19000Y-27000
X19000Y-33000
X19000Y-36000
X19000Y-42000
X19000Y-45000
X19000Y-48000
X19000Y-51000
X19000Y-54000
X19000Y-57000
X19000Y-63000
X20000Y-27000
X20000Y-33000
X20000Y-36000
X20000Y-42000
X20000Y-45000
X20000Y-48000
X20000Y-51000
X20000Y-54000
X20000Y-57000
X20000Y-63000
X21000Y-27000
X21000Y-33000
X21000Y-36000
X21000Y-42000
X21000Y-45000
X21000Y-48000
X21000Y-51000
X21000Y-54000
X21000Y-57000
X21000Y-63000
X22000Y-27000
X22000Y-33000
X22000Y-36000
X22000Y-42000
X22000Y-45000
X22000Y-48000
X22000Y-51000
X22000Y-54000
X22000Y-57000
X22000Y-63000
X23000Y-27000
X23000Y-33000
X23000Y-36000
X23000Y-42000
X23000Y-45000
X23000Y-48000
X23000Y-51000
X23000Y-54000
X23000Y-57000
X23000Y-63000
X24000Y-24000
X24000Y-27000
X24000Y-33000
X24000Y-36000
X24000Y-42000
X24000Y-45000
X24000Y-48000
X24000Y-51000
X24000Y-54000
X24000Y-57000
X24000Y-63000
X25000Y-27000
X25000Y-33000
X25000Y-36000
X25000Y-42000
X25000Y-45000
X25000Y-48000
X25000Y-51000
X25000Y-54000
X25000Y-57000
X25000Y-63000
X25921Y-24000
X26000Y-27000
X26000Y-33000
X26000Y-36000
X26000Y-42000
X26000Y-45000
X26000Y-48000
X26000Y-51000
X26000Y-54000
X26000Y-57000
X26000Y-63000
X27000Y-27000
X27000Y-33000
X27000Y-36000
X27000Y-42000
X27000Y-45000
X27000Y-48000
X27000Y-51000
X27000Y-54000
X27000Y-57000
X27000Y-63000
X28000Y-27000
X28000Y-33000
X28000Y-36000
X28000Y-42000
X29000Y-27000
X29000Y-33000
X29000Y-36000
X29000Y-42000
X30000Y-27000
X30000Y-33000
X30000Y-36000
X30000Y-42000
X30000Y-49500
X31000Y-27000
X31000Y-33000
X31000Y-36000
X31000Y-42000
X31000Y-49500
X32000Y-27000
X32000Y-33000
X32000Y-36000
X32000Y-42000
X32000Y-49500
X33000Y-27000
X33000Y-33000
X33000Y-36000
X33000Y-42000
X33000Y-49500
X34000Y-49500
X35000Y-49500
X36000Y-49500
X37000Y-49500
X38000Y-49500
X40500Y-33000
X40500Y-39000
X41500Y-33000
X41500Y-39000
X42000Y-46500
X42000Y-49500
X42500Y-33000
X42500Y-39000
X43000Y-46500
X43000Y-49500
X43500Y-33000
X43500Y-39000
X44000Y-46500
X44000Y-49500
X44500Y-33000
X44500Y-39000
X45000Y-46500
X45000Y-49500
X45500Y-33000
X45500Y-39000
X46000Y-46500
X46000Y-49500
X46500Y-33000
X46500Y-39000
X47000Y-46500
X47000Y-49500
X47500Y-33000
X47500Y-39000
X48000Y-46500
X48000Y-49500
X48500Y-33000
X48500Y-39000
X49000Y-23500
X49000Y-24500
X49000Y-25500
X49000Y-26500
X49000Y-27500
X49000Y-28500
X49000Y-46500
X49000Y-49500
X49500Y-33000
X49500Y-39000
X50000Y-22500
X50000Y-23500
X50000Y-24500
X50000Y-25500
X50000Y-26500
X50000Y-27500
X50000Y-28500
X50000Y-29500
X50000Y-46500
X50000Y-49500
X50500Y-33000
X50500Y-39000
X51000Y-22500
X51000Y-23500
X51000Y-28500
X51000Y-29500
X51000Y-46500
X51000Y-49500
X51500Y-33000
X51500Y-39000
X52000Y-22500
X52000Y-23500
X52000Y-28500
X52000Y-29500
X52000Y-46500
X52000Y-49500
X52500Y-33000
X52500Y-39000
X53000Y-22500
X53000Y-23500
X53000Y-28500
X53000Y-29500
X53000Y-46500
X53000Y-49500
X53500Y-33000
X53500Y-39000
X54000Y-22500
X54000Y-23500
X54000Y-28500
X54000Y-29500
X54500Y-33000
X54500Y-39000
X55000Y-22500
X55000Y-23500
X55000Y-24500
X55000Y-25500
X55000Y-26500
X55000Y-27500
X55000Y-28500
X55000Y-29500
X55500Y-33000
X55500Y-39000
X56000Y-23500
X56000Y-24500
X56000Y-25500
X56000Y-26500
X56000Y-27500
X56000Y-28500
X56000Y-56500
X56000Y-62500
X56500Y-33000
X56500Y-39000
X57000Y-51000
X57000Y-53000
X57500Y-33000
X57500Y-39000
X58500Y-33000
X58500Y-39000
X59000Y-52000
X59000Y-56500
X59000Y-62500
X59500Y-25000
X59500Y-26921
X59500Y-33000
X59500Y-39000
X59500Y-44000
X59500Y-48000
T4
X38250Y-22500
X38250Y-25000
X38250Y-27500
X38250Y-30000
X39250Y-22500
X39250Y-25000
X39250Y-27500
X39250Y-30000
T5
X30000Y-19213
X30000Y-20000
X30984Y-19213
X30984Y-20000
T6
X10000Y-19000
X10000Y-20000
X10000Y-21000
X10000Y-22000
X10000Y-23000
X10000Y-24000
X10000Y-25000
X10000Y-26000
X10000Y-27000
X10000Y-28000
X10000Y-29000
X10000Y-30000
X10000Y-31000
X10000Y-32000
X10000Y-33000
X10000Y-34000
X10000Y-35000
X10000Y-36000
X10000Y-37000
X10000Y-38000
X10000Y-39000
X10000Y-40000
X10000Y-41000
X10000Y-42000
X10000Y-43000
X10000Y-44000
X10000Y-45000
X10000Y-46000
X10000Y-47000
X10000Y-48000
X10000Y-49000
X10000Y-50000
X10000Y-51000
X10000Y-52000
X10000Y-53000
X10000Y-54000
X10000Y-55000
X10000Y-56000
X10000Y-57000
X10000Y-58000
X14000Y-67000
X15000Y-23500
X15000Y-24500
X15000Y-67000
X16000Y-23500
X16000Y-24500
X16000Y-67000
X17000Y-23500
X17000Y-24500
X17000Y-67000
X18000Y-67000
X19000Y-67000
X20000Y-18000
X20000Y-67000
X21000Y-18000
X21000Y-67000
X22000Y-18000
X22000Y-67000
X23000Y-18000
X23000Y-67000
X24000Y-18000
X24000Y-67000
X25000Y-18000
X25000Y-67000
X26000Y-67000
X27000Y-67000
X28000Y-67000
X29000Y-67000
X30000Y-67000
X31000Y-67000
X32000Y-67000
X33000Y-67000
X34000Y-67000
X35000Y-67000
X36000Y-67000
X36500Y-33000
X36500Y-34000
X36500Y-35000
X36500Y-36000
X36500Y-37000
X36500Y-38000
X36500Y-39000
X36500Y-40000
X36500Y-41000
X36500Y-42000
X36500Y-43000
X36500Y-44000
X36500Y-45000
X37000Y-67000
X37500Y-33000
X37500Y-34000
X37500Y-35000
X37500Y-36000
X37500Y-37000
X37500Y-38000
X37500Y-39000
X37500Y-40000
X37500Y-41000
X37500Y-42000
X37500Y-43000
X37500Y-44000
X37500Y-45000
X38000Y-67000
X39000Y-67000
X40000Y-67000
X40500Y-41500
X41000Y-67000
X41500Y-41500
X42000Y-67000
X42500Y-41500
X42500Y-44000
X43000Y-67000
X43500Y-41500
X43500Y-44000
X44000Y-67000
X44250Y-23500
X44250Y-24500
X44250Y-25500
X44250Y-26500
X44250Y-27500
X44250Y-28500
X44500Y-41500
X44500Y-44000
X45000Y-67000
X45250Y-23500
X45250Y-24500
X45250Y-25500
X45250Y-26500
X45250Y-27500
X45250Y-28500
X45500Y-41500
X45500Y-44000
X46000Y-67000
X46500Y-18000
X46500Y-41500
X46500Y-44000
X47000Y-67000
X47500Y-18000
X47500Y-41500
X47500Y-44000
X48000Y-67000
X48500Y-18000
X48500Y-41500
X48500Y-44000
X49000Y-67000
X49500Y-18000
X49500Y-41500
X49500Y-44000
X50000Y-67000
X50500Y-18000
X50500Y-41500
X50500Y-44000
X51000Y-67000
X51500Y-18000
X51500Y-41500
X51500Y-44000
X52000Y-67000
X52500Y-41500
X52500Y-44000
X53000Y-67000
X53500Y-41500
X53500Y-44000
X54500Y-18000
X54500Y-41500
X54500Y-44000
X55500Y-18000
X55500Y-41500
X55500Y-44000
X55500Y-47000
X56500Y-18000
X56500Y-41500
X56500Y-44000
X56500Y-47000
X57500Y-18000
X57500Y-41500
X57500Y-44000
X57500Y-47000
X58500Y-18000
X58500Y-41500
X59500Y-18000
X59500Y-41500
X63500Y-19000
X63500Y-20000
X63500Y-21000
X63500Y-22000
X63500Y-23000
X63500Y-24000
X63500Y-25000
X63500Y-26000
X63500Y-27000
X63500Y-28000
X63500Y-29000
X63500Y-30000
X63500Y-31000
X63500Y-32000
X63500Y-33000
X63500Y-34000
X63500Y-35000
X63500Y-36000
X63500Y-37000
X63500Y-38000
X63500Y-39000
X63500Y-40000
X63500Y-41000
X63500Y-42000
X63500Y-43000
X63500Y-44000
X63500Y-45000
X63500Y-46000
X63500Y-47000
X63500Y-48000
X63500Y-49000
X63500Y-50000
X63500Y-51000
X63500Y-52000
X63500Y-53000
X63500Y-54000
X63500Y-55000
X63500Y-56000
X63500Y-57000
X63500Y-58000
T7
X14000Y-15500
X14000Y-17272
X16559Y-15500
X16559Y-17272
T8
X29500Y-47000
X34500Y-47000
X44750Y-31000
X50000Y-57000
T9
X28122Y-18146
X32862Y-18146
T10
X10500Y-16000
X10500Y-66500
X63000Y-16000
X63000Y-66500
T6
G00X40500Y-17925
M15
G01X40500Y-18713
M16
G05
G00X42744Y-17138
M15
G01X41957Y-17138
M16
G05
G00X42744Y-19500
M15
G01X41957Y-19500
M16
G05
T0
M30
