M48
; DRILL file {KiCad (5.1.5-0-10_14)} date Sunday, 23 February 2020 at 22:31:12
; FORMAT={-:-/ absolute / inch / decimal}
; #@! TF.CreationDate,2020-02-23T22:31:12+01:00
; #@! TF.GenerationSoftware,Kicad,Pcbnew,(5.1.5-0-10_14)
FMAT,2
INCH
T1C0.0157
T2C0.0315
T3C0.0354
T4C0.0394
T5C0.0433
T6C0.0512
T7C0.1181
%
G90
G05
T1
X7.7604Y-2.7596
X7.8202Y-2.1602
X8.12Y-2.1
X8.2Y-1.88
X8.32Y-1.35
X8.81Y-2.3
X8.9Y-2.85
X9.45Y-3.05
T2
X7.325Y-2.7
X7.325Y-3.0
X9.325Y-1.3
X9.325Y-1.6
X7.4Y-1.3
X7.4Y-1.6
X8.3Y-1.9
X8.3Y-2.0
X8.3Y-2.1
X8.3Y-2.2
X8.6Y-1.9
X8.6Y-2.0
X8.6Y-2.1
X8.6Y-2.2
X9.95Y-1.45
X10.0484Y-1.45
X7.95Y-1.3
X7.95Y-1.6
X7.675Y-2.7
X7.675Y-3.0
X8.6016Y-2.425
X8.7Y-2.425
X8.025Y-2.7
X8.025Y-3.0
X6.975Y-2.7
X6.975Y-3.0
X8.775Y-1.3
X8.775Y-1.6
X9.0Y-2.85
X9.0Y-2.95
X9.0Y-3.05
X9.0Y-3.15
X9.0Y-3.25
X9.0Y-3.35
X9.0Y-3.45
X9.3Y-2.85
X9.3Y-2.95
X9.3Y-3.05
X9.3Y-3.15
X9.3Y-3.25
X9.3Y-3.35
X9.3Y-3.45
X8.7Y-2.7
X8.7Y-3.0
X7.675Y-1.3
X7.675Y-1.6
X6.9Y-1.9
X6.9Y-2.0
X6.9Y-2.1
X6.9Y-2.2
X7.2Y-1.9
X7.2Y-2.0
X7.2Y-2.1
X7.2Y-2.2
X9.05Y-1.3
X9.05Y-1.6
X7.2016Y-2.425
X7.3Y-2.425
X9.65Y-1.9
X9.65Y-2.0
X9.65Y-2.1
X9.65Y-2.2
X9.65Y-2.3
X9.65Y-2.4
X9.65Y-2.5
X9.95Y-1.9
X9.95Y-2.0
X9.95Y-2.1
X9.95Y-2.2
X9.95Y-2.3
X9.95Y-2.4
X9.95Y-2.5
X6.9Y-2.425
X6.9984Y-2.425
X9.65Y-2.85
X9.7484Y-2.85
X8.3Y-2.425
X8.3984Y-2.425
X9.6Y-1.45
X9.6984Y-1.45
X8.225Y-1.3
X8.225Y-1.6
X7.125Y-1.3
X7.125Y-1.6
X7.6Y-2.425
X7.6984Y-2.425
X7.9Y-2.425
X7.9984Y-2.425
X8.5Y-1.3
X8.5Y-1.6
X8.375Y-2.7
X8.375Y-3.0
X9.0Y-1.9
X9.0Y-2.0
X9.0Y-2.1
X9.0Y-2.2
X9.0Y-2.3
X9.0Y-2.4
X9.0Y-2.5
X9.3Y-1.9
X9.3Y-2.0
X9.3Y-2.1
X9.3Y-2.2
X9.3Y-2.3
X9.3Y-2.4
X9.3Y-2.5
X7.6Y-1.9
X7.6Y-2.0
X7.6Y-2.1
X7.6Y-2.2
X7.9Y-1.9
X7.9Y-2.0
X7.9Y-2.1
X7.9Y-2.2
T3
X7.625Y-3.25
X7.725Y-3.25
X8.325Y-3.25
X8.425Y-3.25
X6.925Y-3.25
X7.025Y-3.25
X7.975Y-3.25
X8.075Y-3.25
X7.275Y-3.25
X7.375Y-3.25
T4
X10.3Y-1.9
X10.3Y-2.0
X10.3Y-2.1
X10.3Y-2.2
X10.3Y-2.3
X10.3Y-2.4
T5
X7.825Y-3.65
X7.825Y-3.8272
X8.0809Y-3.65
X8.0809Y-3.8272
X8.425Y-3.65
X8.425Y-3.8272
X8.6809Y-3.65
X8.6809Y-3.8272
T6
X7.15Y-3.6531
X7.15Y-3.85
X7.5437Y-3.7516
T7
X10.3Y-1.3
X10.3Y-3.9
X6.8Y-3.9
X6.8Y-1.3
T4
G00X10.0Y-2.9644
M15
G01X10.0Y-2.8856
M16
G05
G00X10.1575Y-2.74
M15
G01X10.0787Y-2.74
M16
G05
G00X10.2362Y-2.9644
M15
G01X10.2362Y-2.8856
M16
G05
T0
M30
