G04 #@! TF.GenerationSoftware,KiCad,Pcbnew,(5.1.5-0-10_14)*
G04 #@! TF.CreationDate,2020-02-23T22:31:09+01:00*
G04 #@! TF.ProjectId,Clock_module,436c6f63-6b5f-46d6-9f64-756c652e6b69,rev?*
G04 #@! TF.SameCoordinates,Original*
G04 #@! TF.FileFunction,Soldermask,Bot*
G04 #@! TF.FilePolarity,Negative*
%FSLAX46Y46*%
G04 Gerber Fmt 4.6, Leading zero omitted, Abs format (unit mm)*
G04 Created by KiCad (PCBNEW (5.1.5-0-10_14)) date 2020-02-23 22:31:09*
%MOMM*%
%LPD*%
G04 APERTURE LIST*
%ADD10C,0.100000*%
G04 APERTURE END LIST*
D10*
G36*
X262509943Y-96126248D02*
G01*
X263065189Y-96356238D01*
X263296806Y-96511000D01*
X263564899Y-96690134D01*
X263989866Y-97115101D01*
X263989867Y-97115103D01*
X264323762Y-97614811D01*
X264553752Y-98170057D01*
X264671000Y-98759501D01*
X264671000Y-99360499D01*
X264553752Y-99949943D01*
X264323762Y-100505189D01*
X264323761Y-100505190D01*
X263989866Y-101004899D01*
X263564899Y-101429866D01*
X263313347Y-101597948D01*
X263065189Y-101763762D01*
X262509943Y-101993752D01*
X261920499Y-102111000D01*
X261319501Y-102111000D01*
X260730057Y-101993752D01*
X260174811Y-101763762D01*
X259926653Y-101597948D01*
X259675101Y-101429866D01*
X259250134Y-101004899D01*
X258916239Y-100505190D01*
X258916238Y-100505189D01*
X258686248Y-99949943D01*
X258569000Y-99360499D01*
X258569000Y-98759501D01*
X258686248Y-98170057D01*
X258916238Y-97614811D01*
X259250133Y-97115103D01*
X259250134Y-97115101D01*
X259675101Y-96690134D01*
X259943194Y-96511000D01*
X260174811Y-96356238D01*
X260730057Y-96126248D01*
X261319501Y-96009000D01*
X261920499Y-96009000D01*
X262509943Y-96126248D01*
G37*
G36*
X173609943Y-96126248D02*
G01*
X174165189Y-96356238D01*
X174396806Y-96511000D01*
X174664899Y-96690134D01*
X175089866Y-97115101D01*
X175089867Y-97115103D01*
X175423762Y-97614811D01*
X175653752Y-98170057D01*
X175771000Y-98759501D01*
X175771000Y-99360499D01*
X175653752Y-99949943D01*
X175423762Y-100505189D01*
X175423761Y-100505190D01*
X175089866Y-101004899D01*
X174664899Y-101429866D01*
X174413347Y-101597948D01*
X174165189Y-101763762D01*
X173609943Y-101993752D01*
X173020499Y-102111000D01*
X172419501Y-102111000D01*
X171830057Y-101993752D01*
X171274811Y-101763762D01*
X171026653Y-101597948D01*
X170775101Y-101429866D01*
X170350134Y-101004899D01*
X170016239Y-100505190D01*
X170016238Y-100505189D01*
X169786248Y-99949943D01*
X169669000Y-99360499D01*
X169669000Y-98759501D01*
X169786248Y-98170057D01*
X170016238Y-97614811D01*
X170350133Y-97115103D01*
X170350134Y-97115101D01*
X170775101Y-96690134D01*
X171043194Y-96511000D01*
X171274811Y-96356238D01*
X171830057Y-96126248D01*
X172419501Y-96009000D01*
X173020499Y-96009000D01*
X173609943Y-96126248D01*
G37*
G36*
X181848205Y-96592461D02*
G01*
X181966153Y-96615922D01*
X182058194Y-96654047D01*
X182188359Y-96707963D01*
X182388342Y-96841587D01*
X182558413Y-97011658D01*
X182692037Y-97211641D01*
X182784078Y-97433848D01*
X182820074Y-97614810D01*
X182831000Y-97669742D01*
X182831000Y-97910258D01*
X182784078Y-98146153D01*
X182753237Y-98220610D01*
X182692037Y-98368359D01*
X182558413Y-98568342D01*
X182388342Y-98738413D01*
X182188359Y-98872037D01*
X182058194Y-98925953D01*
X181966153Y-98964078D01*
X181730259Y-99011000D01*
X181489741Y-99011000D01*
X181253847Y-98964078D01*
X181161806Y-98925953D01*
X181031641Y-98872037D01*
X180831658Y-98738413D01*
X180661587Y-98568342D01*
X180527963Y-98368359D01*
X180466763Y-98220610D01*
X180435922Y-98146153D01*
X180389000Y-97910258D01*
X180389000Y-97669742D01*
X180399927Y-97614810D01*
X180435922Y-97433848D01*
X180527963Y-97211641D01*
X180661587Y-97011658D01*
X180831658Y-96841587D01*
X181031641Y-96707963D01*
X181161806Y-96654047D01*
X181253847Y-96615922D01*
X181489741Y-96569000D01*
X181730259Y-96569000D01*
X181848205Y-96592461D01*
G37*
G36*
X205561564Y-96199389D02*
G01*
X205752833Y-96278615D01*
X205752835Y-96278616D01*
X205924973Y-96393635D01*
X206071365Y-96540027D01*
X206171663Y-96690133D01*
X206186385Y-96712167D01*
X206265611Y-96903436D01*
X206306000Y-97106484D01*
X206306000Y-97313516D01*
X206265611Y-97516564D01*
X206202163Y-97669741D01*
X206186384Y-97707835D01*
X206071365Y-97879973D01*
X205924973Y-98026365D01*
X205752835Y-98141384D01*
X205752834Y-98141385D01*
X205752833Y-98141385D01*
X205561564Y-98220611D01*
X205358516Y-98261000D01*
X205151484Y-98261000D01*
X204948436Y-98220611D01*
X204757167Y-98141385D01*
X204757166Y-98141385D01*
X204757165Y-98141384D01*
X204585027Y-98026365D01*
X204438635Y-97879973D01*
X204323616Y-97707835D01*
X204307837Y-97669741D01*
X204244389Y-97516564D01*
X204204000Y-97313516D01*
X204204000Y-97106484D01*
X204244389Y-96903436D01*
X204323615Y-96712167D01*
X204338338Y-96690133D01*
X204438635Y-96540027D01*
X204585027Y-96393635D01*
X204757165Y-96278616D01*
X204757167Y-96278615D01*
X204948436Y-96199389D01*
X205151484Y-96159000D01*
X205358516Y-96159000D01*
X205561564Y-96199389D01*
G37*
G36*
X199061564Y-96199389D02*
G01*
X199252833Y-96278615D01*
X199252835Y-96278616D01*
X199424973Y-96393635D01*
X199571365Y-96540027D01*
X199671663Y-96690133D01*
X199686385Y-96712167D01*
X199765611Y-96903436D01*
X199806000Y-97106484D01*
X199806000Y-97313516D01*
X199765611Y-97516564D01*
X199702163Y-97669741D01*
X199686384Y-97707835D01*
X199571365Y-97879973D01*
X199424973Y-98026365D01*
X199252835Y-98141384D01*
X199252834Y-98141385D01*
X199252833Y-98141385D01*
X199061564Y-98220611D01*
X198858516Y-98261000D01*
X198651484Y-98261000D01*
X198448436Y-98220611D01*
X198257167Y-98141385D01*
X198257166Y-98141385D01*
X198257165Y-98141384D01*
X198085027Y-98026365D01*
X197938635Y-97879973D01*
X197823616Y-97707835D01*
X197807837Y-97669741D01*
X197744389Y-97516564D01*
X197704000Y-97313516D01*
X197704000Y-97106484D01*
X197744389Y-96903436D01*
X197823615Y-96712167D01*
X197838338Y-96690133D01*
X197938635Y-96540027D01*
X198085027Y-96393635D01*
X198257165Y-96278616D01*
X198257167Y-96278615D01*
X198448436Y-96199389D01*
X198651484Y-96159000D01*
X198858516Y-96159000D01*
X199061564Y-96199389D01*
G37*
G36*
X220801564Y-96199389D02*
G01*
X220992833Y-96278615D01*
X220992835Y-96278616D01*
X221164973Y-96393635D01*
X221311365Y-96540027D01*
X221411663Y-96690133D01*
X221426385Y-96712167D01*
X221505611Y-96903436D01*
X221546000Y-97106484D01*
X221546000Y-97313516D01*
X221505611Y-97516564D01*
X221442163Y-97669741D01*
X221426384Y-97707835D01*
X221311365Y-97879973D01*
X221164973Y-98026365D01*
X220992835Y-98141384D01*
X220992834Y-98141385D01*
X220992833Y-98141385D01*
X220801564Y-98220611D01*
X220598516Y-98261000D01*
X220391484Y-98261000D01*
X220188436Y-98220611D01*
X219997167Y-98141385D01*
X219997166Y-98141385D01*
X219997165Y-98141384D01*
X219825027Y-98026365D01*
X219678635Y-97879973D01*
X219563616Y-97707835D01*
X219547837Y-97669741D01*
X219484389Y-97516564D01*
X219444000Y-97313516D01*
X219444000Y-97106484D01*
X219484389Y-96903436D01*
X219563615Y-96712167D01*
X219578338Y-96690133D01*
X219678635Y-96540027D01*
X219825027Y-96393635D01*
X219997165Y-96278616D01*
X219997167Y-96278615D01*
X220188436Y-96199389D01*
X220391484Y-96159000D01*
X220598516Y-96159000D01*
X220801564Y-96199389D01*
G37*
G36*
X214301564Y-96199389D02*
G01*
X214492833Y-96278615D01*
X214492835Y-96278616D01*
X214664973Y-96393635D01*
X214811365Y-96540027D01*
X214911663Y-96690133D01*
X214926385Y-96712167D01*
X215005611Y-96903436D01*
X215046000Y-97106484D01*
X215046000Y-97313516D01*
X215005611Y-97516564D01*
X214942163Y-97669741D01*
X214926384Y-97707835D01*
X214811365Y-97879973D01*
X214664973Y-98026365D01*
X214492835Y-98141384D01*
X214492834Y-98141385D01*
X214492833Y-98141385D01*
X214301564Y-98220611D01*
X214098516Y-98261000D01*
X213891484Y-98261000D01*
X213688436Y-98220611D01*
X213497167Y-98141385D01*
X213497166Y-98141385D01*
X213497165Y-98141384D01*
X213325027Y-98026365D01*
X213178635Y-97879973D01*
X213063616Y-97707835D01*
X213047837Y-97669741D01*
X212984389Y-97516564D01*
X212944000Y-97313516D01*
X212944000Y-97106484D01*
X212984389Y-96903436D01*
X213063615Y-96712167D01*
X213078338Y-96690133D01*
X213178635Y-96540027D01*
X213325027Y-96393635D01*
X213497165Y-96278616D01*
X213497167Y-96278615D01*
X213688436Y-96199389D01*
X213891484Y-96159000D01*
X214098516Y-96159000D01*
X214301564Y-96199389D01*
G37*
G36*
X191966153Y-94115922D02*
G01*
X192058194Y-94154047D01*
X192188359Y-94207963D01*
X192388342Y-94341587D01*
X192558413Y-94511658D01*
X192692037Y-94711641D01*
X192784078Y-94933848D01*
X192831000Y-95169741D01*
X192831000Y-95410259D01*
X192784078Y-95646152D01*
X192692037Y-95868359D01*
X192558413Y-96068342D01*
X192388342Y-96238413D01*
X192188359Y-96372037D01*
X192058194Y-96425953D01*
X191966153Y-96464078D01*
X191730259Y-96511000D01*
X191489741Y-96511000D01*
X191253847Y-96464078D01*
X191161806Y-96425953D01*
X191031641Y-96372037D01*
X190831658Y-96238413D01*
X190661587Y-96068342D01*
X190527963Y-95868359D01*
X190435922Y-95646152D01*
X190389000Y-95410259D01*
X190389000Y-95169741D01*
X190435922Y-94933848D01*
X190527963Y-94711641D01*
X190661587Y-94511658D01*
X190831658Y-94341587D01*
X191031641Y-94207963D01*
X191161806Y-94154047D01*
X191253847Y-94115922D01*
X191489741Y-94069000D01*
X191730259Y-94069000D01*
X191966153Y-94115922D01*
G37*
G36*
X181848205Y-91592461D02*
G01*
X181966153Y-91615922D01*
X182058194Y-91654047D01*
X182188359Y-91707963D01*
X182388342Y-91841587D01*
X182558413Y-92011658D01*
X182692037Y-92211641D01*
X182784078Y-92433848D01*
X182831000Y-92669741D01*
X182831000Y-92910259D01*
X182784078Y-93146152D01*
X182692037Y-93368359D01*
X182558413Y-93568342D01*
X182388342Y-93738413D01*
X182188359Y-93872037D01*
X182058194Y-93925953D01*
X181966153Y-93964078D01*
X181848205Y-93987539D01*
X181730259Y-94011000D01*
X181489741Y-94011000D01*
X181253847Y-93964078D01*
X181161806Y-93925953D01*
X181031641Y-93872037D01*
X180831658Y-93738413D01*
X180661587Y-93568342D01*
X180527963Y-93368359D01*
X180435922Y-93146152D01*
X180389000Y-92910259D01*
X180389000Y-92669741D01*
X180435922Y-92433848D01*
X180527963Y-92211641D01*
X180661587Y-92011658D01*
X180831658Y-91841587D01*
X181031641Y-91707963D01*
X181161806Y-91654047D01*
X181253847Y-91615922D01*
X181371795Y-91592461D01*
X181489741Y-91569000D01*
X181730259Y-91569000D01*
X181848205Y-91592461D01*
G37*
G36*
X199061564Y-91699389D02*
G01*
X199252833Y-91778615D01*
X199252835Y-91778616D01*
X199424973Y-91893635D01*
X199571365Y-92040027D01*
X199686385Y-92212167D01*
X199765611Y-92403436D01*
X199806000Y-92606484D01*
X199806000Y-92813516D01*
X199765611Y-93016564D01*
X199686385Y-93207833D01*
X199686384Y-93207835D01*
X199571365Y-93379973D01*
X199424973Y-93526365D01*
X199252835Y-93641384D01*
X199252834Y-93641385D01*
X199252833Y-93641385D01*
X199061564Y-93720611D01*
X198858516Y-93761000D01*
X198651484Y-93761000D01*
X198448436Y-93720611D01*
X198257167Y-93641385D01*
X198257166Y-93641385D01*
X198257165Y-93641384D01*
X198085027Y-93526365D01*
X197938635Y-93379973D01*
X197823616Y-93207835D01*
X197823615Y-93207833D01*
X197744389Y-93016564D01*
X197704000Y-92813516D01*
X197704000Y-92606484D01*
X197744389Y-92403436D01*
X197823615Y-92212167D01*
X197938635Y-92040027D01*
X198085027Y-91893635D01*
X198257165Y-91778616D01*
X198257167Y-91778615D01*
X198448436Y-91699389D01*
X198651484Y-91659000D01*
X198858516Y-91659000D01*
X199061564Y-91699389D01*
G37*
G36*
X205561564Y-91699389D02*
G01*
X205752833Y-91778615D01*
X205752835Y-91778616D01*
X205924973Y-91893635D01*
X206071365Y-92040027D01*
X206186385Y-92212167D01*
X206265611Y-92403436D01*
X206306000Y-92606484D01*
X206306000Y-92813516D01*
X206265611Y-93016564D01*
X206186385Y-93207833D01*
X206186384Y-93207835D01*
X206071365Y-93379973D01*
X205924973Y-93526365D01*
X205752835Y-93641384D01*
X205752834Y-93641385D01*
X205752833Y-93641385D01*
X205561564Y-93720611D01*
X205358516Y-93761000D01*
X205151484Y-93761000D01*
X204948436Y-93720611D01*
X204757167Y-93641385D01*
X204757166Y-93641385D01*
X204757165Y-93641384D01*
X204585027Y-93526365D01*
X204438635Y-93379973D01*
X204323616Y-93207835D01*
X204323615Y-93207833D01*
X204244389Y-93016564D01*
X204204000Y-92813516D01*
X204204000Y-92606484D01*
X204244389Y-92403436D01*
X204323615Y-92212167D01*
X204438635Y-92040027D01*
X204585027Y-91893635D01*
X204757165Y-91778616D01*
X204757167Y-91778615D01*
X204948436Y-91699389D01*
X205151484Y-91659000D01*
X205358516Y-91659000D01*
X205561564Y-91699389D01*
G37*
G36*
X214301564Y-91699389D02*
G01*
X214492833Y-91778615D01*
X214492835Y-91778616D01*
X214664973Y-91893635D01*
X214811365Y-92040027D01*
X214926385Y-92212167D01*
X215005611Y-92403436D01*
X215046000Y-92606484D01*
X215046000Y-92813516D01*
X215005611Y-93016564D01*
X214926385Y-93207833D01*
X214926384Y-93207835D01*
X214811365Y-93379973D01*
X214664973Y-93526365D01*
X214492835Y-93641384D01*
X214492834Y-93641385D01*
X214492833Y-93641385D01*
X214301564Y-93720611D01*
X214098516Y-93761000D01*
X213891484Y-93761000D01*
X213688436Y-93720611D01*
X213497167Y-93641385D01*
X213497166Y-93641385D01*
X213497165Y-93641384D01*
X213325027Y-93526365D01*
X213178635Y-93379973D01*
X213063616Y-93207835D01*
X213063615Y-93207833D01*
X212984389Y-93016564D01*
X212944000Y-92813516D01*
X212944000Y-92606484D01*
X212984389Y-92403436D01*
X213063615Y-92212167D01*
X213178635Y-92040027D01*
X213325027Y-91893635D01*
X213497165Y-91778616D01*
X213497167Y-91778615D01*
X213688436Y-91699389D01*
X213891484Y-91659000D01*
X214098516Y-91659000D01*
X214301564Y-91699389D01*
G37*
G36*
X220801564Y-91699389D02*
G01*
X220992833Y-91778615D01*
X220992835Y-91778616D01*
X221164973Y-91893635D01*
X221311365Y-92040027D01*
X221426385Y-92212167D01*
X221505611Y-92403436D01*
X221546000Y-92606484D01*
X221546000Y-92813516D01*
X221505611Y-93016564D01*
X221426385Y-93207833D01*
X221426384Y-93207835D01*
X221311365Y-93379973D01*
X221164973Y-93526365D01*
X220992835Y-93641384D01*
X220992834Y-93641385D01*
X220992833Y-93641385D01*
X220801564Y-93720611D01*
X220598516Y-93761000D01*
X220391484Y-93761000D01*
X220188436Y-93720611D01*
X219997167Y-93641385D01*
X219997166Y-93641385D01*
X219997165Y-93641384D01*
X219825027Y-93526365D01*
X219678635Y-93379973D01*
X219563616Y-93207835D01*
X219563615Y-93207833D01*
X219484389Y-93016564D01*
X219444000Y-92813516D01*
X219444000Y-92606484D01*
X219484389Y-92403436D01*
X219563615Y-92212167D01*
X219678635Y-92040027D01*
X219825027Y-91893635D01*
X219997165Y-91778616D01*
X219997167Y-91778615D01*
X220188436Y-91699389D01*
X220391484Y-91659000D01*
X220598516Y-91659000D01*
X220801564Y-91699389D01*
G37*
G36*
X228848228Y-86811703D02*
G01*
X229003100Y-86875853D01*
X229142481Y-86968985D01*
X229261015Y-87087519D01*
X229354147Y-87226900D01*
X229418297Y-87381772D01*
X229451000Y-87546184D01*
X229451000Y-87713816D01*
X229418297Y-87878228D01*
X229354147Y-88033100D01*
X229261015Y-88172481D01*
X229142481Y-88291015D01*
X229003100Y-88384147D01*
X228848228Y-88448297D01*
X228683816Y-88481000D01*
X228516184Y-88481000D01*
X228351772Y-88448297D01*
X228196900Y-88384147D01*
X228057519Y-88291015D01*
X227938985Y-88172481D01*
X227845853Y-88033100D01*
X227781703Y-87878228D01*
X227749000Y-87713816D01*
X227749000Y-87546184D01*
X227781703Y-87381772D01*
X227845853Y-87226900D01*
X227938985Y-87087519D01*
X228057519Y-86968985D01*
X228196900Y-86875853D01*
X228351772Y-86811703D01*
X228516184Y-86779000D01*
X228683816Y-86779000D01*
X228848228Y-86811703D01*
G37*
G36*
X236468228Y-86811703D02*
G01*
X236623100Y-86875853D01*
X236762481Y-86968985D01*
X236881015Y-87087519D01*
X236974147Y-87226900D01*
X237038297Y-87381772D01*
X237071000Y-87546184D01*
X237071000Y-87713816D01*
X237038297Y-87878228D01*
X236974147Y-88033100D01*
X236881015Y-88172481D01*
X236762481Y-88291015D01*
X236623100Y-88384147D01*
X236468228Y-88448297D01*
X236303816Y-88481000D01*
X236136184Y-88481000D01*
X235971772Y-88448297D01*
X235816900Y-88384147D01*
X235677519Y-88291015D01*
X235558985Y-88172481D01*
X235465853Y-88033100D01*
X235401703Y-87878228D01*
X235369000Y-87713816D01*
X235369000Y-87546184D01*
X235401703Y-87381772D01*
X235465853Y-87226900D01*
X235558985Y-87087519D01*
X235677519Y-86968985D01*
X235816900Y-86875853D01*
X235971772Y-86811703D01*
X236136184Y-86779000D01*
X236303816Y-86779000D01*
X236468228Y-86811703D01*
G37*
G36*
X236468228Y-84271703D02*
G01*
X236623100Y-84335853D01*
X236762481Y-84428985D01*
X236881015Y-84547519D01*
X236974147Y-84686900D01*
X237038297Y-84841772D01*
X237071000Y-85006184D01*
X237071000Y-85173816D01*
X237038297Y-85338228D01*
X236974147Y-85493100D01*
X236881015Y-85632481D01*
X236762481Y-85751015D01*
X236623100Y-85844147D01*
X236468228Y-85908297D01*
X236303816Y-85941000D01*
X236136184Y-85941000D01*
X235971772Y-85908297D01*
X235816900Y-85844147D01*
X235677519Y-85751015D01*
X235558985Y-85632481D01*
X235465853Y-85493100D01*
X235401703Y-85338228D01*
X235369000Y-85173816D01*
X235369000Y-85006184D01*
X235401703Y-84841772D01*
X235465853Y-84686900D01*
X235558985Y-84547519D01*
X235677519Y-84428985D01*
X235816900Y-84335853D01*
X235971772Y-84271703D01*
X236136184Y-84239000D01*
X236303816Y-84239000D01*
X236468228Y-84271703D01*
G37*
G36*
X228848228Y-84271703D02*
G01*
X229003100Y-84335853D01*
X229142481Y-84428985D01*
X229261015Y-84547519D01*
X229354147Y-84686900D01*
X229418297Y-84841772D01*
X229451000Y-85006184D01*
X229451000Y-85173816D01*
X229418297Y-85338228D01*
X229354147Y-85493100D01*
X229261015Y-85632481D01*
X229142481Y-85751015D01*
X229003100Y-85844147D01*
X228848228Y-85908297D01*
X228683816Y-85941000D01*
X228516184Y-85941000D01*
X228351772Y-85908297D01*
X228196900Y-85844147D01*
X228057519Y-85751015D01*
X227938985Y-85632481D01*
X227845853Y-85493100D01*
X227781703Y-85338228D01*
X227749000Y-85173816D01*
X227749000Y-85006184D01*
X227781703Y-84841772D01*
X227845853Y-84686900D01*
X227938985Y-84547519D01*
X228057519Y-84428985D01*
X228196900Y-84335853D01*
X228351772Y-84271703D01*
X228516184Y-84239000D01*
X228683816Y-84239000D01*
X228848228Y-84271703D01*
G37*
G36*
X214272395Y-81635546D02*
G01*
X214445466Y-81707234D01*
X214445467Y-81707235D01*
X214601227Y-81811310D01*
X214733690Y-81943773D01*
X214776284Y-82007520D01*
X214837766Y-82099534D01*
X214909454Y-82272605D01*
X214946000Y-82456333D01*
X214946000Y-82643667D01*
X214909454Y-82827395D01*
X214837766Y-83000466D01*
X214837765Y-83000467D01*
X214733690Y-83156227D01*
X214601227Y-83288690D01*
X214578092Y-83304148D01*
X214445466Y-83392766D01*
X214272395Y-83464454D01*
X214088667Y-83501000D01*
X213901333Y-83501000D01*
X213717605Y-83464454D01*
X213544534Y-83392766D01*
X213411908Y-83304148D01*
X213388773Y-83288690D01*
X213256310Y-83156227D01*
X213152235Y-83000467D01*
X213152234Y-83000466D01*
X213080546Y-82827395D01*
X213044000Y-82643667D01*
X213044000Y-82456333D01*
X213080546Y-82272605D01*
X213152234Y-82099534D01*
X213213716Y-82007520D01*
X213256310Y-81943773D01*
X213388773Y-81811310D01*
X213544533Y-81707235D01*
X213544534Y-81707234D01*
X213717605Y-81635546D01*
X213901333Y-81599000D01*
X214088667Y-81599000D01*
X214272395Y-81635546D01*
G37*
G36*
X178712395Y-81635546D02*
G01*
X178885466Y-81707234D01*
X178885467Y-81707235D01*
X179041227Y-81811310D01*
X179173690Y-81943773D01*
X179216284Y-82007520D01*
X179277766Y-82099534D01*
X179349454Y-82272605D01*
X179386000Y-82456333D01*
X179386000Y-82643667D01*
X179349454Y-82827395D01*
X179277766Y-83000466D01*
X179277765Y-83000467D01*
X179173690Y-83156227D01*
X179041227Y-83288690D01*
X179018092Y-83304148D01*
X178885466Y-83392766D01*
X178712395Y-83464454D01*
X178528667Y-83501000D01*
X178341333Y-83501000D01*
X178157605Y-83464454D01*
X177984534Y-83392766D01*
X177851908Y-83304148D01*
X177828773Y-83288690D01*
X177696310Y-83156227D01*
X177592235Y-83000467D01*
X177592234Y-83000466D01*
X177520546Y-82827395D01*
X177484000Y-82643667D01*
X177484000Y-82456333D01*
X177520546Y-82272605D01*
X177592234Y-82099534D01*
X177653716Y-82007520D01*
X177696310Y-81943773D01*
X177828773Y-81811310D01*
X177984533Y-81707235D01*
X177984534Y-81707234D01*
X178157605Y-81635546D01*
X178341333Y-81599000D01*
X178528667Y-81599000D01*
X178712395Y-81635546D01*
G37*
G36*
X212406000Y-83501000D02*
G01*
X210504000Y-83501000D01*
X210504000Y-81599000D01*
X212406000Y-81599000D01*
X212406000Y-83501000D01*
G37*
G36*
X205382395Y-81635546D02*
G01*
X205555466Y-81707234D01*
X205555467Y-81707235D01*
X205711227Y-81811310D01*
X205843690Y-81943773D01*
X205886284Y-82007520D01*
X205947766Y-82099534D01*
X206019454Y-82272605D01*
X206056000Y-82456333D01*
X206056000Y-82643667D01*
X206019454Y-82827395D01*
X205947766Y-83000466D01*
X205947765Y-83000467D01*
X205843690Y-83156227D01*
X205711227Y-83288690D01*
X205688092Y-83304148D01*
X205555466Y-83392766D01*
X205382395Y-83464454D01*
X205198667Y-83501000D01*
X205011333Y-83501000D01*
X204827605Y-83464454D01*
X204654534Y-83392766D01*
X204521908Y-83304148D01*
X204498773Y-83288690D01*
X204366310Y-83156227D01*
X204262235Y-83000467D01*
X204262234Y-83000466D01*
X204190546Y-82827395D01*
X204154000Y-82643667D01*
X204154000Y-82456333D01*
X204190546Y-82272605D01*
X204262234Y-82099534D01*
X204323716Y-82007520D01*
X204366310Y-81943773D01*
X204498773Y-81811310D01*
X204654533Y-81707235D01*
X204654534Y-81707234D01*
X204827605Y-81635546D01*
X205011333Y-81599000D01*
X205198667Y-81599000D01*
X205382395Y-81635546D01*
G37*
G36*
X203516000Y-83501000D02*
G01*
X201614000Y-83501000D01*
X201614000Y-81599000D01*
X203516000Y-81599000D01*
X203516000Y-83501000D01*
G37*
G36*
X196492395Y-81635546D02*
G01*
X196665466Y-81707234D01*
X196665467Y-81707235D01*
X196821227Y-81811310D01*
X196953690Y-81943773D01*
X196996284Y-82007520D01*
X197057766Y-82099534D01*
X197129454Y-82272605D01*
X197166000Y-82456333D01*
X197166000Y-82643667D01*
X197129454Y-82827395D01*
X197057766Y-83000466D01*
X197057765Y-83000467D01*
X196953690Y-83156227D01*
X196821227Y-83288690D01*
X196798092Y-83304148D01*
X196665466Y-83392766D01*
X196492395Y-83464454D01*
X196308667Y-83501000D01*
X196121333Y-83501000D01*
X195937605Y-83464454D01*
X195764534Y-83392766D01*
X195631908Y-83304148D01*
X195608773Y-83288690D01*
X195476310Y-83156227D01*
X195372235Y-83000467D01*
X195372234Y-83000466D01*
X195300546Y-82827395D01*
X195264000Y-82643667D01*
X195264000Y-82456333D01*
X195300546Y-82272605D01*
X195372234Y-82099534D01*
X195433716Y-82007520D01*
X195476310Y-81943773D01*
X195608773Y-81811310D01*
X195764533Y-81707235D01*
X195764534Y-81707234D01*
X195937605Y-81635546D01*
X196121333Y-81599000D01*
X196308667Y-81599000D01*
X196492395Y-81635546D01*
G37*
G36*
X176846000Y-83501000D02*
G01*
X174944000Y-83501000D01*
X174944000Y-81599000D01*
X176846000Y-81599000D01*
X176846000Y-83501000D01*
G37*
G36*
X185736000Y-83501000D02*
G01*
X183834000Y-83501000D01*
X183834000Y-81599000D01*
X185736000Y-81599000D01*
X185736000Y-83501000D01*
G37*
G36*
X187602395Y-81635546D02*
G01*
X187775466Y-81707234D01*
X187775467Y-81707235D01*
X187931227Y-81811310D01*
X188063690Y-81943773D01*
X188106284Y-82007520D01*
X188167766Y-82099534D01*
X188239454Y-82272605D01*
X188276000Y-82456333D01*
X188276000Y-82643667D01*
X188239454Y-82827395D01*
X188167766Y-83000466D01*
X188167765Y-83000467D01*
X188063690Y-83156227D01*
X187931227Y-83288690D01*
X187908092Y-83304148D01*
X187775466Y-83392766D01*
X187602395Y-83464454D01*
X187418667Y-83501000D01*
X187231333Y-83501000D01*
X187047605Y-83464454D01*
X186874534Y-83392766D01*
X186741908Y-83304148D01*
X186718773Y-83288690D01*
X186586310Y-83156227D01*
X186482235Y-83000467D01*
X186482234Y-83000466D01*
X186410546Y-82827395D01*
X186374000Y-82643667D01*
X186374000Y-82456333D01*
X186410546Y-82272605D01*
X186482234Y-82099534D01*
X186543716Y-82007520D01*
X186586310Y-81943773D01*
X186718773Y-81811310D01*
X186874533Y-81707235D01*
X186874534Y-81707234D01*
X187047605Y-81635546D01*
X187231333Y-81599000D01*
X187418667Y-81599000D01*
X187602395Y-81635546D01*
G37*
G36*
X194626000Y-83501000D02*
G01*
X192724000Y-83501000D01*
X192724000Y-81599000D01*
X194626000Y-81599000D01*
X194626000Y-83501000D01*
G37*
G36*
X228848228Y-81731703D02*
G01*
X229003100Y-81795853D01*
X229142481Y-81888985D01*
X229261015Y-82007519D01*
X229354147Y-82146900D01*
X229418297Y-82301772D01*
X229451000Y-82466184D01*
X229451000Y-82633816D01*
X229418297Y-82798228D01*
X229354147Y-82953100D01*
X229261015Y-83092481D01*
X229142481Y-83211015D01*
X229003100Y-83304147D01*
X228848228Y-83368297D01*
X228683816Y-83401000D01*
X228516184Y-83401000D01*
X228351772Y-83368297D01*
X228196900Y-83304147D01*
X228057519Y-83211015D01*
X227938985Y-83092481D01*
X227845853Y-82953100D01*
X227781703Y-82798228D01*
X227749000Y-82633816D01*
X227749000Y-82466184D01*
X227781703Y-82301772D01*
X227845853Y-82146900D01*
X227938985Y-82007519D01*
X228057519Y-81888985D01*
X228196900Y-81795853D01*
X228351772Y-81731703D01*
X228516184Y-81699000D01*
X228683816Y-81699000D01*
X228848228Y-81731703D01*
G37*
G36*
X236468228Y-81731703D02*
G01*
X236623100Y-81795853D01*
X236762481Y-81888985D01*
X236881015Y-82007519D01*
X236974147Y-82146900D01*
X237038297Y-82301772D01*
X237071000Y-82466184D01*
X237071000Y-82633816D01*
X237038297Y-82798228D01*
X236974147Y-82953100D01*
X236881015Y-83092481D01*
X236762481Y-83211015D01*
X236623100Y-83304147D01*
X236468228Y-83368297D01*
X236303816Y-83401000D01*
X236136184Y-83401000D01*
X235971772Y-83368297D01*
X235816900Y-83304147D01*
X235677519Y-83211015D01*
X235558985Y-83092481D01*
X235465853Y-82953100D01*
X235401703Y-82798228D01*
X235369000Y-82633816D01*
X235369000Y-82466184D01*
X235401703Y-82301772D01*
X235465853Y-82146900D01*
X235558985Y-82007519D01*
X235677519Y-81888985D01*
X235816900Y-81795853D01*
X235971772Y-81731703D01*
X236136184Y-81699000D01*
X236303816Y-81699000D01*
X236468228Y-81731703D01*
G37*
G36*
X228848228Y-79191703D02*
G01*
X229003100Y-79255853D01*
X229142481Y-79348985D01*
X229261015Y-79467519D01*
X229354147Y-79606900D01*
X229418297Y-79761772D01*
X229451000Y-79926184D01*
X229451000Y-80093816D01*
X229418297Y-80258228D01*
X229354147Y-80413100D01*
X229261015Y-80552481D01*
X229142481Y-80671015D01*
X229003100Y-80764147D01*
X228848228Y-80828297D01*
X228683816Y-80861000D01*
X228516184Y-80861000D01*
X228351772Y-80828297D01*
X228196900Y-80764147D01*
X228057519Y-80671015D01*
X227938985Y-80552481D01*
X227845853Y-80413100D01*
X227781703Y-80258228D01*
X227749000Y-80093816D01*
X227749000Y-79926184D01*
X227781703Y-79761772D01*
X227845853Y-79606900D01*
X227938985Y-79467519D01*
X228057519Y-79348985D01*
X228196900Y-79255853D01*
X228351772Y-79191703D01*
X228516184Y-79159000D01*
X228683816Y-79159000D01*
X228848228Y-79191703D01*
G37*
G36*
X236468228Y-79191703D02*
G01*
X236623100Y-79255853D01*
X236762481Y-79348985D01*
X236881015Y-79467519D01*
X236974147Y-79606900D01*
X237038297Y-79761772D01*
X237071000Y-79926184D01*
X237071000Y-80093816D01*
X237038297Y-80258228D01*
X236974147Y-80413100D01*
X236881015Y-80552481D01*
X236762481Y-80671015D01*
X236623100Y-80764147D01*
X236468228Y-80828297D01*
X236303816Y-80861000D01*
X236136184Y-80861000D01*
X235971772Y-80828297D01*
X235816900Y-80764147D01*
X235677519Y-80671015D01*
X235558985Y-80552481D01*
X235465853Y-80413100D01*
X235401703Y-80258228D01*
X235369000Y-80093816D01*
X235369000Y-79926184D01*
X235401703Y-79761772D01*
X235465853Y-79606900D01*
X235558985Y-79467519D01*
X235677519Y-79348985D01*
X235816900Y-79255853D01*
X235971772Y-79191703D01*
X236136184Y-79159000D01*
X236303816Y-79159000D01*
X236468228Y-79191703D01*
G37*
G36*
X228848228Y-76651703D02*
G01*
X229003100Y-76715853D01*
X229142481Y-76808985D01*
X229261015Y-76927519D01*
X229354147Y-77066900D01*
X229418297Y-77221772D01*
X229451000Y-77386184D01*
X229451000Y-77553816D01*
X229418297Y-77718228D01*
X229354147Y-77873100D01*
X229261015Y-78012481D01*
X229142481Y-78131015D01*
X229003100Y-78224147D01*
X228848228Y-78288297D01*
X228683816Y-78321000D01*
X228516184Y-78321000D01*
X228351772Y-78288297D01*
X228196900Y-78224147D01*
X228057519Y-78131015D01*
X227938985Y-78012481D01*
X227845853Y-77873100D01*
X227781703Y-77718228D01*
X227749000Y-77553816D01*
X227749000Y-77386184D01*
X227781703Y-77221772D01*
X227845853Y-77066900D01*
X227938985Y-76927519D01*
X228057519Y-76808985D01*
X228196900Y-76715853D01*
X228351772Y-76651703D01*
X228516184Y-76619000D01*
X228683816Y-76619000D01*
X228848228Y-76651703D01*
G37*
G36*
X236468228Y-76651703D02*
G01*
X236623100Y-76715853D01*
X236762481Y-76808985D01*
X236881015Y-76927519D01*
X236974147Y-77066900D01*
X237038297Y-77221772D01*
X237071000Y-77386184D01*
X237071000Y-77553816D01*
X237038297Y-77718228D01*
X236974147Y-77873100D01*
X236881015Y-78012481D01*
X236762481Y-78131015D01*
X236623100Y-78224147D01*
X236468228Y-78288297D01*
X236303816Y-78321000D01*
X236136184Y-78321000D01*
X235971772Y-78288297D01*
X235816900Y-78224147D01*
X235677519Y-78131015D01*
X235558985Y-78012481D01*
X235465853Y-77873100D01*
X235401703Y-77718228D01*
X235369000Y-77553816D01*
X235369000Y-77386184D01*
X235401703Y-77221772D01*
X235465853Y-77066900D01*
X235558985Y-76927519D01*
X235677519Y-76808985D01*
X235816900Y-76715853D01*
X235971772Y-76651703D01*
X236136184Y-76619000D01*
X236303816Y-76619000D01*
X236468228Y-76651703D01*
G37*
G36*
X195193228Y-75381703D02*
G01*
X195348100Y-75445853D01*
X195487481Y-75538985D01*
X195606015Y-75657519D01*
X195699147Y-75796900D01*
X195763297Y-75951772D01*
X195796000Y-76116184D01*
X195796000Y-76283816D01*
X195763297Y-76448228D01*
X195699147Y-76603100D01*
X195606015Y-76742481D01*
X195487481Y-76861015D01*
X195348100Y-76954147D01*
X195193228Y-77018297D01*
X195028816Y-77051000D01*
X194861184Y-77051000D01*
X194696772Y-77018297D01*
X194541900Y-76954147D01*
X194402519Y-76861015D01*
X194283985Y-76742481D01*
X194190853Y-76603100D01*
X194126703Y-76448228D01*
X194094000Y-76283816D01*
X194094000Y-76116184D01*
X194126703Y-75951772D01*
X194190853Y-75796900D01*
X194283985Y-75657519D01*
X194402519Y-75538985D01*
X194541900Y-75445853D01*
X194696772Y-75381703D01*
X194861184Y-75349000D01*
X195028816Y-75349000D01*
X195193228Y-75381703D01*
G37*
G36*
X186303228Y-75381703D02*
G01*
X186458100Y-75445853D01*
X186597481Y-75538985D01*
X186716015Y-75657519D01*
X186809147Y-75796900D01*
X186873297Y-75951772D01*
X186906000Y-76116184D01*
X186906000Y-76283816D01*
X186873297Y-76448228D01*
X186809147Y-76603100D01*
X186716015Y-76742481D01*
X186597481Y-76861015D01*
X186458100Y-76954147D01*
X186303228Y-77018297D01*
X186138816Y-77051000D01*
X185971184Y-77051000D01*
X185806772Y-77018297D01*
X185651900Y-76954147D01*
X185512519Y-76861015D01*
X185393985Y-76742481D01*
X185300853Y-76603100D01*
X185236703Y-76448228D01*
X185204000Y-76283816D01*
X185204000Y-76116184D01*
X185236703Y-75951772D01*
X185300853Y-75796900D01*
X185393985Y-75657519D01*
X185512519Y-75538985D01*
X185651900Y-75445853D01*
X185806772Y-75381703D01*
X185971184Y-75349000D01*
X186138816Y-75349000D01*
X186303228Y-75381703D01*
G37*
G36*
X204083228Y-75381703D02*
G01*
X204238100Y-75445853D01*
X204377481Y-75538985D01*
X204496015Y-75657519D01*
X204589147Y-75796900D01*
X204653297Y-75951772D01*
X204686000Y-76116184D01*
X204686000Y-76283816D01*
X204653297Y-76448228D01*
X204589147Y-76603100D01*
X204496015Y-76742481D01*
X204377481Y-76861015D01*
X204238100Y-76954147D01*
X204083228Y-77018297D01*
X203918816Y-77051000D01*
X203751184Y-77051000D01*
X203586772Y-77018297D01*
X203431900Y-76954147D01*
X203292519Y-76861015D01*
X203173985Y-76742481D01*
X203080853Y-76603100D01*
X203016703Y-76448228D01*
X202984000Y-76283816D01*
X202984000Y-76116184D01*
X203016703Y-75951772D01*
X203080853Y-75796900D01*
X203173985Y-75657519D01*
X203292519Y-75538985D01*
X203431900Y-75445853D01*
X203586772Y-75381703D01*
X203751184Y-75349000D01*
X203918816Y-75349000D01*
X204083228Y-75381703D01*
G37*
G36*
X177413228Y-75381703D02*
G01*
X177568100Y-75445853D01*
X177707481Y-75538985D01*
X177826015Y-75657519D01*
X177919147Y-75796900D01*
X177983297Y-75951772D01*
X178016000Y-76116184D01*
X178016000Y-76283816D01*
X177983297Y-76448228D01*
X177919147Y-76603100D01*
X177826015Y-76742481D01*
X177707481Y-76861015D01*
X177568100Y-76954147D01*
X177413228Y-77018297D01*
X177248816Y-77051000D01*
X177081184Y-77051000D01*
X176916772Y-77018297D01*
X176761900Y-76954147D01*
X176622519Y-76861015D01*
X176503985Y-76742481D01*
X176410853Y-76603100D01*
X176346703Y-76448228D01*
X176314000Y-76283816D01*
X176314000Y-76116184D01*
X176346703Y-75951772D01*
X176410853Y-75796900D01*
X176503985Y-75657519D01*
X176622519Y-75538985D01*
X176761900Y-75445853D01*
X176916772Y-75381703D01*
X177081184Y-75349000D01*
X177248816Y-75349000D01*
X177413228Y-75381703D01*
G37*
G36*
X212973228Y-75381703D02*
G01*
X213128100Y-75445853D01*
X213267481Y-75538985D01*
X213386015Y-75657519D01*
X213479147Y-75796900D01*
X213543297Y-75951772D01*
X213576000Y-76116184D01*
X213576000Y-76283816D01*
X213543297Y-76448228D01*
X213479147Y-76603100D01*
X213386015Y-76742481D01*
X213267481Y-76861015D01*
X213128100Y-76954147D01*
X212973228Y-77018297D01*
X212808816Y-77051000D01*
X212641184Y-77051000D01*
X212476772Y-77018297D01*
X212321900Y-76954147D01*
X212182519Y-76861015D01*
X212063985Y-76742481D01*
X211970853Y-76603100D01*
X211906703Y-76448228D01*
X211874000Y-76283816D01*
X211874000Y-76116184D01*
X211906703Y-75951772D01*
X211970853Y-75796900D01*
X212063985Y-75657519D01*
X212182519Y-75538985D01*
X212321900Y-75445853D01*
X212476772Y-75381703D01*
X212641184Y-75349000D01*
X212808816Y-75349000D01*
X212973228Y-75381703D01*
G37*
G36*
X221228228Y-75381703D02*
G01*
X221383100Y-75445853D01*
X221522481Y-75538985D01*
X221641015Y-75657519D01*
X221734147Y-75796900D01*
X221798297Y-75951772D01*
X221831000Y-76116184D01*
X221831000Y-76283816D01*
X221798297Y-76448228D01*
X221734147Y-76603100D01*
X221641015Y-76742481D01*
X221522481Y-76861015D01*
X221383100Y-76954147D01*
X221228228Y-77018297D01*
X221063816Y-77051000D01*
X220896184Y-77051000D01*
X220731772Y-77018297D01*
X220576900Y-76954147D01*
X220437519Y-76861015D01*
X220318985Y-76742481D01*
X220225853Y-76603100D01*
X220161703Y-76448228D01*
X220129000Y-76283816D01*
X220129000Y-76116184D01*
X220161703Y-75951772D01*
X220225853Y-75796900D01*
X220318985Y-75657519D01*
X220437519Y-75538985D01*
X220576900Y-75445853D01*
X220731772Y-75381703D01*
X220896184Y-75349000D01*
X221063816Y-75349000D01*
X221228228Y-75381703D01*
G37*
G36*
X255801000Y-76096000D02*
G01*
X252199000Y-76096000D01*
X252199000Y-72494000D01*
X255801000Y-72494000D01*
X255801000Y-76096000D01*
G37*
G36*
X260976979Y-72508293D02*
G01*
X261110625Y-72548834D01*
X261233784Y-72614664D01*
X261341740Y-72703260D01*
X261430336Y-72811216D01*
X261496166Y-72934375D01*
X261536707Y-73068021D01*
X261551000Y-73213140D01*
X261551000Y-75376860D01*
X261536707Y-75521979D01*
X261496166Y-75655625D01*
X261430336Y-75778784D01*
X261341740Y-75886740D01*
X261233784Y-75975336D01*
X261110625Y-76041166D01*
X260976979Y-76081707D01*
X260831860Y-76096000D01*
X259168140Y-76096000D01*
X259023021Y-76081707D01*
X258889375Y-76041166D01*
X258766216Y-75975336D01*
X258658260Y-75886740D01*
X258569664Y-75778784D01*
X258503834Y-75655625D01*
X258463293Y-75521979D01*
X258449000Y-75376860D01*
X258449000Y-73213140D01*
X258463293Y-73068021D01*
X258503834Y-72934375D01*
X258569664Y-72811216D01*
X258658260Y-72703260D01*
X258766216Y-72614664D01*
X258889375Y-72548834D01*
X259023021Y-72508293D01*
X259168140Y-72494000D01*
X260831860Y-72494000D01*
X260976979Y-72508293D01*
G37*
G36*
X236468228Y-74111703D02*
G01*
X236623100Y-74175853D01*
X236762481Y-74268985D01*
X236881015Y-74387519D01*
X236974147Y-74526900D01*
X237038297Y-74681772D01*
X237071000Y-74846184D01*
X237071000Y-75013816D01*
X237038297Y-75178228D01*
X236974147Y-75333100D01*
X236881015Y-75472481D01*
X236762481Y-75591015D01*
X236623100Y-75684147D01*
X236468228Y-75748297D01*
X236303816Y-75781000D01*
X236136184Y-75781000D01*
X235971772Y-75748297D01*
X235816900Y-75684147D01*
X235677519Y-75591015D01*
X235558985Y-75472481D01*
X235465853Y-75333100D01*
X235401703Y-75178228D01*
X235369000Y-75013816D01*
X235369000Y-74846184D01*
X235401703Y-74681772D01*
X235465853Y-74526900D01*
X235558985Y-74387519D01*
X235677519Y-74268985D01*
X235816900Y-74175853D01*
X235971772Y-74111703D01*
X236136184Y-74079000D01*
X236303816Y-74079000D01*
X236468228Y-74111703D01*
G37*
G36*
X228848228Y-74111703D02*
G01*
X229003100Y-74175853D01*
X229142481Y-74268985D01*
X229261015Y-74387519D01*
X229354147Y-74526900D01*
X229418297Y-74681772D01*
X229451000Y-74846184D01*
X229451000Y-75013816D01*
X229418297Y-75178228D01*
X229354147Y-75333100D01*
X229261015Y-75472481D01*
X229142481Y-75591015D01*
X229003100Y-75684147D01*
X228848228Y-75748297D01*
X228683816Y-75781000D01*
X228516184Y-75781000D01*
X228351772Y-75748297D01*
X228196900Y-75684147D01*
X228057519Y-75591015D01*
X227938985Y-75472481D01*
X227845853Y-75333100D01*
X227781703Y-75178228D01*
X227749000Y-75013816D01*
X227749000Y-74846184D01*
X227781703Y-74681772D01*
X227845853Y-74526900D01*
X227938985Y-74387519D01*
X228057519Y-74268985D01*
X228196900Y-74175853D01*
X228351772Y-74111703D01*
X228516184Y-74079000D01*
X228683816Y-74079000D01*
X228848228Y-74111703D01*
G37*
G36*
X247858228Y-71571703D02*
G01*
X248013100Y-71635853D01*
X248152481Y-71728985D01*
X248271015Y-71847519D01*
X248364147Y-71986900D01*
X248428297Y-72141772D01*
X248461000Y-72306184D01*
X248461000Y-72473816D01*
X248428297Y-72638228D01*
X248364147Y-72793100D01*
X248271015Y-72932481D01*
X248152481Y-73051015D01*
X248013100Y-73144147D01*
X247858228Y-73208297D01*
X247693816Y-73241000D01*
X247526184Y-73241000D01*
X247361772Y-73208297D01*
X247206900Y-73144147D01*
X247067519Y-73051015D01*
X246948985Y-72932481D01*
X246855853Y-72793100D01*
X246791703Y-72638228D01*
X246759000Y-72473816D01*
X246759000Y-72306184D01*
X246791703Y-72141772D01*
X246855853Y-71986900D01*
X246948985Y-71847519D01*
X247067519Y-71728985D01*
X247206900Y-71635853D01*
X247361772Y-71571703D01*
X247526184Y-71539000D01*
X247693816Y-71539000D01*
X247858228Y-71571703D01*
G37*
G36*
X236468228Y-71571703D02*
G01*
X236623100Y-71635853D01*
X236762481Y-71728985D01*
X236881015Y-71847519D01*
X236974147Y-71986900D01*
X237038297Y-72141772D01*
X237071000Y-72306184D01*
X237071000Y-72473816D01*
X237038297Y-72638228D01*
X236974147Y-72793100D01*
X236881015Y-72932481D01*
X236762481Y-73051015D01*
X236623100Y-73144147D01*
X236468228Y-73208297D01*
X236303816Y-73241000D01*
X236136184Y-73241000D01*
X235971772Y-73208297D01*
X235816900Y-73144147D01*
X235677519Y-73051015D01*
X235558985Y-72932481D01*
X235465853Y-72793100D01*
X235401703Y-72638228D01*
X235369000Y-72473816D01*
X235369000Y-72306184D01*
X235401703Y-72141772D01*
X235465853Y-71986900D01*
X235558985Y-71847519D01*
X235677519Y-71728985D01*
X235816900Y-71635853D01*
X235971772Y-71571703D01*
X236136184Y-71539000D01*
X236303816Y-71539000D01*
X236468228Y-71571703D01*
G37*
G36*
X245961000Y-73241000D02*
G01*
X244259000Y-73241000D01*
X244259000Y-71539000D01*
X245961000Y-71539000D01*
X245961000Y-73241000D01*
G37*
G36*
X229451000Y-73241000D02*
G01*
X227749000Y-73241000D01*
X227749000Y-71539000D01*
X229451000Y-71539000D01*
X229451000Y-73241000D01*
G37*
G36*
X258126366Y-67810695D02*
G01*
X258283460Y-67858349D01*
X258428231Y-67935731D01*
X258555128Y-68039872D01*
X258659269Y-68166769D01*
X258736651Y-68311540D01*
X258784305Y-68468634D01*
X258801000Y-68638140D01*
X258801000Y-70551860D01*
X258784305Y-70721366D01*
X258736651Y-70878460D01*
X258659269Y-71023231D01*
X258555128Y-71150128D01*
X258428231Y-71254269D01*
X258283460Y-71331651D01*
X258126366Y-71379305D01*
X257956860Y-71396000D01*
X256043140Y-71396000D01*
X255873634Y-71379305D01*
X255716540Y-71331651D01*
X255571769Y-71254269D01*
X255444872Y-71150128D01*
X255340731Y-71023231D01*
X255263349Y-70878460D01*
X255215695Y-70721366D01*
X255199000Y-70551860D01*
X255199000Y-68638140D01*
X255215695Y-68468634D01*
X255263349Y-68311540D01*
X255340731Y-68166769D01*
X255444872Y-68039872D01*
X255571769Y-67935731D01*
X255716540Y-67858349D01*
X255873634Y-67810695D01*
X256043140Y-67794000D01*
X257956860Y-67794000D01*
X258126366Y-67810695D01*
G37*
G36*
X204083228Y-67761703D02*
G01*
X204238100Y-67825853D01*
X204377481Y-67918985D01*
X204496015Y-68037519D01*
X204589147Y-68176900D01*
X204653297Y-68331772D01*
X204686000Y-68496184D01*
X204686000Y-68663816D01*
X204653297Y-68828228D01*
X204589147Y-68983100D01*
X204496015Y-69122481D01*
X204377481Y-69241015D01*
X204238100Y-69334147D01*
X204083228Y-69398297D01*
X203918816Y-69431000D01*
X203751184Y-69431000D01*
X203586772Y-69398297D01*
X203431900Y-69334147D01*
X203292519Y-69241015D01*
X203173985Y-69122481D01*
X203080853Y-68983100D01*
X203016703Y-68828228D01*
X202984000Y-68663816D01*
X202984000Y-68496184D01*
X203016703Y-68331772D01*
X203080853Y-68176900D01*
X203173985Y-68037519D01*
X203292519Y-67918985D01*
X203431900Y-67825853D01*
X203586772Y-67761703D01*
X203751184Y-67729000D01*
X203918816Y-67729000D01*
X204083228Y-67761703D01*
G37*
G36*
X177413228Y-67761703D02*
G01*
X177568100Y-67825853D01*
X177707481Y-67918985D01*
X177826015Y-68037519D01*
X177919147Y-68176900D01*
X177983297Y-68331772D01*
X178016000Y-68496184D01*
X178016000Y-68663816D01*
X177983297Y-68828228D01*
X177919147Y-68983100D01*
X177826015Y-69122481D01*
X177707481Y-69241015D01*
X177568100Y-69334147D01*
X177413228Y-69398297D01*
X177248816Y-69431000D01*
X177081184Y-69431000D01*
X176916772Y-69398297D01*
X176761900Y-69334147D01*
X176622519Y-69241015D01*
X176503985Y-69122481D01*
X176410853Y-68983100D01*
X176346703Y-68828228D01*
X176314000Y-68663816D01*
X176314000Y-68496184D01*
X176346703Y-68331772D01*
X176410853Y-68176900D01*
X176503985Y-68037519D01*
X176622519Y-67918985D01*
X176761900Y-67825853D01*
X176916772Y-67761703D01*
X177081184Y-67729000D01*
X177248816Y-67729000D01*
X177413228Y-67761703D01*
G37*
G36*
X186303228Y-67761703D02*
G01*
X186458100Y-67825853D01*
X186597481Y-67918985D01*
X186716015Y-68037519D01*
X186809147Y-68176900D01*
X186873297Y-68331772D01*
X186906000Y-68496184D01*
X186906000Y-68663816D01*
X186873297Y-68828228D01*
X186809147Y-68983100D01*
X186716015Y-69122481D01*
X186597481Y-69241015D01*
X186458100Y-69334147D01*
X186303228Y-69398297D01*
X186138816Y-69431000D01*
X185971184Y-69431000D01*
X185806772Y-69398297D01*
X185651900Y-69334147D01*
X185512519Y-69241015D01*
X185393985Y-69122481D01*
X185300853Y-68983100D01*
X185236703Y-68828228D01*
X185204000Y-68663816D01*
X185204000Y-68496184D01*
X185236703Y-68331772D01*
X185300853Y-68176900D01*
X185393985Y-68037519D01*
X185512519Y-67918985D01*
X185651900Y-67825853D01*
X185806772Y-67761703D01*
X185971184Y-67729000D01*
X186138816Y-67729000D01*
X186303228Y-67761703D01*
G37*
G36*
X195193228Y-67761703D02*
G01*
X195348100Y-67825853D01*
X195487481Y-67918985D01*
X195606015Y-68037519D01*
X195699147Y-68176900D01*
X195763297Y-68331772D01*
X195796000Y-68496184D01*
X195796000Y-68663816D01*
X195763297Y-68828228D01*
X195699147Y-68983100D01*
X195606015Y-69122481D01*
X195487481Y-69241015D01*
X195348100Y-69334147D01*
X195193228Y-69398297D01*
X195028816Y-69431000D01*
X194861184Y-69431000D01*
X194696772Y-69398297D01*
X194541900Y-69334147D01*
X194402519Y-69241015D01*
X194283985Y-69122481D01*
X194190853Y-68983100D01*
X194126703Y-68828228D01*
X194094000Y-68663816D01*
X194094000Y-68496184D01*
X194126703Y-68331772D01*
X194190853Y-68176900D01*
X194283985Y-68037519D01*
X194402519Y-67918985D01*
X194541900Y-67825853D01*
X194696772Y-67761703D01*
X194861184Y-67729000D01*
X195028816Y-67729000D01*
X195193228Y-67761703D01*
G37*
G36*
X212973228Y-67761703D02*
G01*
X213128100Y-67825853D01*
X213267481Y-67918985D01*
X213386015Y-68037519D01*
X213479147Y-68176900D01*
X213543297Y-68331772D01*
X213576000Y-68496184D01*
X213576000Y-68663816D01*
X213543297Y-68828228D01*
X213479147Y-68983100D01*
X213386015Y-69122481D01*
X213267481Y-69241015D01*
X213128100Y-69334147D01*
X212973228Y-69398297D01*
X212808816Y-69431000D01*
X212641184Y-69431000D01*
X212476772Y-69398297D01*
X212321900Y-69334147D01*
X212182519Y-69241015D01*
X212063985Y-69122481D01*
X211970853Y-68983100D01*
X211906703Y-68828228D01*
X211874000Y-68663816D01*
X211874000Y-68496184D01*
X211906703Y-68331772D01*
X211970853Y-68176900D01*
X212063985Y-68037519D01*
X212182519Y-67918985D01*
X212321900Y-67825853D01*
X212476772Y-67761703D01*
X212641184Y-67729000D01*
X212808816Y-67729000D01*
X212973228Y-67761703D01*
G37*
G36*
X221228228Y-67761703D02*
G01*
X221383100Y-67825853D01*
X221522481Y-67918985D01*
X221641015Y-68037519D01*
X221734147Y-68176900D01*
X221798297Y-68331772D01*
X221831000Y-68496184D01*
X221831000Y-68663816D01*
X221798297Y-68828228D01*
X221734147Y-68983100D01*
X221641015Y-69122481D01*
X221522481Y-69241015D01*
X221383100Y-69334147D01*
X221228228Y-69398297D01*
X221063816Y-69431000D01*
X220896184Y-69431000D01*
X220731772Y-69398297D01*
X220576900Y-69334147D01*
X220437519Y-69241015D01*
X220318985Y-69122481D01*
X220225853Y-68983100D01*
X220161703Y-68828228D01*
X220129000Y-68663816D01*
X220129000Y-68496184D01*
X220161703Y-68331772D01*
X220225853Y-68176900D01*
X220318985Y-68037519D01*
X220437519Y-67918985D01*
X220576900Y-67825853D01*
X220731772Y-67761703D01*
X220896184Y-67729000D01*
X221063816Y-67729000D01*
X221228228Y-67761703D01*
G37*
G36*
X228848228Y-62681703D02*
G01*
X229003100Y-62745853D01*
X229142481Y-62838985D01*
X229261015Y-62957519D01*
X229354147Y-63096900D01*
X229418297Y-63251772D01*
X229451000Y-63416184D01*
X229451000Y-63583816D01*
X229418297Y-63748228D01*
X229354147Y-63903100D01*
X229261015Y-64042481D01*
X229142481Y-64161015D01*
X229003100Y-64254147D01*
X228848228Y-64318297D01*
X228683816Y-64351000D01*
X228516184Y-64351000D01*
X228351772Y-64318297D01*
X228196900Y-64254147D01*
X228057519Y-64161015D01*
X227938985Y-64042481D01*
X227845853Y-63903100D01*
X227781703Y-63748228D01*
X227749000Y-63583816D01*
X227749000Y-63416184D01*
X227781703Y-63251772D01*
X227845853Y-63096900D01*
X227938985Y-62957519D01*
X228057519Y-62838985D01*
X228196900Y-62745853D01*
X228351772Y-62681703D01*
X228516184Y-62649000D01*
X228683816Y-62649000D01*
X228848228Y-62681703D01*
G37*
G36*
X236468228Y-62681703D02*
G01*
X236623100Y-62745853D01*
X236762481Y-62838985D01*
X236881015Y-62957519D01*
X236974147Y-63096900D01*
X237038297Y-63251772D01*
X237071000Y-63416184D01*
X237071000Y-63583816D01*
X237038297Y-63748228D01*
X236974147Y-63903100D01*
X236881015Y-64042481D01*
X236762481Y-64161015D01*
X236623100Y-64254147D01*
X236468228Y-64318297D01*
X236303816Y-64351000D01*
X236136184Y-64351000D01*
X235971772Y-64318297D01*
X235816900Y-64254147D01*
X235677519Y-64161015D01*
X235558985Y-64042481D01*
X235465853Y-63903100D01*
X235401703Y-63748228D01*
X235369000Y-63583816D01*
X235369000Y-63416184D01*
X235401703Y-63251772D01*
X235465853Y-63096900D01*
X235558985Y-62957519D01*
X235677519Y-62838985D01*
X235816900Y-62745853D01*
X235971772Y-62681703D01*
X236136184Y-62649000D01*
X236303816Y-62649000D01*
X236468228Y-62681703D01*
G37*
G36*
X245358228Y-62681703D02*
G01*
X245513100Y-62745853D01*
X245652481Y-62838985D01*
X245771015Y-62957519D01*
X245864147Y-63096900D01*
X245928297Y-63251772D01*
X245961000Y-63416184D01*
X245961000Y-63583816D01*
X245928297Y-63748228D01*
X245864147Y-63903100D01*
X245771015Y-64042481D01*
X245652481Y-64161015D01*
X245513100Y-64254147D01*
X245358228Y-64318297D01*
X245193816Y-64351000D01*
X245026184Y-64351000D01*
X244861772Y-64318297D01*
X244706900Y-64254147D01*
X244567519Y-64161015D01*
X244448985Y-64042481D01*
X244355853Y-63903100D01*
X244291703Y-63748228D01*
X244259000Y-63583816D01*
X244259000Y-63416184D01*
X244291703Y-63251772D01*
X244355853Y-63096900D01*
X244448985Y-62957519D01*
X244567519Y-62838985D01*
X244706900Y-62745853D01*
X244861772Y-62681703D01*
X245026184Y-62649000D01*
X245193816Y-62649000D01*
X245358228Y-62681703D01*
G37*
G36*
X252978228Y-62681703D02*
G01*
X253133100Y-62745853D01*
X253272481Y-62838985D01*
X253391015Y-62957519D01*
X253484147Y-63096900D01*
X253548297Y-63251772D01*
X253581000Y-63416184D01*
X253581000Y-63583816D01*
X253548297Y-63748228D01*
X253484147Y-63903100D01*
X253391015Y-64042481D01*
X253272481Y-64161015D01*
X253133100Y-64254147D01*
X252978228Y-64318297D01*
X252813816Y-64351000D01*
X252646184Y-64351000D01*
X252481772Y-64318297D01*
X252326900Y-64254147D01*
X252187519Y-64161015D01*
X252068985Y-64042481D01*
X251975853Y-63903100D01*
X251911703Y-63748228D01*
X251879000Y-63583816D01*
X251879000Y-63416184D01*
X251911703Y-63251772D01*
X251975853Y-63096900D01*
X252068985Y-62957519D01*
X252187519Y-62838985D01*
X252326900Y-62745853D01*
X252481772Y-62681703D01*
X252646184Y-62649000D01*
X252813816Y-62649000D01*
X252978228Y-62681703D01*
G37*
G36*
X218728228Y-60776703D02*
G01*
X218883100Y-60840853D01*
X219022481Y-60933985D01*
X219141015Y-61052519D01*
X219234147Y-61191900D01*
X219298297Y-61346772D01*
X219331000Y-61511184D01*
X219331000Y-61678816D01*
X219298297Y-61843228D01*
X219234147Y-61998100D01*
X219141015Y-62137481D01*
X219022481Y-62256015D01*
X218883100Y-62349147D01*
X218728228Y-62413297D01*
X218563816Y-62446000D01*
X218396184Y-62446000D01*
X218231772Y-62413297D01*
X218076900Y-62349147D01*
X217937519Y-62256015D01*
X217818985Y-62137481D01*
X217725853Y-61998100D01*
X217661703Y-61843228D01*
X217629000Y-61678816D01*
X217629000Y-61511184D01*
X217661703Y-61346772D01*
X217725853Y-61191900D01*
X217818985Y-61052519D01*
X217937519Y-60933985D01*
X218076900Y-60840853D01*
X218231772Y-60776703D01*
X218396184Y-60744000D01*
X218563816Y-60744000D01*
X218728228Y-60776703D01*
G37*
G36*
X200908228Y-60776703D02*
G01*
X201063100Y-60840853D01*
X201202481Y-60933985D01*
X201321015Y-61052519D01*
X201414147Y-61191900D01*
X201478297Y-61346772D01*
X201511000Y-61511184D01*
X201511000Y-61678816D01*
X201478297Y-61843228D01*
X201414147Y-61998100D01*
X201321015Y-62137481D01*
X201202481Y-62256015D01*
X201063100Y-62349147D01*
X200908228Y-62413297D01*
X200743816Y-62446000D01*
X200576184Y-62446000D01*
X200411772Y-62413297D01*
X200256900Y-62349147D01*
X200117519Y-62256015D01*
X199998985Y-62137481D01*
X199905853Y-61998100D01*
X199841703Y-61843228D01*
X199809000Y-61678816D01*
X199809000Y-61511184D01*
X199841703Y-61346772D01*
X199905853Y-61191900D01*
X199998985Y-61052519D01*
X200117519Y-60933985D01*
X200256900Y-60840853D01*
X200411772Y-60776703D01*
X200576184Y-60744000D01*
X200743816Y-60744000D01*
X200908228Y-60776703D01*
G37*
G36*
X203408228Y-60776703D02*
G01*
X203563100Y-60840853D01*
X203702481Y-60933985D01*
X203821015Y-61052519D01*
X203914147Y-61191900D01*
X203978297Y-61346772D01*
X204011000Y-61511184D01*
X204011000Y-61678816D01*
X203978297Y-61843228D01*
X203914147Y-61998100D01*
X203821015Y-62137481D01*
X203702481Y-62256015D01*
X203563100Y-62349147D01*
X203408228Y-62413297D01*
X203243816Y-62446000D01*
X203076184Y-62446000D01*
X202911772Y-62413297D01*
X202756900Y-62349147D01*
X202617519Y-62256015D01*
X202498985Y-62137481D01*
X202405853Y-61998100D01*
X202341703Y-61843228D01*
X202309000Y-61678816D01*
X202309000Y-61511184D01*
X202341703Y-61346772D01*
X202405853Y-61191900D01*
X202498985Y-61052519D01*
X202617519Y-60933985D01*
X202756900Y-60840853D01*
X202911772Y-60776703D01*
X203076184Y-60744000D01*
X203243816Y-60744000D01*
X203408228Y-60776703D01*
G37*
G36*
X175508228Y-60776703D02*
G01*
X175663100Y-60840853D01*
X175802481Y-60933985D01*
X175921015Y-61052519D01*
X176014147Y-61191900D01*
X176078297Y-61346772D01*
X176111000Y-61511184D01*
X176111000Y-61678816D01*
X176078297Y-61843228D01*
X176014147Y-61998100D01*
X175921015Y-62137481D01*
X175802481Y-62256015D01*
X175663100Y-62349147D01*
X175508228Y-62413297D01*
X175343816Y-62446000D01*
X175176184Y-62446000D01*
X175011772Y-62413297D01*
X174856900Y-62349147D01*
X174717519Y-62256015D01*
X174598985Y-62137481D01*
X174505853Y-61998100D01*
X174441703Y-61843228D01*
X174409000Y-61678816D01*
X174409000Y-61511184D01*
X174441703Y-61346772D01*
X174505853Y-61191900D01*
X174598985Y-61052519D01*
X174717519Y-60933985D01*
X174856900Y-60840853D01*
X175011772Y-60776703D01*
X175176184Y-60744000D01*
X175343816Y-60744000D01*
X175508228Y-60776703D01*
G37*
G36*
X213568228Y-60776703D02*
G01*
X213723100Y-60840853D01*
X213862481Y-60933985D01*
X213981015Y-61052519D01*
X214074147Y-61191900D01*
X214138297Y-61346772D01*
X214171000Y-61511184D01*
X214171000Y-61678816D01*
X214138297Y-61843228D01*
X214074147Y-61998100D01*
X213981015Y-62137481D01*
X213862481Y-62256015D01*
X213723100Y-62349147D01*
X213568228Y-62413297D01*
X213403816Y-62446000D01*
X213236184Y-62446000D01*
X213071772Y-62413297D01*
X212916900Y-62349147D01*
X212777519Y-62256015D01*
X212658985Y-62137481D01*
X212565853Y-61998100D01*
X212501703Y-61843228D01*
X212469000Y-61678816D01*
X212469000Y-61511184D01*
X212501703Y-61346772D01*
X212565853Y-61191900D01*
X212658985Y-61052519D01*
X212777519Y-60933985D01*
X212916900Y-60840853D01*
X213071772Y-60776703D01*
X213236184Y-60744000D01*
X213403816Y-60744000D01*
X213568228Y-60776703D01*
G37*
G36*
X211068228Y-60776703D02*
G01*
X211223100Y-60840853D01*
X211362481Y-60933985D01*
X211481015Y-61052519D01*
X211574147Y-61191900D01*
X211638297Y-61346772D01*
X211671000Y-61511184D01*
X211671000Y-61678816D01*
X211638297Y-61843228D01*
X211574147Y-61998100D01*
X211481015Y-62137481D01*
X211362481Y-62256015D01*
X211223100Y-62349147D01*
X211068228Y-62413297D01*
X210903816Y-62446000D01*
X210736184Y-62446000D01*
X210571772Y-62413297D01*
X210416900Y-62349147D01*
X210277519Y-62256015D01*
X210158985Y-62137481D01*
X210065853Y-61998100D01*
X210001703Y-61843228D01*
X209969000Y-61678816D01*
X209969000Y-61511184D01*
X210001703Y-61346772D01*
X210065853Y-61191900D01*
X210158985Y-61052519D01*
X210277519Y-60933985D01*
X210416900Y-60840853D01*
X210571772Y-60776703D01*
X210736184Y-60744000D01*
X210903816Y-60744000D01*
X211068228Y-60776703D01*
G37*
G36*
X221228228Y-60776703D02*
G01*
X221383100Y-60840853D01*
X221522481Y-60933985D01*
X221641015Y-61052519D01*
X221734147Y-61191900D01*
X221798297Y-61346772D01*
X221831000Y-61511184D01*
X221831000Y-61678816D01*
X221798297Y-61843228D01*
X221734147Y-61998100D01*
X221641015Y-62137481D01*
X221522481Y-62256015D01*
X221383100Y-62349147D01*
X221228228Y-62413297D01*
X221063816Y-62446000D01*
X220896184Y-62446000D01*
X220731772Y-62413297D01*
X220576900Y-62349147D01*
X220437519Y-62256015D01*
X220318985Y-62137481D01*
X220225853Y-61998100D01*
X220161703Y-61843228D01*
X220129000Y-61678816D01*
X220129000Y-61511184D01*
X220161703Y-61346772D01*
X220225853Y-61191900D01*
X220318985Y-61052519D01*
X220437519Y-60933985D01*
X220576900Y-60840853D01*
X220731772Y-60776703D01*
X220896184Y-60744000D01*
X221063816Y-60744000D01*
X221228228Y-60776703D01*
G37*
G36*
X178008228Y-60776703D02*
G01*
X178163100Y-60840853D01*
X178302481Y-60933985D01*
X178421015Y-61052519D01*
X178514147Y-61191900D01*
X178578297Y-61346772D01*
X178611000Y-61511184D01*
X178611000Y-61678816D01*
X178578297Y-61843228D01*
X178514147Y-61998100D01*
X178421015Y-62137481D01*
X178302481Y-62256015D01*
X178163100Y-62349147D01*
X178008228Y-62413297D01*
X177843816Y-62446000D01*
X177676184Y-62446000D01*
X177511772Y-62413297D01*
X177356900Y-62349147D01*
X177217519Y-62256015D01*
X177098985Y-62137481D01*
X177005853Y-61998100D01*
X176941703Y-61843228D01*
X176909000Y-61678816D01*
X176909000Y-61511184D01*
X176941703Y-61346772D01*
X177005853Y-61191900D01*
X177098985Y-61052519D01*
X177217519Y-60933985D01*
X177356900Y-60840853D01*
X177511772Y-60776703D01*
X177676184Y-60744000D01*
X177843816Y-60744000D01*
X178008228Y-60776703D01*
G37*
G36*
X183168228Y-60776703D02*
G01*
X183323100Y-60840853D01*
X183462481Y-60933985D01*
X183581015Y-61052519D01*
X183674147Y-61191900D01*
X183738297Y-61346772D01*
X183771000Y-61511184D01*
X183771000Y-61678816D01*
X183738297Y-61843228D01*
X183674147Y-61998100D01*
X183581015Y-62137481D01*
X183462481Y-62256015D01*
X183323100Y-62349147D01*
X183168228Y-62413297D01*
X183003816Y-62446000D01*
X182836184Y-62446000D01*
X182671772Y-62413297D01*
X182516900Y-62349147D01*
X182377519Y-62256015D01*
X182258985Y-62137481D01*
X182165853Y-61998100D01*
X182101703Y-61843228D01*
X182069000Y-61678816D01*
X182069000Y-61511184D01*
X182101703Y-61346772D01*
X182165853Y-61191900D01*
X182258985Y-61052519D01*
X182377519Y-60933985D01*
X182516900Y-60840853D01*
X182671772Y-60776703D01*
X182836184Y-60744000D01*
X183003816Y-60744000D01*
X183168228Y-60776703D01*
G37*
G36*
X185668228Y-60776703D02*
G01*
X185823100Y-60840853D01*
X185962481Y-60933985D01*
X186081015Y-61052519D01*
X186174147Y-61191900D01*
X186238297Y-61346772D01*
X186271000Y-61511184D01*
X186271000Y-61678816D01*
X186238297Y-61843228D01*
X186174147Y-61998100D01*
X186081015Y-62137481D01*
X185962481Y-62256015D01*
X185823100Y-62349147D01*
X185668228Y-62413297D01*
X185503816Y-62446000D01*
X185336184Y-62446000D01*
X185171772Y-62413297D01*
X185016900Y-62349147D01*
X184877519Y-62256015D01*
X184758985Y-62137481D01*
X184665853Y-61998100D01*
X184601703Y-61843228D01*
X184569000Y-61678816D01*
X184569000Y-61511184D01*
X184601703Y-61346772D01*
X184665853Y-61191900D01*
X184758985Y-61052519D01*
X184877519Y-60933985D01*
X185016900Y-60840853D01*
X185171772Y-60776703D01*
X185336184Y-60744000D01*
X185503816Y-60744000D01*
X185668228Y-60776703D01*
G37*
G36*
X193288228Y-60776703D02*
G01*
X193443100Y-60840853D01*
X193582481Y-60933985D01*
X193701015Y-61052519D01*
X193794147Y-61191900D01*
X193858297Y-61346772D01*
X193891000Y-61511184D01*
X193891000Y-61678816D01*
X193858297Y-61843228D01*
X193794147Y-61998100D01*
X193701015Y-62137481D01*
X193582481Y-62256015D01*
X193443100Y-62349147D01*
X193288228Y-62413297D01*
X193123816Y-62446000D01*
X192956184Y-62446000D01*
X192791772Y-62413297D01*
X192636900Y-62349147D01*
X192497519Y-62256015D01*
X192378985Y-62137481D01*
X192285853Y-61998100D01*
X192221703Y-61843228D01*
X192189000Y-61678816D01*
X192189000Y-61511184D01*
X192221703Y-61346772D01*
X192285853Y-61191900D01*
X192378985Y-61052519D01*
X192497519Y-60933985D01*
X192636900Y-60840853D01*
X192791772Y-60776703D01*
X192956184Y-60744000D01*
X193123816Y-60744000D01*
X193288228Y-60776703D01*
G37*
G36*
X195788228Y-60776703D02*
G01*
X195943100Y-60840853D01*
X196082481Y-60933985D01*
X196201015Y-61052519D01*
X196294147Y-61191900D01*
X196358297Y-61346772D01*
X196391000Y-61511184D01*
X196391000Y-61678816D01*
X196358297Y-61843228D01*
X196294147Y-61998100D01*
X196201015Y-62137481D01*
X196082481Y-62256015D01*
X195943100Y-62349147D01*
X195788228Y-62413297D01*
X195623816Y-62446000D01*
X195456184Y-62446000D01*
X195291772Y-62413297D01*
X195136900Y-62349147D01*
X194997519Y-62256015D01*
X194878985Y-62137481D01*
X194785853Y-61998100D01*
X194721703Y-61843228D01*
X194689000Y-61678816D01*
X194689000Y-61511184D01*
X194721703Y-61346772D01*
X194785853Y-61191900D01*
X194878985Y-61052519D01*
X194997519Y-60933985D01*
X195136900Y-60840853D01*
X195291772Y-60776703D01*
X195456184Y-60744000D01*
X195623816Y-60744000D01*
X195788228Y-60776703D01*
G37*
G36*
X262521000Y-61861000D02*
G01*
X260719000Y-61861000D01*
X260719000Y-60059000D01*
X262521000Y-60059000D01*
X262521000Y-61861000D01*
G37*
G36*
X236468228Y-60141703D02*
G01*
X236623100Y-60205853D01*
X236762481Y-60298985D01*
X236881015Y-60417519D01*
X236974147Y-60556900D01*
X237038297Y-60711772D01*
X237071000Y-60876184D01*
X237071000Y-61043816D01*
X237038297Y-61208228D01*
X236974147Y-61363100D01*
X236881015Y-61502481D01*
X236762481Y-61621015D01*
X236623100Y-61714147D01*
X236468228Y-61778297D01*
X236303816Y-61811000D01*
X236136184Y-61811000D01*
X235971772Y-61778297D01*
X235816900Y-61714147D01*
X235677519Y-61621015D01*
X235558985Y-61502481D01*
X235465853Y-61363100D01*
X235401703Y-61208228D01*
X235369000Y-61043816D01*
X235369000Y-60876184D01*
X235401703Y-60711772D01*
X235465853Y-60556900D01*
X235558985Y-60417519D01*
X235677519Y-60298985D01*
X235816900Y-60205853D01*
X235971772Y-60141703D01*
X236136184Y-60109000D01*
X236303816Y-60109000D01*
X236468228Y-60141703D01*
G37*
G36*
X228848228Y-60141703D02*
G01*
X229003100Y-60205853D01*
X229142481Y-60298985D01*
X229261015Y-60417519D01*
X229354147Y-60556900D01*
X229418297Y-60711772D01*
X229451000Y-60876184D01*
X229451000Y-61043816D01*
X229418297Y-61208228D01*
X229354147Y-61363100D01*
X229261015Y-61502481D01*
X229142481Y-61621015D01*
X229003100Y-61714147D01*
X228848228Y-61778297D01*
X228683816Y-61811000D01*
X228516184Y-61811000D01*
X228351772Y-61778297D01*
X228196900Y-61714147D01*
X228057519Y-61621015D01*
X227938985Y-61502481D01*
X227845853Y-61363100D01*
X227781703Y-61208228D01*
X227749000Y-61043816D01*
X227749000Y-60876184D01*
X227781703Y-60711772D01*
X227845853Y-60556900D01*
X227938985Y-60417519D01*
X228057519Y-60298985D01*
X228196900Y-60205853D01*
X228351772Y-60141703D01*
X228516184Y-60109000D01*
X228683816Y-60109000D01*
X228848228Y-60141703D01*
G37*
G36*
X252978228Y-60141703D02*
G01*
X253133100Y-60205853D01*
X253272481Y-60298985D01*
X253391015Y-60417519D01*
X253484147Y-60556900D01*
X253548297Y-60711772D01*
X253581000Y-60876184D01*
X253581000Y-61043816D01*
X253548297Y-61208228D01*
X253484147Y-61363100D01*
X253391015Y-61502481D01*
X253272481Y-61621015D01*
X253133100Y-61714147D01*
X252978228Y-61778297D01*
X252813816Y-61811000D01*
X252646184Y-61811000D01*
X252481772Y-61778297D01*
X252326900Y-61714147D01*
X252187519Y-61621015D01*
X252068985Y-61502481D01*
X251975853Y-61363100D01*
X251911703Y-61208228D01*
X251879000Y-61043816D01*
X251879000Y-60876184D01*
X251911703Y-60711772D01*
X251975853Y-60556900D01*
X252068985Y-60417519D01*
X252187519Y-60298985D01*
X252326900Y-60205853D01*
X252481772Y-60141703D01*
X252646184Y-60109000D01*
X252813816Y-60109000D01*
X252978228Y-60141703D01*
G37*
G36*
X245358228Y-60141703D02*
G01*
X245513100Y-60205853D01*
X245652481Y-60298985D01*
X245771015Y-60417519D01*
X245864147Y-60556900D01*
X245928297Y-60711772D01*
X245961000Y-60876184D01*
X245961000Y-61043816D01*
X245928297Y-61208228D01*
X245864147Y-61363100D01*
X245771015Y-61502481D01*
X245652481Y-61621015D01*
X245513100Y-61714147D01*
X245358228Y-61778297D01*
X245193816Y-61811000D01*
X245026184Y-61811000D01*
X244861772Y-61778297D01*
X244706900Y-61714147D01*
X244567519Y-61621015D01*
X244448985Y-61502481D01*
X244355853Y-61363100D01*
X244291703Y-61208228D01*
X244259000Y-61043816D01*
X244259000Y-60876184D01*
X244291703Y-60711772D01*
X244355853Y-60556900D01*
X244448985Y-60417519D01*
X244567519Y-60298985D01*
X244706900Y-60205853D01*
X244861772Y-60141703D01*
X245026184Y-60109000D01*
X245193816Y-60109000D01*
X245358228Y-60141703D01*
G37*
G36*
X261733512Y-57523927D02*
G01*
X261882812Y-57553624D01*
X262046784Y-57621544D01*
X262194354Y-57720147D01*
X262319853Y-57845646D01*
X262418456Y-57993216D01*
X262486376Y-58157188D01*
X262521000Y-58331259D01*
X262521000Y-58508741D01*
X262486376Y-58682812D01*
X262418456Y-58846784D01*
X262319853Y-58994354D01*
X262194354Y-59119853D01*
X262046784Y-59218456D01*
X261882812Y-59286376D01*
X261733512Y-59316073D01*
X261708742Y-59321000D01*
X261531258Y-59321000D01*
X261506488Y-59316073D01*
X261357188Y-59286376D01*
X261193216Y-59218456D01*
X261045646Y-59119853D01*
X260920147Y-58994354D01*
X260821544Y-58846784D01*
X260753624Y-58682812D01*
X260719000Y-58508741D01*
X260719000Y-58331259D01*
X260753624Y-58157188D01*
X260821544Y-57993216D01*
X260920147Y-57845646D01*
X261045646Y-57720147D01*
X261193216Y-57621544D01*
X261357188Y-57553624D01*
X261506488Y-57523927D01*
X261531258Y-57519000D01*
X261708742Y-57519000D01*
X261733512Y-57523927D01*
G37*
G36*
X236468228Y-57601703D02*
G01*
X236623100Y-57665853D01*
X236762481Y-57758985D01*
X236881015Y-57877519D01*
X236974147Y-58016900D01*
X237038297Y-58171772D01*
X237071000Y-58336184D01*
X237071000Y-58503816D01*
X237038297Y-58668228D01*
X236974147Y-58823100D01*
X236881015Y-58962481D01*
X236762481Y-59081015D01*
X236623100Y-59174147D01*
X236468228Y-59238297D01*
X236303816Y-59271000D01*
X236136184Y-59271000D01*
X235971772Y-59238297D01*
X235816900Y-59174147D01*
X235677519Y-59081015D01*
X235558985Y-58962481D01*
X235465853Y-58823100D01*
X235401703Y-58668228D01*
X235369000Y-58503816D01*
X235369000Y-58336184D01*
X235401703Y-58171772D01*
X235465853Y-58016900D01*
X235558985Y-57877519D01*
X235677519Y-57758985D01*
X235816900Y-57665853D01*
X235971772Y-57601703D01*
X236136184Y-57569000D01*
X236303816Y-57569000D01*
X236468228Y-57601703D01*
G37*
G36*
X228848228Y-57601703D02*
G01*
X229003100Y-57665853D01*
X229142481Y-57758985D01*
X229261015Y-57877519D01*
X229354147Y-58016900D01*
X229418297Y-58171772D01*
X229451000Y-58336184D01*
X229451000Y-58503816D01*
X229418297Y-58668228D01*
X229354147Y-58823100D01*
X229261015Y-58962481D01*
X229142481Y-59081015D01*
X229003100Y-59174147D01*
X228848228Y-59238297D01*
X228683816Y-59271000D01*
X228516184Y-59271000D01*
X228351772Y-59238297D01*
X228196900Y-59174147D01*
X228057519Y-59081015D01*
X227938985Y-58962481D01*
X227845853Y-58823100D01*
X227781703Y-58668228D01*
X227749000Y-58503816D01*
X227749000Y-58336184D01*
X227781703Y-58171772D01*
X227845853Y-58016900D01*
X227938985Y-57877519D01*
X228057519Y-57758985D01*
X228196900Y-57665853D01*
X228351772Y-57601703D01*
X228516184Y-57569000D01*
X228683816Y-57569000D01*
X228848228Y-57601703D01*
G37*
G36*
X252978228Y-57601703D02*
G01*
X253133100Y-57665853D01*
X253272481Y-57758985D01*
X253391015Y-57877519D01*
X253484147Y-58016900D01*
X253548297Y-58171772D01*
X253581000Y-58336184D01*
X253581000Y-58503816D01*
X253548297Y-58668228D01*
X253484147Y-58823100D01*
X253391015Y-58962481D01*
X253272481Y-59081015D01*
X253133100Y-59174147D01*
X252978228Y-59238297D01*
X252813816Y-59271000D01*
X252646184Y-59271000D01*
X252481772Y-59238297D01*
X252326900Y-59174147D01*
X252187519Y-59081015D01*
X252068985Y-58962481D01*
X251975853Y-58823100D01*
X251911703Y-58668228D01*
X251879000Y-58503816D01*
X251879000Y-58336184D01*
X251911703Y-58171772D01*
X251975853Y-58016900D01*
X252068985Y-57877519D01*
X252187519Y-57758985D01*
X252326900Y-57665853D01*
X252481772Y-57601703D01*
X252646184Y-57569000D01*
X252813816Y-57569000D01*
X252978228Y-57601703D01*
G37*
G36*
X245358228Y-57601703D02*
G01*
X245513100Y-57665853D01*
X245652481Y-57758985D01*
X245771015Y-57877519D01*
X245864147Y-58016900D01*
X245928297Y-58171772D01*
X245961000Y-58336184D01*
X245961000Y-58503816D01*
X245928297Y-58668228D01*
X245864147Y-58823100D01*
X245771015Y-58962481D01*
X245652481Y-59081015D01*
X245513100Y-59174147D01*
X245358228Y-59238297D01*
X245193816Y-59271000D01*
X245026184Y-59271000D01*
X244861772Y-59238297D01*
X244706900Y-59174147D01*
X244567519Y-59081015D01*
X244448985Y-58962481D01*
X244355853Y-58823100D01*
X244291703Y-58668228D01*
X244259000Y-58503816D01*
X244259000Y-58336184D01*
X244291703Y-58171772D01*
X244355853Y-58016900D01*
X244448985Y-57877519D01*
X244567519Y-57758985D01*
X244706900Y-57665853D01*
X244861772Y-57601703D01*
X245026184Y-57569000D01*
X245193816Y-57569000D01*
X245358228Y-57601703D01*
G37*
G36*
X261733512Y-54983927D02*
G01*
X261882812Y-55013624D01*
X262046784Y-55081544D01*
X262194354Y-55180147D01*
X262319853Y-55305646D01*
X262418456Y-55453216D01*
X262486376Y-55617188D01*
X262521000Y-55791259D01*
X262521000Y-55968741D01*
X262486376Y-56142812D01*
X262418456Y-56306784D01*
X262319853Y-56454354D01*
X262194354Y-56579853D01*
X262046784Y-56678456D01*
X261882812Y-56746376D01*
X261733512Y-56776073D01*
X261708742Y-56781000D01*
X261531258Y-56781000D01*
X261506488Y-56776073D01*
X261357188Y-56746376D01*
X261193216Y-56678456D01*
X261045646Y-56579853D01*
X260920147Y-56454354D01*
X260821544Y-56306784D01*
X260753624Y-56142812D01*
X260719000Y-55968741D01*
X260719000Y-55791259D01*
X260753624Y-55617188D01*
X260821544Y-55453216D01*
X260920147Y-55305646D01*
X261045646Y-55180147D01*
X261193216Y-55081544D01*
X261357188Y-55013624D01*
X261506488Y-54983927D01*
X261531258Y-54979000D01*
X261708742Y-54979000D01*
X261733512Y-54983927D01*
G37*
G36*
X200908228Y-55061703D02*
G01*
X201063100Y-55125853D01*
X201202481Y-55218985D01*
X201321015Y-55337519D01*
X201414147Y-55476900D01*
X201478297Y-55631772D01*
X201511000Y-55796184D01*
X201511000Y-55963816D01*
X201478297Y-56128228D01*
X201414147Y-56283100D01*
X201321015Y-56422481D01*
X201202481Y-56541015D01*
X201063100Y-56634147D01*
X200908228Y-56698297D01*
X200743816Y-56731000D01*
X200576184Y-56731000D01*
X200411772Y-56698297D01*
X200256900Y-56634147D01*
X200117519Y-56541015D01*
X199998985Y-56422481D01*
X199905853Y-56283100D01*
X199841703Y-56128228D01*
X199809000Y-55963816D01*
X199809000Y-55796184D01*
X199841703Y-55631772D01*
X199905853Y-55476900D01*
X199998985Y-55337519D01*
X200117519Y-55218985D01*
X200256900Y-55125853D01*
X200411772Y-55061703D01*
X200576184Y-55029000D01*
X200743816Y-55029000D01*
X200908228Y-55061703D01*
G37*
G36*
X211068228Y-55061703D02*
G01*
X211223100Y-55125853D01*
X211362481Y-55218985D01*
X211481015Y-55337519D01*
X211574147Y-55476900D01*
X211638297Y-55631772D01*
X211671000Y-55796184D01*
X211671000Y-55963816D01*
X211638297Y-56128228D01*
X211574147Y-56283100D01*
X211481015Y-56422481D01*
X211362481Y-56541015D01*
X211223100Y-56634147D01*
X211068228Y-56698297D01*
X210903816Y-56731000D01*
X210736184Y-56731000D01*
X210571772Y-56698297D01*
X210416900Y-56634147D01*
X210277519Y-56541015D01*
X210158985Y-56422481D01*
X210065853Y-56283100D01*
X210001703Y-56128228D01*
X209969000Y-55963816D01*
X209969000Y-55796184D01*
X210001703Y-55631772D01*
X210065853Y-55476900D01*
X210158985Y-55337519D01*
X210277519Y-55218985D01*
X210416900Y-55125853D01*
X210571772Y-55061703D01*
X210736184Y-55029000D01*
X210903816Y-55029000D01*
X211068228Y-55061703D01*
G37*
G36*
X193288228Y-55061703D02*
G01*
X193443100Y-55125853D01*
X193582481Y-55218985D01*
X193701015Y-55337519D01*
X193794147Y-55476900D01*
X193858297Y-55631772D01*
X193891000Y-55796184D01*
X193891000Y-55963816D01*
X193858297Y-56128228D01*
X193794147Y-56283100D01*
X193701015Y-56422481D01*
X193582481Y-56541015D01*
X193443100Y-56634147D01*
X193288228Y-56698297D01*
X193123816Y-56731000D01*
X192956184Y-56731000D01*
X192791772Y-56698297D01*
X192636900Y-56634147D01*
X192497519Y-56541015D01*
X192378985Y-56422481D01*
X192285853Y-56283100D01*
X192221703Y-56128228D01*
X192189000Y-55963816D01*
X192189000Y-55796184D01*
X192221703Y-55631772D01*
X192285853Y-55476900D01*
X192378985Y-55337519D01*
X192497519Y-55218985D01*
X192636900Y-55125853D01*
X192791772Y-55061703D01*
X192956184Y-55029000D01*
X193123816Y-55029000D01*
X193288228Y-55061703D01*
G37*
G36*
X183128228Y-55061703D02*
G01*
X183283100Y-55125853D01*
X183422481Y-55218985D01*
X183541015Y-55337519D01*
X183634147Y-55476900D01*
X183698297Y-55631772D01*
X183731000Y-55796184D01*
X183731000Y-55963816D01*
X183698297Y-56128228D01*
X183634147Y-56283100D01*
X183541015Y-56422481D01*
X183422481Y-56541015D01*
X183283100Y-56634147D01*
X183128228Y-56698297D01*
X182963816Y-56731000D01*
X182796184Y-56731000D01*
X182631772Y-56698297D01*
X182476900Y-56634147D01*
X182337519Y-56541015D01*
X182218985Y-56422481D01*
X182125853Y-56283100D01*
X182061703Y-56128228D01*
X182029000Y-55963816D01*
X182029000Y-55796184D01*
X182061703Y-55631772D01*
X182125853Y-55476900D01*
X182218985Y-55337519D01*
X182337519Y-55218985D01*
X182476900Y-55125853D01*
X182631772Y-55061703D01*
X182796184Y-55029000D01*
X182963816Y-55029000D01*
X183128228Y-55061703D01*
G37*
G36*
X175508228Y-55061703D02*
G01*
X175663100Y-55125853D01*
X175802481Y-55218985D01*
X175921015Y-55337519D01*
X176014147Y-55476900D01*
X176078297Y-55631772D01*
X176111000Y-55796184D01*
X176111000Y-55963816D01*
X176078297Y-56128228D01*
X176014147Y-56283100D01*
X175921015Y-56422481D01*
X175802481Y-56541015D01*
X175663100Y-56634147D01*
X175508228Y-56698297D01*
X175343816Y-56731000D01*
X175176184Y-56731000D01*
X175011772Y-56698297D01*
X174856900Y-56634147D01*
X174717519Y-56541015D01*
X174598985Y-56422481D01*
X174505853Y-56283100D01*
X174441703Y-56128228D01*
X174409000Y-55963816D01*
X174409000Y-55796184D01*
X174441703Y-55631772D01*
X174505853Y-55476900D01*
X174598985Y-55337519D01*
X174717519Y-55218985D01*
X174856900Y-55125853D01*
X175011772Y-55061703D01*
X175176184Y-55029000D01*
X175343816Y-55029000D01*
X175508228Y-55061703D01*
G37*
G36*
X218688228Y-55061703D02*
G01*
X218843100Y-55125853D01*
X218982481Y-55218985D01*
X219101015Y-55337519D01*
X219194147Y-55476900D01*
X219258297Y-55631772D01*
X219291000Y-55796184D01*
X219291000Y-55963816D01*
X219258297Y-56128228D01*
X219194147Y-56283100D01*
X219101015Y-56422481D01*
X218982481Y-56541015D01*
X218843100Y-56634147D01*
X218688228Y-56698297D01*
X218523816Y-56731000D01*
X218356184Y-56731000D01*
X218191772Y-56698297D01*
X218036900Y-56634147D01*
X217897519Y-56541015D01*
X217778985Y-56422481D01*
X217685853Y-56283100D01*
X217621703Y-56128228D01*
X217589000Y-55963816D01*
X217589000Y-55796184D01*
X217621703Y-55631772D01*
X217685853Y-55476900D01*
X217778985Y-55337519D01*
X217897519Y-55218985D01*
X218036900Y-55125853D01*
X218191772Y-55061703D01*
X218356184Y-55029000D01*
X218523816Y-55029000D01*
X218688228Y-55061703D01*
G37*
G36*
X252978228Y-55061703D02*
G01*
X253133100Y-55125853D01*
X253272481Y-55218985D01*
X253391015Y-55337519D01*
X253484147Y-55476900D01*
X253548297Y-55631772D01*
X253581000Y-55796184D01*
X253581000Y-55963816D01*
X253548297Y-56128228D01*
X253484147Y-56283100D01*
X253391015Y-56422481D01*
X253272481Y-56541015D01*
X253133100Y-56634147D01*
X252978228Y-56698297D01*
X252813816Y-56731000D01*
X252646184Y-56731000D01*
X252481772Y-56698297D01*
X252326900Y-56634147D01*
X252187519Y-56541015D01*
X252068985Y-56422481D01*
X251975853Y-56283100D01*
X251911703Y-56128228D01*
X251879000Y-55963816D01*
X251879000Y-55796184D01*
X251911703Y-55631772D01*
X251975853Y-55476900D01*
X252068985Y-55337519D01*
X252187519Y-55218985D01*
X252326900Y-55125853D01*
X252481772Y-55061703D01*
X252646184Y-55029000D01*
X252813816Y-55029000D01*
X252978228Y-55061703D01*
G37*
G36*
X245358228Y-55061703D02*
G01*
X245513100Y-55125853D01*
X245652481Y-55218985D01*
X245771015Y-55337519D01*
X245864147Y-55476900D01*
X245928297Y-55631772D01*
X245961000Y-55796184D01*
X245961000Y-55963816D01*
X245928297Y-56128228D01*
X245864147Y-56283100D01*
X245771015Y-56422481D01*
X245652481Y-56541015D01*
X245513100Y-56634147D01*
X245358228Y-56698297D01*
X245193816Y-56731000D01*
X245026184Y-56731000D01*
X244861772Y-56698297D01*
X244706900Y-56634147D01*
X244567519Y-56541015D01*
X244448985Y-56422481D01*
X244355853Y-56283100D01*
X244291703Y-56128228D01*
X244259000Y-55963816D01*
X244259000Y-55796184D01*
X244291703Y-55631772D01*
X244355853Y-55476900D01*
X244448985Y-55337519D01*
X244567519Y-55218985D01*
X244706900Y-55125853D01*
X244861772Y-55061703D01*
X245026184Y-55029000D01*
X245193816Y-55029000D01*
X245358228Y-55061703D01*
G37*
G36*
X236468228Y-55061703D02*
G01*
X236623100Y-55125853D01*
X236762481Y-55218985D01*
X236881015Y-55337519D01*
X236974147Y-55476900D01*
X237038297Y-55631772D01*
X237071000Y-55796184D01*
X237071000Y-55963816D01*
X237038297Y-56128228D01*
X236974147Y-56283100D01*
X236881015Y-56422481D01*
X236762481Y-56541015D01*
X236623100Y-56634147D01*
X236468228Y-56698297D01*
X236303816Y-56731000D01*
X236136184Y-56731000D01*
X235971772Y-56698297D01*
X235816900Y-56634147D01*
X235677519Y-56541015D01*
X235558985Y-56422481D01*
X235465853Y-56283100D01*
X235401703Y-56128228D01*
X235369000Y-55963816D01*
X235369000Y-55796184D01*
X235401703Y-55631772D01*
X235465853Y-55476900D01*
X235558985Y-55337519D01*
X235677519Y-55218985D01*
X235816900Y-55125853D01*
X235971772Y-55061703D01*
X236136184Y-55029000D01*
X236303816Y-55029000D01*
X236468228Y-55061703D01*
G37*
G36*
X228848228Y-55061703D02*
G01*
X229003100Y-55125853D01*
X229142481Y-55218985D01*
X229261015Y-55337519D01*
X229354147Y-55476900D01*
X229418297Y-55631772D01*
X229451000Y-55796184D01*
X229451000Y-55963816D01*
X229418297Y-56128228D01*
X229354147Y-56283100D01*
X229261015Y-56422481D01*
X229142481Y-56541015D01*
X229003100Y-56634147D01*
X228848228Y-56698297D01*
X228683816Y-56731000D01*
X228516184Y-56731000D01*
X228351772Y-56698297D01*
X228196900Y-56634147D01*
X228057519Y-56541015D01*
X227938985Y-56422481D01*
X227845853Y-56283100D01*
X227781703Y-56128228D01*
X227749000Y-55963816D01*
X227749000Y-55796184D01*
X227781703Y-55631772D01*
X227845853Y-55476900D01*
X227938985Y-55337519D01*
X228057519Y-55218985D01*
X228196900Y-55125853D01*
X228351772Y-55061703D01*
X228516184Y-55029000D01*
X228683816Y-55029000D01*
X228848228Y-55061703D01*
G37*
G36*
X261733512Y-52443927D02*
G01*
X261882812Y-52473624D01*
X262046784Y-52541544D01*
X262194354Y-52640147D01*
X262319853Y-52765646D01*
X262418456Y-52913216D01*
X262486376Y-53077188D01*
X262521000Y-53251259D01*
X262521000Y-53428741D01*
X262486376Y-53602812D01*
X262418456Y-53766784D01*
X262319853Y-53914354D01*
X262194354Y-54039853D01*
X262046784Y-54138456D01*
X261882812Y-54206376D01*
X261733512Y-54236073D01*
X261708742Y-54241000D01*
X261531258Y-54241000D01*
X261506488Y-54236073D01*
X261357188Y-54206376D01*
X261193216Y-54138456D01*
X261045646Y-54039853D01*
X260920147Y-53914354D01*
X260821544Y-53766784D01*
X260753624Y-53602812D01*
X260719000Y-53428741D01*
X260719000Y-53251259D01*
X260753624Y-53077188D01*
X260821544Y-52913216D01*
X260920147Y-52765646D01*
X261045646Y-52640147D01*
X261193216Y-52541544D01*
X261357188Y-52473624D01*
X261506488Y-52443927D01*
X261531258Y-52439000D01*
X261708742Y-52439000D01*
X261733512Y-52443927D01*
G37*
G36*
X252978228Y-52521703D02*
G01*
X253133100Y-52585853D01*
X253272481Y-52678985D01*
X253391015Y-52797519D01*
X253484147Y-52936900D01*
X253548297Y-53091772D01*
X253581000Y-53256184D01*
X253581000Y-53423816D01*
X253548297Y-53588228D01*
X253484147Y-53743100D01*
X253391015Y-53882481D01*
X253272481Y-54001015D01*
X253133100Y-54094147D01*
X252978228Y-54158297D01*
X252813816Y-54191000D01*
X252646184Y-54191000D01*
X252481772Y-54158297D01*
X252326900Y-54094147D01*
X252187519Y-54001015D01*
X252068985Y-53882481D01*
X251975853Y-53743100D01*
X251911703Y-53588228D01*
X251879000Y-53423816D01*
X251879000Y-53256184D01*
X251911703Y-53091772D01*
X251975853Y-52936900D01*
X252068985Y-52797519D01*
X252187519Y-52678985D01*
X252326900Y-52585853D01*
X252481772Y-52521703D01*
X252646184Y-52489000D01*
X252813816Y-52489000D01*
X252978228Y-52521703D01*
G37*
G36*
X245358228Y-52521703D02*
G01*
X245513100Y-52585853D01*
X245652481Y-52678985D01*
X245771015Y-52797519D01*
X245864147Y-52936900D01*
X245928297Y-53091772D01*
X245961000Y-53256184D01*
X245961000Y-53423816D01*
X245928297Y-53588228D01*
X245864147Y-53743100D01*
X245771015Y-53882481D01*
X245652481Y-54001015D01*
X245513100Y-54094147D01*
X245358228Y-54158297D01*
X245193816Y-54191000D01*
X245026184Y-54191000D01*
X244861772Y-54158297D01*
X244706900Y-54094147D01*
X244567519Y-54001015D01*
X244448985Y-53882481D01*
X244355853Y-53743100D01*
X244291703Y-53588228D01*
X244259000Y-53423816D01*
X244259000Y-53256184D01*
X244291703Y-53091772D01*
X244355853Y-52936900D01*
X244448985Y-52797519D01*
X244567519Y-52678985D01*
X244706900Y-52585853D01*
X244861772Y-52521703D01*
X245026184Y-52489000D01*
X245193816Y-52489000D01*
X245358228Y-52521703D01*
G37*
G36*
X236468228Y-52521703D02*
G01*
X236623100Y-52585853D01*
X236762481Y-52678985D01*
X236881015Y-52797519D01*
X236974147Y-52936900D01*
X237038297Y-53091772D01*
X237071000Y-53256184D01*
X237071000Y-53423816D01*
X237038297Y-53588228D01*
X236974147Y-53743100D01*
X236881015Y-53882481D01*
X236762481Y-54001015D01*
X236623100Y-54094147D01*
X236468228Y-54158297D01*
X236303816Y-54191000D01*
X236136184Y-54191000D01*
X235971772Y-54158297D01*
X235816900Y-54094147D01*
X235677519Y-54001015D01*
X235558985Y-53882481D01*
X235465853Y-53743100D01*
X235401703Y-53588228D01*
X235369000Y-53423816D01*
X235369000Y-53256184D01*
X235401703Y-53091772D01*
X235465853Y-52936900D01*
X235558985Y-52797519D01*
X235677519Y-52678985D01*
X235816900Y-52585853D01*
X235971772Y-52521703D01*
X236136184Y-52489000D01*
X236303816Y-52489000D01*
X236468228Y-52521703D01*
G37*
G36*
X228848228Y-52521703D02*
G01*
X229003100Y-52585853D01*
X229142481Y-52678985D01*
X229261015Y-52797519D01*
X229354147Y-52936900D01*
X229418297Y-53091772D01*
X229451000Y-53256184D01*
X229451000Y-53423816D01*
X229418297Y-53588228D01*
X229354147Y-53743100D01*
X229261015Y-53882481D01*
X229142481Y-54001015D01*
X229003100Y-54094147D01*
X228848228Y-54158297D01*
X228683816Y-54191000D01*
X228516184Y-54191000D01*
X228351772Y-54158297D01*
X228196900Y-54094147D01*
X228057519Y-54001015D01*
X227938985Y-53882481D01*
X227845853Y-53743100D01*
X227781703Y-53588228D01*
X227749000Y-53423816D01*
X227749000Y-53256184D01*
X227781703Y-53091772D01*
X227845853Y-52936900D01*
X227938985Y-52797519D01*
X228057519Y-52678985D01*
X228196900Y-52585853D01*
X228351772Y-52521703D01*
X228516184Y-52489000D01*
X228683816Y-52489000D01*
X228848228Y-52521703D01*
G37*
G36*
X218688228Y-52521703D02*
G01*
X218843100Y-52585853D01*
X218982481Y-52678985D01*
X219101015Y-52797519D01*
X219194147Y-52936900D01*
X219258297Y-53091772D01*
X219291000Y-53256184D01*
X219291000Y-53423816D01*
X219258297Y-53588228D01*
X219194147Y-53743100D01*
X219101015Y-53882481D01*
X218982481Y-54001015D01*
X218843100Y-54094147D01*
X218688228Y-54158297D01*
X218523816Y-54191000D01*
X218356184Y-54191000D01*
X218191772Y-54158297D01*
X218036900Y-54094147D01*
X217897519Y-54001015D01*
X217778985Y-53882481D01*
X217685853Y-53743100D01*
X217621703Y-53588228D01*
X217589000Y-53423816D01*
X217589000Y-53256184D01*
X217621703Y-53091772D01*
X217685853Y-52936900D01*
X217778985Y-52797519D01*
X217897519Y-52678985D01*
X218036900Y-52585853D01*
X218191772Y-52521703D01*
X218356184Y-52489000D01*
X218523816Y-52489000D01*
X218688228Y-52521703D01*
G37*
G36*
X211068228Y-52521703D02*
G01*
X211223100Y-52585853D01*
X211362481Y-52678985D01*
X211481015Y-52797519D01*
X211574147Y-52936900D01*
X211638297Y-53091772D01*
X211671000Y-53256184D01*
X211671000Y-53423816D01*
X211638297Y-53588228D01*
X211574147Y-53743100D01*
X211481015Y-53882481D01*
X211362481Y-54001015D01*
X211223100Y-54094147D01*
X211068228Y-54158297D01*
X210903816Y-54191000D01*
X210736184Y-54191000D01*
X210571772Y-54158297D01*
X210416900Y-54094147D01*
X210277519Y-54001015D01*
X210158985Y-53882481D01*
X210065853Y-53743100D01*
X210001703Y-53588228D01*
X209969000Y-53423816D01*
X209969000Y-53256184D01*
X210001703Y-53091772D01*
X210065853Y-52936900D01*
X210158985Y-52797519D01*
X210277519Y-52678985D01*
X210416900Y-52585853D01*
X210571772Y-52521703D01*
X210736184Y-52489000D01*
X210903816Y-52489000D01*
X211068228Y-52521703D01*
G37*
G36*
X200908228Y-52521703D02*
G01*
X201063100Y-52585853D01*
X201202481Y-52678985D01*
X201321015Y-52797519D01*
X201414147Y-52936900D01*
X201478297Y-53091772D01*
X201511000Y-53256184D01*
X201511000Y-53423816D01*
X201478297Y-53588228D01*
X201414147Y-53743100D01*
X201321015Y-53882481D01*
X201202481Y-54001015D01*
X201063100Y-54094147D01*
X200908228Y-54158297D01*
X200743816Y-54191000D01*
X200576184Y-54191000D01*
X200411772Y-54158297D01*
X200256900Y-54094147D01*
X200117519Y-54001015D01*
X199998985Y-53882481D01*
X199905853Y-53743100D01*
X199841703Y-53588228D01*
X199809000Y-53423816D01*
X199809000Y-53256184D01*
X199841703Y-53091772D01*
X199905853Y-52936900D01*
X199998985Y-52797519D01*
X200117519Y-52678985D01*
X200256900Y-52585853D01*
X200411772Y-52521703D01*
X200576184Y-52489000D01*
X200743816Y-52489000D01*
X200908228Y-52521703D01*
G37*
G36*
X193288228Y-52521703D02*
G01*
X193443100Y-52585853D01*
X193582481Y-52678985D01*
X193701015Y-52797519D01*
X193794147Y-52936900D01*
X193858297Y-53091772D01*
X193891000Y-53256184D01*
X193891000Y-53423816D01*
X193858297Y-53588228D01*
X193794147Y-53743100D01*
X193701015Y-53882481D01*
X193582481Y-54001015D01*
X193443100Y-54094147D01*
X193288228Y-54158297D01*
X193123816Y-54191000D01*
X192956184Y-54191000D01*
X192791772Y-54158297D01*
X192636900Y-54094147D01*
X192497519Y-54001015D01*
X192378985Y-53882481D01*
X192285853Y-53743100D01*
X192221703Y-53588228D01*
X192189000Y-53423816D01*
X192189000Y-53256184D01*
X192221703Y-53091772D01*
X192285853Y-52936900D01*
X192378985Y-52797519D01*
X192497519Y-52678985D01*
X192636900Y-52585853D01*
X192791772Y-52521703D01*
X192956184Y-52489000D01*
X193123816Y-52489000D01*
X193288228Y-52521703D01*
G37*
G36*
X183128228Y-52521703D02*
G01*
X183283100Y-52585853D01*
X183422481Y-52678985D01*
X183541015Y-52797519D01*
X183634147Y-52936900D01*
X183698297Y-53091772D01*
X183731000Y-53256184D01*
X183731000Y-53423816D01*
X183698297Y-53588228D01*
X183634147Y-53743100D01*
X183541015Y-53882481D01*
X183422481Y-54001015D01*
X183283100Y-54094147D01*
X183128228Y-54158297D01*
X182963816Y-54191000D01*
X182796184Y-54191000D01*
X182631772Y-54158297D01*
X182476900Y-54094147D01*
X182337519Y-54001015D01*
X182218985Y-53882481D01*
X182125853Y-53743100D01*
X182061703Y-53588228D01*
X182029000Y-53423816D01*
X182029000Y-53256184D01*
X182061703Y-53091772D01*
X182125853Y-52936900D01*
X182218985Y-52797519D01*
X182337519Y-52678985D01*
X182476900Y-52585853D01*
X182631772Y-52521703D01*
X182796184Y-52489000D01*
X182963816Y-52489000D01*
X183128228Y-52521703D01*
G37*
G36*
X175508228Y-52521703D02*
G01*
X175663100Y-52585853D01*
X175802481Y-52678985D01*
X175921015Y-52797519D01*
X176014147Y-52936900D01*
X176078297Y-53091772D01*
X176111000Y-53256184D01*
X176111000Y-53423816D01*
X176078297Y-53588228D01*
X176014147Y-53743100D01*
X175921015Y-53882481D01*
X175802481Y-54001015D01*
X175663100Y-54094147D01*
X175508228Y-54158297D01*
X175343816Y-54191000D01*
X175176184Y-54191000D01*
X175011772Y-54158297D01*
X174856900Y-54094147D01*
X174717519Y-54001015D01*
X174598985Y-53882481D01*
X174505853Y-53743100D01*
X174441703Y-53588228D01*
X174409000Y-53423816D01*
X174409000Y-53256184D01*
X174441703Y-53091772D01*
X174505853Y-52936900D01*
X174598985Y-52797519D01*
X174717519Y-52678985D01*
X174856900Y-52585853D01*
X175011772Y-52521703D01*
X175176184Y-52489000D01*
X175343816Y-52489000D01*
X175508228Y-52521703D01*
G37*
G36*
X261733512Y-49903927D02*
G01*
X261882812Y-49933624D01*
X262046784Y-50001544D01*
X262194354Y-50100147D01*
X262319853Y-50225646D01*
X262418456Y-50373216D01*
X262486376Y-50537188D01*
X262521000Y-50711259D01*
X262521000Y-50888741D01*
X262486376Y-51062812D01*
X262418456Y-51226784D01*
X262319853Y-51374354D01*
X262194354Y-51499853D01*
X262046784Y-51598456D01*
X261882812Y-51666376D01*
X261733512Y-51696073D01*
X261708742Y-51701000D01*
X261531258Y-51701000D01*
X261506488Y-51696073D01*
X261357188Y-51666376D01*
X261193216Y-51598456D01*
X261045646Y-51499853D01*
X260920147Y-51374354D01*
X260821544Y-51226784D01*
X260753624Y-51062812D01*
X260719000Y-50888741D01*
X260719000Y-50711259D01*
X260753624Y-50537188D01*
X260821544Y-50373216D01*
X260920147Y-50225646D01*
X261045646Y-50100147D01*
X261193216Y-50001544D01*
X261357188Y-49933624D01*
X261506488Y-49903927D01*
X261531258Y-49899000D01*
X261708742Y-49899000D01*
X261733512Y-49903927D01*
G37*
G36*
X252978228Y-49981703D02*
G01*
X253133100Y-50045853D01*
X253272481Y-50138985D01*
X253391015Y-50257519D01*
X253484147Y-50396900D01*
X253548297Y-50551772D01*
X253581000Y-50716184D01*
X253581000Y-50883816D01*
X253548297Y-51048228D01*
X253484147Y-51203100D01*
X253391015Y-51342481D01*
X253272481Y-51461015D01*
X253133100Y-51554147D01*
X252978228Y-51618297D01*
X252813816Y-51651000D01*
X252646184Y-51651000D01*
X252481772Y-51618297D01*
X252326900Y-51554147D01*
X252187519Y-51461015D01*
X252068985Y-51342481D01*
X251975853Y-51203100D01*
X251911703Y-51048228D01*
X251879000Y-50883816D01*
X251879000Y-50716184D01*
X251911703Y-50551772D01*
X251975853Y-50396900D01*
X252068985Y-50257519D01*
X252187519Y-50138985D01*
X252326900Y-50045853D01*
X252481772Y-49981703D01*
X252646184Y-49949000D01*
X252813816Y-49949000D01*
X252978228Y-49981703D01*
G37*
G36*
X245358228Y-49981703D02*
G01*
X245513100Y-50045853D01*
X245652481Y-50138985D01*
X245771015Y-50257519D01*
X245864147Y-50396900D01*
X245928297Y-50551772D01*
X245961000Y-50716184D01*
X245961000Y-50883816D01*
X245928297Y-51048228D01*
X245864147Y-51203100D01*
X245771015Y-51342481D01*
X245652481Y-51461015D01*
X245513100Y-51554147D01*
X245358228Y-51618297D01*
X245193816Y-51651000D01*
X245026184Y-51651000D01*
X244861772Y-51618297D01*
X244706900Y-51554147D01*
X244567519Y-51461015D01*
X244448985Y-51342481D01*
X244355853Y-51203100D01*
X244291703Y-51048228D01*
X244259000Y-50883816D01*
X244259000Y-50716184D01*
X244291703Y-50551772D01*
X244355853Y-50396900D01*
X244448985Y-50257519D01*
X244567519Y-50138985D01*
X244706900Y-50045853D01*
X244861772Y-49981703D01*
X245026184Y-49949000D01*
X245193816Y-49949000D01*
X245358228Y-49981703D01*
G37*
G36*
X236468228Y-49981703D02*
G01*
X236623100Y-50045853D01*
X236762481Y-50138985D01*
X236881015Y-50257519D01*
X236974147Y-50396900D01*
X237038297Y-50551772D01*
X237071000Y-50716184D01*
X237071000Y-50883816D01*
X237038297Y-51048228D01*
X236974147Y-51203100D01*
X236881015Y-51342481D01*
X236762481Y-51461015D01*
X236623100Y-51554147D01*
X236468228Y-51618297D01*
X236303816Y-51651000D01*
X236136184Y-51651000D01*
X235971772Y-51618297D01*
X235816900Y-51554147D01*
X235677519Y-51461015D01*
X235558985Y-51342481D01*
X235465853Y-51203100D01*
X235401703Y-51048228D01*
X235369000Y-50883816D01*
X235369000Y-50716184D01*
X235401703Y-50551772D01*
X235465853Y-50396900D01*
X235558985Y-50257519D01*
X235677519Y-50138985D01*
X235816900Y-50045853D01*
X235971772Y-49981703D01*
X236136184Y-49949000D01*
X236303816Y-49949000D01*
X236468228Y-49981703D01*
G37*
G36*
X228848228Y-49981703D02*
G01*
X229003100Y-50045853D01*
X229142481Y-50138985D01*
X229261015Y-50257519D01*
X229354147Y-50396900D01*
X229418297Y-50551772D01*
X229451000Y-50716184D01*
X229451000Y-50883816D01*
X229418297Y-51048228D01*
X229354147Y-51203100D01*
X229261015Y-51342481D01*
X229142481Y-51461015D01*
X229003100Y-51554147D01*
X228848228Y-51618297D01*
X228683816Y-51651000D01*
X228516184Y-51651000D01*
X228351772Y-51618297D01*
X228196900Y-51554147D01*
X228057519Y-51461015D01*
X227938985Y-51342481D01*
X227845853Y-51203100D01*
X227781703Y-51048228D01*
X227749000Y-50883816D01*
X227749000Y-50716184D01*
X227781703Y-50551772D01*
X227845853Y-50396900D01*
X227938985Y-50257519D01*
X228057519Y-50138985D01*
X228196900Y-50045853D01*
X228351772Y-49981703D01*
X228516184Y-49949000D01*
X228683816Y-49949000D01*
X228848228Y-49981703D01*
G37*
G36*
X218688228Y-49981703D02*
G01*
X218843100Y-50045853D01*
X218982481Y-50138985D01*
X219101015Y-50257519D01*
X219194147Y-50396900D01*
X219258297Y-50551772D01*
X219291000Y-50716184D01*
X219291000Y-50883816D01*
X219258297Y-51048228D01*
X219194147Y-51203100D01*
X219101015Y-51342481D01*
X218982481Y-51461015D01*
X218843100Y-51554147D01*
X218688228Y-51618297D01*
X218523816Y-51651000D01*
X218356184Y-51651000D01*
X218191772Y-51618297D01*
X218036900Y-51554147D01*
X217897519Y-51461015D01*
X217778985Y-51342481D01*
X217685853Y-51203100D01*
X217621703Y-51048228D01*
X217589000Y-50883816D01*
X217589000Y-50716184D01*
X217621703Y-50551772D01*
X217685853Y-50396900D01*
X217778985Y-50257519D01*
X217897519Y-50138985D01*
X218036900Y-50045853D01*
X218191772Y-49981703D01*
X218356184Y-49949000D01*
X218523816Y-49949000D01*
X218688228Y-49981703D01*
G37*
G36*
X211068228Y-49981703D02*
G01*
X211223100Y-50045853D01*
X211362481Y-50138985D01*
X211481015Y-50257519D01*
X211574147Y-50396900D01*
X211638297Y-50551772D01*
X211671000Y-50716184D01*
X211671000Y-50883816D01*
X211638297Y-51048228D01*
X211574147Y-51203100D01*
X211481015Y-51342481D01*
X211362481Y-51461015D01*
X211223100Y-51554147D01*
X211068228Y-51618297D01*
X210903816Y-51651000D01*
X210736184Y-51651000D01*
X210571772Y-51618297D01*
X210416900Y-51554147D01*
X210277519Y-51461015D01*
X210158985Y-51342481D01*
X210065853Y-51203100D01*
X210001703Y-51048228D01*
X209969000Y-50883816D01*
X209969000Y-50716184D01*
X210001703Y-50551772D01*
X210065853Y-50396900D01*
X210158985Y-50257519D01*
X210277519Y-50138985D01*
X210416900Y-50045853D01*
X210571772Y-49981703D01*
X210736184Y-49949000D01*
X210903816Y-49949000D01*
X211068228Y-49981703D01*
G37*
G36*
X200908228Y-49981703D02*
G01*
X201063100Y-50045853D01*
X201202481Y-50138985D01*
X201321015Y-50257519D01*
X201414147Y-50396900D01*
X201478297Y-50551772D01*
X201511000Y-50716184D01*
X201511000Y-50883816D01*
X201478297Y-51048228D01*
X201414147Y-51203100D01*
X201321015Y-51342481D01*
X201202481Y-51461015D01*
X201063100Y-51554147D01*
X200908228Y-51618297D01*
X200743816Y-51651000D01*
X200576184Y-51651000D01*
X200411772Y-51618297D01*
X200256900Y-51554147D01*
X200117519Y-51461015D01*
X199998985Y-51342481D01*
X199905853Y-51203100D01*
X199841703Y-51048228D01*
X199809000Y-50883816D01*
X199809000Y-50716184D01*
X199841703Y-50551772D01*
X199905853Y-50396900D01*
X199998985Y-50257519D01*
X200117519Y-50138985D01*
X200256900Y-50045853D01*
X200411772Y-49981703D01*
X200576184Y-49949000D01*
X200743816Y-49949000D01*
X200908228Y-49981703D01*
G37*
G36*
X193288228Y-49981703D02*
G01*
X193443100Y-50045853D01*
X193582481Y-50138985D01*
X193701015Y-50257519D01*
X193794147Y-50396900D01*
X193858297Y-50551772D01*
X193891000Y-50716184D01*
X193891000Y-50883816D01*
X193858297Y-51048228D01*
X193794147Y-51203100D01*
X193701015Y-51342481D01*
X193582481Y-51461015D01*
X193443100Y-51554147D01*
X193288228Y-51618297D01*
X193123816Y-51651000D01*
X192956184Y-51651000D01*
X192791772Y-51618297D01*
X192636900Y-51554147D01*
X192497519Y-51461015D01*
X192378985Y-51342481D01*
X192285853Y-51203100D01*
X192221703Y-51048228D01*
X192189000Y-50883816D01*
X192189000Y-50716184D01*
X192221703Y-50551772D01*
X192285853Y-50396900D01*
X192378985Y-50257519D01*
X192497519Y-50138985D01*
X192636900Y-50045853D01*
X192791772Y-49981703D01*
X192956184Y-49949000D01*
X193123816Y-49949000D01*
X193288228Y-49981703D01*
G37*
G36*
X183128228Y-49981703D02*
G01*
X183283100Y-50045853D01*
X183422481Y-50138985D01*
X183541015Y-50257519D01*
X183634147Y-50396900D01*
X183698297Y-50551772D01*
X183731000Y-50716184D01*
X183731000Y-50883816D01*
X183698297Y-51048228D01*
X183634147Y-51203100D01*
X183541015Y-51342481D01*
X183422481Y-51461015D01*
X183283100Y-51554147D01*
X183128228Y-51618297D01*
X182963816Y-51651000D01*
X182796184Y-51651000D01*
X182631772Y-51618297D01*
X182476900Y-51554147D01*
X182337519Y-51461015D01*
X182218985Y-51342481D01*
X182125853Y-51203100D01*
X182061703Y-51048228D01*
X182029000Y-50883816D01*
X182029000Y-50716184D01*
X182061703Y-50551772D01*
X182125853Y-50396900D01*
X182218985Y-50257519D01*
X182337519Y-50138985D01*
X182476900Y-50045853D01*
X182631772Y-49981703D01*
X182796184Y-49949000D01*
X182963816Y-49949000D01*
X183128228Y-49981703D01*
G37*
G36*
X175508228Y-49981703D02*
G01*
X175663100Y-50045853D01*
X175802481Y-50138985D01*
X175921015Y-50257519D01*
X176014147Y-50396900D01*
X176078297Y-50551772D01*
X176111000Y-50716184D01*
X176111000Y-50883816D01*
X176078297Y-51048228D01*
X176014147Y-51203100D01*
X175921015Y-51342481D01*
X175802481Y-51461015D01*
X175663100Y-51554147D01*
X175508228Y-51618297D01*
X175343816Y-51651000D01*
X175176184Y-51651000D01*
X175011772Y-51618297D01*
X174856900Y-51554147D01*
X174717519Y-51461015D01*
X174598985Y-51342481D01*
X174505853Y-51203100D01*
X174441703Y-51048228D01*
X174409000Y-50883816D01*
X174409000Y-50716184D01*
X174441703Y-50551772D01*
X174505853Y-50396900D01*
X174598985Y-50257519D01*
X174717519Y-50138985D01*
X174856900Y-50045853D01*
X175011772Y-49981703D01*
X175176184Y-49949000D01*
X175343816Y-49949000D01*
X175508228Y-49981703D01*
G37*
G36*
X261733512Y-47363927D02*
G01*
X261882812Y-47393624D01*
X262046784Y-47461544D01*
X262194354Y-47560147D01*
X262319853Y-47685646D01*
X262418456Y-47833216D01*
X262486376Y-47997188D01*
X262521000Y-48171259D01*
X262521000Y-48348741D01*
X262486376Y-48522812D01*
X262418456Y-48686784D01*
X262319853Y-48834354D01*
X262194354Y-48959853D01*
X262046784Y-49058456D01*
X261882812Y-49126376D01*
X261733512Y-49156073D01*
X261708742Y-49161000D01*
X261531258Y-49161000D01*
X261506488Y-49156073D01*
X261357188Y-49126376D01*
X261193216Y-49058456D01*
X261045646Y-48959853D01*
X260920147Y-48834354D01*
X260821544Y-48686784D01*
X260753624Y-48522812D01*
X260719000Y-48348741D01*
X260719000Y-48171259D01*
X260753624Y-47997188D01*
X260821544Y-47833216D01*
X260920147Y-47685646D01*
X261045646Y-47560147D01*
X261193216Y-47461544D01*
X261357188Y-47393624D01*
X261506488Y-47363927D01*
X261531258Y-47359000D01*
X261708742Y-47359000D01*
X261733512Y-47363927D01*
G37*
G36*
X183128228Y-47441703D02*
G01*
X183283100Y-47505853D01*
X183422481Y-47598985D01*
X183541015Y-47717519D01*
X183634147Y-47856900D01*
X183698297Y-48011772D01*
X183731000Y-48176184D01*
X183731000Y-48343816D01*
X183698297Y-48508228D01*
X183634147Y-48663100D01*
X183541015Y-48802481D01*
X183422481Y-48921015D01*
X183283100Y-49014147D01*
X183128228Y-49078297D01*
X182963816Y-49111000D01*
X182796184Y-49111000D01*
X182631772Y-49078297D01*
X182476900Y-49014147D01*
X182337519Y-48921015D01*
X182218985Y-48802481D01*
X182125853Y-48663100D01*
X182061703Y-48508228D01*
X182029000Y-48343816D01*
X182029000Y-48176184D01*
X182061703Y-48011772D01*
X182125853Y-47856900D01*
X182218985Y-47717519D01*
X182337519Y-47598985D01*
X182476900Y-47505853D01*
X182631772Y-47441703D01*
X182796184Y-47409000D01*
X182963816Y-47409000D01*
X183128228Y-47441703D01*
G37*
G36*
X229451000Y-49111000D02*
G01*
X227749000Y-49111000D01*
X227749000Y-47409000D01*
X229451000Y-47409000D01*
X229451000Y-49111000D01*
G37*
G36*
X236468228Y-47441703D02*
G01*
X236623100Y-47505853D01*
X236762481Y-47598985D01*
X236881015Y-47717519D01*
X236974147Y-47856900D01*
X237038297Y-48011772D01*
X237071000Y-48176184D01*
X237071000Y-48343816D01*
X237038297Y-48508228D01*
X236974147Y-48663100D01*
X236881015Y-48802481D01*
X236762481Y-48921015D01*
X236623100Y-49014147D01*
X236468228Y-49078297D01*
X236303816Y-49111000D01*
X236136184Y-49111000D01*
X235971772Y-49078297D01*
X235816900Y-49014147D01*
X235677519Y-48921015D01*
X235558985Y-48802481D01*
X235465853Y-48663100D01*
X235401703Y-48508228D01*
X235369000Y-48343816D01*
X235369000Y-48176184D01*
X235401703Y-48011772D01*
X235465853Y-47856900D01*
X235558985Y-47717519D01*
X235677519Y-47598985D01*
X235816900Y-47505853D01*
X235971772Y-47441703D01*
X236136184Y-47409000D01*
X236303816Y-47409000D01*
X236468228Y-47441703D01*
G37*
G36*
X176111000Y-49111000D02*
G01*
X174409000Y-49111000D01*
X174409000Y-47409000D01*
X176111000Y-47409000D01*
X176111000Y-49111000D01*
G37*
G36*
X193891000Y-49111000D02*
G01*
X192189000Y-49111000D01*
X192189000Y-47409000D01*
X193891000Y-47409000D01*
X193891000Y-49111000D01*
G37*
G36*
X218688228Y-47441703D02*
G01*
X218843100Y-47505853D01*
X218982481Y-47598985D01*
X219101015Y-47717519D01*
X219194147Y-47856900D01*
X219258297Y-48011772D01*
X219291000Y-48176184D01*
X219291000Y-48343816D01*
X219258297Y-48508228D01*
X219194147Y-48663100D01*
X219101015Y-48802481D01*
X218982481Y-48921015D01*
X218843100Y-49014147D01*
X218688228Y-49078297D01*
X218523816Y-49111000D01*
X218356184Y-49111000D01*
X218191772Y-49078297D01*
X218036900Y-49014147D01*
X217897519Y-48921015D01*
X217778985Y-48802481D01*
X217685853Y-48663100D01*
X217621703Y-48508228D01*
X217589000Y-48343816D01*
X217589000Y-48176184D01*
X217621703Y-48011772D01*
X217685853Y-47856900D01*
X217778985Y-47717519D01*
X217897519Y-47598985D01*
X218036900Y-47505853D01*
X218191772Y-47441703D01*
X218356184Y-47409000D01*
X218523816Y-47409000D01*
X218688228Y-47441703D01*
G37*
G36*
X200908228Y-47441703D02*
G01*
X201063100Y-47505853D01*
X201202481Y-47598985D01*
X201321015Y-47717519D01*
X201414147Y-47856900D01*
X201478297Y-48011772D01*
X201511000Y-48176184D01*
X201511000Y-48343816D01*
X201478297Y-48508228D01*
X201414147Y-48663100D01*
X201321015Y-48802481D01*
X201202481Y-48921015D01*
X201063100Y-49014147D01*
X200908228Y-49078297D01*
X200743816Y-49111000D01*
X200576184Y-49111000D01*
X200411772Y-49078297D01*
X200256900Y-49014147D01*
X200117519Y-48921015D01*
X199998985Y-48802481D01*
X199905853Y-48663100D01*
X199841703Y-48508228D01*
X199809000Y-48343816D01*
X199809000Y-48176184D01*
X199841703Y-48011772D01*
X199905853Y-47856900D01*
X199998985Y-47717519D01*
X200117519Y-47598985D01*
X200256900Y-47505853D01*
X200411772Y-47441703D01*
X200576184Y-47409000D01*
X200743816Y-47409000D01*
X200908228Y-47441703D01*
G37*
G36*
X211671000Y-49111000D02*
G01*
X209969000Y-49111000D01*
X209969000Y-47409000D01*
X211671000Y-47409000D01*
X211671000Y-49111000D01*
G37*
G36*
X245961000Y-49111000D02*
G01*
X244259000Y-49111000D01*
X244259000Y-47409000D01*
X245961000Y-47409000D01*
X245961000Y-49111000D01*
G37*
G36*
X252978228Y-47441703D02*
G01*
X253133100Y-47505853D01*
X253272481Y-47598985D01*
X253391015Y-47717519D01*
X253484147Y-47856900D01*
X253548297Y-48011772D01*
X253581000Y-48176184D01*
X253581000Y-48343816D01*
X253548297Y-48508228D01*
X253484147Y-48663100D01*
X253391015Y-48802481D01*
X253272481Y-48921015D01*
X253133100Y-49014147D01*
X252978228Y-49078297D01*
X252813816Y-49111000D01*
X252646184Y-49111000D01*
X252481772Y-49078297D01*
X252326900Y-49014147D01*
X252187519Y-48921015D01*
X252068985Y-48802481D01*
X251975853Y-48663100D01*
X251911703Y-48508228D01*
X251879000Y-48343816D01*
X251879000Y-48176184D01*
X251911703Y-48011772D01*
X251975853Y-47856900D01*
X252068985Y-47717519D01*
X252187519Y-47598985D01*
X252326900Y-47505853D01*
X252481772Y-47441703D01*
X252646184Y-47409000D01*
X252813816Y-47409000D01*
X252978228Y-47441703D01*
G37*
G36*
X216148228Y-39821703D02*
G01*
X216303100Y-39885853D01*
X216442481Y-39978985D01*
X216561015Y-40097519D01*
X216654147Y-40236900D01*
X216718297Y-40391772D01*
X216751000Y-40556184D01*
X216751000Y-40723816D01*
X216718297Y-40888228D01*
X216654147Y-41043100D01*
X216561015Y-41182481D01*
X216442481Y-41301015D01*
X216303100Y-41394147D01*
X216148228Y-41458297D01*
X215983816Y-41491000D01*
X215816184Y-41491000D01*
X215651772Y-41458297D01*
X215496900Y-41394147D01*
X215357519Y-41301015D01*
X215238985Y-41182481D01*
X215145853Y-41043100D01*
X215081703Y-40888228D01*
X215049000Y-40723816D01*
X215049000Y-40556184D01*
X215081703Y-40391772D01*
X215145853Y-40236900D01*
X215238985Y-40097519D01*
X215357519Y-39978985D01*
X215496900Y-39885853D01*
X215651772Y-39821703D01*
X215816184Y-39789000D01*
X215983816Y-39789000D01*
X216148228Y-39821703D01*
G37*
G36*
X209163228Y-39821703D02*
G01*
X209318100Y-39885853D01*
X209457481Y-39978985D01*
X209576015Y-40097519D01*
X209669147Y-40236900D01*
X209733297Y-40391772D01*
X209766000Y-40556184D01*
X209766000Y-40723816D01*
X209733297Y-40888228D01*
X209669147Y-41043100D01*
X209576015Y-41182481D01*
X209457481Y-41301015D01*
X209318100Y-41394147D01*
X209163228Y-41458297D01*
X208998816Y-41491000D01*
X208831184Y-41491000D01*
X208666772Y-41458297D01*
X208511900Y-41394147D01*
X208372519Y-41301015D01*
X208253985Y-41182481D01*
X208160853Y-41043100D01*
X208096703Y-40888228D01*
X208064000Y-40723816D01*
X208064000Y-40556184D01*
X208096703Y-40391772D01*
X208160853Y-40236900D01*
X208253985Y-40097519D01*
X208372519Y-39978985D01*
X208511900Y-39885853D01*
X208666772Y-39821703D01*
X208831184Y-39789000D01*
X208998816Y-39789000D01*
X209163228Y-39821703D01*
G37*
G36*
X223133228Y-39821703D02*
G01*
X223288100Y-39885853D01*
X223427481Y-39978985D01*
X223546015Y-40097519D01*
X223639147Y-40236900D01*
X223703297Y-40391772D01*
X223736000Y-40556184D01*
X223736000Y-40723816D01*
X223703297Y-40888228D01*
X223639147Y-41043100D01*
X223546015Y-41182481D01*
X223427481Y-41301015D01*
X223288100Y-41394147D01*
X223133228Y-41458297D01*
X222968816Y-41491000D01*
X222801184Y-41491000D01*
X222636772Y-41458297D01*
X222481900Y-41394147D01*
X222342519Y-41301015D01*
X222223985Y-41182481D01*
X222130853Y-41043100D01*
X222066703Y-40888228D01*
X222034000Y-40723816D01*
X222034000Y-40556184D01*
X222066703Y-40391772D01*
X222130853Y-40236900D01*
X222223985Y-40097519D01*
X222342519Y-39978985D01*
X222481900Y-39885853D01*
X222636772Y-39821703D01*
X222801184Y-39789000D01*
X222968816Y-39789000D01*
X223133228Y-39821703D01*
G37*
G36*
X188208228Y-39821703D02*
G01*
X188363100Y-39885853D01*
X188502481Y-39978985D01*
X188621015Y-40097519D01*
X188714147Y-40236900D01*
X188778297Y-40391772D01*
X188811000Y-40556184D01*
X188811000Y-40723816D01*
X188778297Y-40888228D01*
X188714147Y-41043100D01*
X188621015Y-41182481D01*
X188502481Y-41301015D01*
X188363100Y-41394147D01*
X188208228Y-41458297D01*
X188043816Y-41491000D01*
X187876184Y-41491000D01*
X187711772Y-41458297D01*
X187556900Y-41394147D01*
X187417519Y-41301015D01*
X187298985Y-41182481D01*
X187205853Y-41043100D01*
X187141703Y-40888228D01*
X187109000Y-40723816D01*
X187109000Y-40556184D01*
X187141703Y-40391772D01*
X187205853Y-40236900D01*
X187298985Y-40097519D01*
X187417519Y-39978985D01*
X187556900Y-39885853D01*
X187711772Y-39821703D01*
X187876184Y-39789000D01*
X188043816Y-39789000D01*
X188208228Y-39821703D01*
G37*
G36*
X202178228Y-39821703D02*
G01*
X202333100Y-39885853D01*
X202472481Y-39978985D01*
X202591015Y-40097519D01*
X202684147Y-40236900D01*
X202748297Y-40391772D01*
X202781000Y-40556184D01*
X202781000Y-40723816D01*
X202748297Y-40888228D01*
X202684147Y-41043100D01*
X202591015Y-41182481D01*
X202472481Y-41301015D01*
X202333100Y-41394147D01*
X202178228Y-41458297D01*
X202013816Y-41491000D01*
X201846184Y-41491000D01*
X201681772Y-41458297D01*
X201526900Y-41394147D01*
X201387519Y-41301015D01*
X201268985Y-41182481D01*
X201175853Y-41043100D01*
X201111703Y-40888228D01*
X201079000Y-40723816D01*
X201079000Y-40556184D01*
X201111703Y-40391772D01*
X201175853Y-40236900D01*
X201268985Y-40097519D01*
X201387519Y-39978985D01*
X201526900Y-39885853D01*
X201681772Y-39821703D01*
X201846184Y-39789000D01*
X202013816Y-39789000D01*
X202178228Y-39821703D01*
G37*
G36*
X195193228Y-39821703D02*
G01*
X195348100Y-39885853D01*
X195487481Y-39978985D01*
X195606015Y-40097519D01*
X195699147Y-40236900D01*
X195763297Y-40391772D01*
X195796000Y-40556184D01*
X195796000Y-40723816D01*
X195763297Y-40888228D01*
X195699147Y-41043100D01*
X195606015Y-41182481D01*
X195487481Y-41301015D01*
X195348100Y-41394147D01*
X195193228Y-41458297D01*
X195028816Y-41491000D01*
X194861184Y-41491000D01*
X194696772Y-41458297D01*
X194541900Y-41394147D01*
X194402519Y-41301015D01*
X194283985Y-41182481D01*
X194190853Y-41043100D01*
X194126703Y-40888228D01*
X194094000Y-40723816D01*
X194094000Y-40556184D01*
X194126703Y-40391772D01*
X194190853Y-40236900D01*
X194283985Y-40097519D01*
X194402519Y-39978985D01*
X194541900Y-39885853D01*
X194696772Y-39821703D01*
X194861184Y-39789000D01*
X195028816Y-39789000D01*
X195193228Y-39821703D01*
G37*
G36*
X181223228Y-39821703D02*
G01*
X181378100Y-39885853D01*
X181517481Y-39978985D01*
X181636015Y-40097519D01*
X181729147Y-40236900D01*
X181793297Y-40391772D01*
X181826000Y-40556184D01*
X181826000Y-40723816D01*
X181793297Y-40888228D01*
X181729147Y-41043100D01*
X181636015Y-41182481D01*
X181517481Y-41301015D01*
X181378100Y-41394147D01*
X181223228Y-41458297D01*
X181058816Y-41491000D01*
X180891184Y-41491000D01*
X180726772Y-41458297D01*
X180571900Y-41394147D01*
X180432519Y-41301015D01*
X180313985Y-41182481D01*
X180220853Y-41043100D01*
X180156703Y-40888228D01*
X180124000Y-40723816D01*
X180124000Y-40556184D01*
X180156703Y-40391772D01*
X180220853Y-40236900D01*
X180313985Y-40097519D01*
X180432519Y-39978985D01*
X180571900Y-39885853D01*
X180726772Y-39821703D01*
X180891184Y-39789000D01*
X181058816Y-39789000D01*
X181223228Y-39821703D01*
G37*
G36*
X237103228Y-39821703D02*
G01*
X237258100Y-39885853D01*
X237397481Y-39978985D01*
X237516015Y-40097519D01*
X237609147Y-40236900D01*
X237673297Y-40391772D01*
X237706000Y-40556184D01*
X237706000Y-40723816D01*
X237673297Y-40888228D01*
X237609147Y-41043100D01*
X237516015Y-41182481D01*
X237397481Y-41301015D01*
X237258100Y-41394147D01*
X237103228Y-41458297D01*
X236938816Y-41491000D01*
X236771184Y-41491000D01*
X236606772Y-41458297D01*
X236451900Y-41394147D01*
X236312519Y-41301015D01*
X236193985Y-41182481D01*
X236100853Y-41043100D01*
X236036703Y-40888228D01*
X236004000Y-40723816D01*
X236004000Y-40556184D01*
X236036703Y-40391772D01*
X236100853Y-40236900D01*
X236193985Y-40097519D01*
X236312519Y-39978985D01*
X236451900Y-39885853D01*
X236606772Y-39821703D01*
X236771184Y-39789000D01*
X236938816Y-39789000D01*
X237103228Y-39821703D01*
G37*
G36*
X230118228Y-39821703D02*
G01*
X230273100Y-39885853D01*
X230412481Y-39978985D01*
X230531015Y-40097519D01*
X230624147Y-40236900D01*
X230688297Y-40391772D01*
X230721000Y-40556184D01*
X230721000Y-40723816D01*
X230688297Y-40888228D01*
X230624147Y-41043100D01*
X230531015Y-41182481D01*
X230412481Y-41301015D01*
X230273100Y-41394147D01*
X230118228Y-41458297D01*
X229953816Y-41491000D01*
X229786184Y-41491000D01*
X229621772Y-41458297D01*
X229466900Y-41394147D01*
X229327519Y-41301015D01*
X229208985Y-41182481D01*
X229115853Y-41043100D01*
X229051703Y-40888228D01*
X229019000Y-40723816D01*
X229019000Y-40556184D01*
X229051703Y-40391772D01*
X229115853Y-40236900D01*
X229208985Y-40097519D01*
X229327519Y-39978985D01*
X229466900Y-39885853D01*
X229621772Y-39821703D01*
X229786184Y-39789000D01*
X229953816Y-39789000D01*
X230118228Y-39821703D01*
G37*
G36*
X255478228Y-36011703D02*
G01*
X255633100Y-36075853D01*
X255772481Y-36168985D01*
X255891015Y-36287519D01*
X255984147Y-36426900D01*
X256048297Y-36581772D01*
X256081000Y-36746184D01*
X256081000Y-36913816D01*
X256048297Y-37078228D01*
X255984147Y-37233100D01*
X255891015Y-37372481D01*
X255772481Y-37491015D01*
X255633100Y-37584147D01*
X255478228Y-37648297D01*
X255313816Y-37681000D01*
X255146184Y-37681000D01*
X254981772Y-37648297D01*
X254826900Y-37584147D01*
X254687519Y-37491015D01*
X254568985Y-37372481D01*
X254475853Y-37233100D01*
X254411703Y-37078228D01*
X254379000Y-36913816D01*
X254379000Y-36746184D01*
X254411703Y-36581772D01*
X254475853Y-36426900D01*
X254568985Y-36287519D01*
X254687519Y-36168985D01*
X254826900Y-36075853D01*
X254981772Y-36011703D01*
X255146184Y-35979000D01*
X255313816Y-35979000D01*
X255478228Y-36011703D01*
G37*
G36*
X253581000Y-37681000D02*
G01*
X251879000Y-37681000D01*
X251879000Y-35979000D01*
X253581000Y-35979000D01*
X253581000Y-37681000D01*
G37*
G36*
X246588228Y-36011703D02*
G01*
X246743100Y-36075853D01*
X246882481Y-36168985D01*
X247001015Y-36287519D01*
X247094147Y-36426900D01*
X247158297Y-36581772D01*
X247191000Y-36746184D01*
X247191000Y-36913816D01*
X247158297Y-37078228D01*
X247094147Y-37233100D01*
X247001015Y-37372481D01*
X246882481Y-37491015D01*
X246743100Y-37584147D01*
X246588228Y-37648297D01*
X246423816Y-37681000D01*
X246256184Y-37681000D01*
X246091772Y-37648297D01*
X245936900Y-37584147D01*
X245797519Y-37491015D01*
X245678985Y-37372481D01*
X245585853Y-37233100D01*
X245521703Y-37078228D01*
X245489000Y-36913816D01*
X245489000Y-36746184D01*
X245521703Y-36581772D01*
X245585853Y-36426900D01*
X245678985Y-36287519D01*
X245797519Y-36168985D01*
X245936900Y-36075853D01*
X246091772Y-36011703D01*
X246256184Y-35979000D01*
X246423816Y-35979000D01*
X246588228Y-36011703D01*
G37*
G36*
X244691000Y-37681000D02*
G01*
X242989000Y-37681000D01*
X242989000Y-35979000D01*
X244691000Y-35979000D01*
X244691000Y-37681000D01*
G37*
G36*
X262509943Y-30086248D02*
G01*
X263065189Y-30316238D01*
X263065190Y-30316239D01*
X263564899Y-30650134D01*
X263989866Y-31075101D01*
X263989867Y-31075103D01*
X264323762Y-31574811D01*
X264553752Y-32130057D01*
X264671000Y-32719501D01*
X264671000Y-33320499D01*
X264553752Y-33909943D01*
X264323762Y-34465189D01*
X264323761Y-34465190D01*
X263989866Y-34964899D01*
X263564899Y-35389866D01*
X263313347Y-35557948D01*
X263065189Y-35723762D01*
X262509943Y-35953752D01*
X261920499Y-36071000D01*
X261319501Y-36071000D01*
X260730057Y-35953752D01*
X260174811Y-35723762D01*
X259926653Y-35557948D01*
X259675101Y-35389866D01*
X259250134Y-34964899D01*
X258916239Y-34465190D01*
X258916238Y-34465189D01*
X258686248Y-33909943D01*
X258569000Y-33320499D01*
X258569000Y-32719501D01*
X258686248Y-32130057D01*
X258916238Y-31574811D01*
X259250133Y-31075103D01*
X259250134Y-31075101D01*
X259675101Y-30650134D01*
X260174810Y-30316239D01*
X260174811Y-30316238D01*
X260730057Y-30086248D01*
X261319501Y-29969000D01*
X261920499Y-29969000D01*
X262509943Y-30086248D01*
G37*
G36*
X173609943Y-30086248D02*
G01*
X174165189Y-30316238D01*
X174165190Y-30316239D01*
X174664899Y-30650134D01*
X175089866Y-31075101D01*
X175089867Y-31075103D01*
X175423762Y-31574811D01*
X175653752Y-32130057D01*
X175771000Y-32719501D01*
X175771000Y-33320499D01*
X175653752Y-33909943D01*
X175423762Y-34465189D01*
X175423761Y-34465190D01*
X175089866Y-34964899D01*
X174664899Y-35389866D01*
X174413347Y-35557948D01*
X174165189Y-35723762D01*
X173609943Y-35953752D01*
X173020499Y-36071000D01*
X172419501Y-36071000D01*
X171830057Y-35953752D01*
X171274811Y-35723762D01*
X171026653Y-35557948D01*
X170775101Y-35389866D01*
X170350134Y-34964899D01*
X170016239Y-34465190D01*
X170016238Y-34465189D01*
X169786248Y-33909943D01*
X169669000Y-33320499D01*
X169669000Y-32719501D01*
X169786248Y-32130057D01*
X170016238Y-31574811D01*
X170350133Y-31075103D01*
X170350134Y-31075101D01*
X170775101Y-30650134D01*
X171274810Y-30316239D01*
X171274811Y-30316238D01*
X171830057Y-30086248D01*
X172419501Y-29969000D01*
X173020499Y-29969000D01*
X173609943Y-30086248D01*
G37*
G36*
X230118228Y-32201703D02*
G01*
X230273100Y-32265853D01*
X230412481Y-32358985D01*
X230531015Y-32477519D01*
X230624147Y-32616900D01*
X230688297Y-32771772D01*
X230721000Y-32936184D01*
X230721000Y-33103816D01*
X230688297Y-33268228D01*
X230624147Y-33423100D01*
X230531015Y-33562481D01*
X230412481Y-33681015D01*
X230273100Y-33774147D01*
X230118228Y-33838297D01*
X229953816Y-33871000D01*
X229786184Y-33871000D01*
X229621772Y-33838297D01*
X229466900Y-33774147D01*
X229327519Y-33681015D01*
X229208985Y-33562481D01*
X229115853Y-33423100D01*
X229051703Y-33268228D01*
X229019000Y-33103816D01*
X229019000Y-32936184D01*
X229051703Y-32771772D01*
X229115853Y-32616900D01*
X229208985Y-32477519D01*
X229327519Y-32358985D01*
X229466900Y-32265853D01*
X229621772Y-32201703D01*
X229786184Y-32169000D01*
X229953816Y-32169000D01*
X230118228Y-32201703D01*
G37*
G36*
X195193228Y-32201703D02*
G01*
X195348100Y-32265853D01*
X195487481Y-32358985D01*
X195606015Y-32477519D01*
X195699147Y-32616900D01*
X195763297Y-32771772D01*
X195796000Y-32936184D01*
X195796000Y-33103816D01*
X195763297Y-33268228D01*
X195699147Y-33423100D01*
X195606015Y-33562481D01*
X195487481Y-33681015D01*
X195348100Y-33774147D01*
X195193228Y-33838297D01*
X195028816Y-33871000D01*
X194861184Y-33871000D01*
X194696772Y-33838297D01*
X194541900Y-33774147D01*
X194402519Y-33681015D01*
X194283985Y-33562481D01*
X194190853Y-33423100D01*
X194126703Y-33268228D01*
X194094000Y-33103816D01*
X194094000Y-32936184D01*
X194126703Y-32771772D01*
X194190853Y-32616900D01*
X194283985Y-32477519D01*
X194402519Y-32358985D01*
X194541900Y-32265853D01*
X194696772Y-32201703D01*
X194861184Y-32169000D01*
X195028816Y-32169000D01*
X195193228Y-32201703D01*
G37*
G36*
X223133228Y-32201703D02*
G01*
X223288100Y-32265853D01*
X223427481Y-32358985D01*
X223546015Y-32477519D01*
X223639147Y-32616900D01*
X223703297Y-32771772D01*
X223736000Y-32936184D01*
X223736000Y-33103816D01*
X223703297Y-33268228D01*
X223639147Y-33423100D01*
X223546015Y-33562481D01*
X223427481Y-33681015D01*
X223288100Y-33774147D01*
X223133228Y-33838297D01*
X222968816Y-33871000D01*
X222801184Y-33871000D01*
X222636772Y-33838297D01*
X222481900Y-33774147D01*
X222342519Y-33681015D01*
X222223985Y-33562481D01*
X222130853Y-33423100D01*
X222066703Y-33268228D01*
X222034000Y-33103816D01*
X222034000Y-32936184D01*
X222066703Y-32771772D01*
X222130853Y-32616900D01*
X222223985Y-32477519D01*
X222342519Y-32358985D01*
X222481900Y-32265853D01*
X222636772Y-32201703D01*
X222801184Y-32169000D01*
X222968816Y-32169000D01*
X223133228Y-32201703D01*
G37*
G36*
X209163228Y-32201703D02*
G01*
X209318100Y-32265853D01*
X209457481Y-32358985D01*
X209576015Y-32477519D01*
X209669147Y-32616900D01*
X209733297Y-32771772D01*
X209766000Y-32936184D01*
X209766000Y-33103816D01*
X209733297Y-33268228D01*
X209669147Y-33423100D01*
X209576015Y-33562481D01*
X209457481Y-33681015D01*
X209318100Y-33774147D01*
X209163228Y-33838297D01*
X208998816Y-33871000D01*
X208831184Y-33871000D01*
X208666772Y-33838297D01*
X208511900Y-33774147D01*
X208372519Y-33681015D01*
X208253985Y-33562481D01*
X208160853Y-33423100D01*
X208096703Y-33268228D01*
X208064000Y-33103816D01*
X208064000Y-32936184D01*
X208096703Y-32771772D01*
X208160853Y-32616900D01*
X208253985Y-32477519D01*
X208372519Y-32358985D01*
X208511900Y-32265853D01*
X208666772Y-32201703D01*
X208831184Y-32169000D01*
X208998816Y-32169000D01*
X209163228Y-32201703D01*
G37*
G36*
X237103228Y-32201703D02*
G01*
X237258100Y-32265853D01*
X237397481Y-32358985D01*
X237516015Y-32477519D01*
X237609147Y-32616900D01*
X237673297Y-32771772D01*
X237706000Y-32936184D01*
X237706000Y-33103816D01*
X237673297Y-33268228D01*
X237609147Y-33423100D01*
X237516015Y-33562481D01*
X237397481Y-33681015D01*
X237258100Y-33774147D01*
X237103228Y-33838297D01*
X236938816Y-33871000D01*
X236771184Y-33871000D01*
X236606772Y-33838297D01*
X236451900Y-33774147D01*
X236312519Y-33681015D01*
X236193985Y-33562481D01*
X236100853Y-33423100D01*
X236036703Y-33268228D01*
X236004000Y-33103816D01*
X236004000Y-32936184D01*
X236036703Y-32771772D01*
X236100853Y-32616900D01*
X236193985Y-32477519D01*
X236312519Y-32358985D01*
X236451900Y-32265853D01*
X236606772Y-32201703D01*
X236771184Y-32169000D01*
X236938816Y-32169000D01*
X237103228Y-32201703D01*
G37*
G36*
X202178228Y-32201703D02*
G01*
X202333100Y-32265853D01*
X202472481Y-32358985D01*
X202591015Y-32477519D01*
X202684147Y-32616900D01*
X202748297Y-32771772D01*
X202781000Y-32936184D01*
X202781000Y-33103816D01*
X202748297Y-33268228D01*
X202684147Y-33423100D01*
X202591015Y-33562481D01*
X202472481Y-33681015D01*
X202333100Y-33774147D01*
X202178228Y-33838297D01*
X202013816Y-33871000D01*
X201846184Y-33871000D01*
X201681772Y-33838297D01*
X201526900Y-33774147D01*
X201387519Y-33681015D01*
X201268985Y-33562481D01*
X201175853Y-33423100D01*
X201111703Y-33268228D01*
X201079000Y-33103816D01*
X201079000Y-32936184D01*
X201111703Y-32771772D01*
X201175853Y-32616900D01*
X201268985Y-32477519D01*
X201387519Y-32358985D01*
X201526900Y-32265853D01*
X201681772Y-32201703D01*
X201846184Y-32169000D01*
X202013816Y-32169000D01*
X202178228Y-32201703D01*
G37*
G36*
X181223228Y-32201703D02*
G01*
X181378100Y-32265853D01*
X181517481Y-32358985D01*
X181636015Y-32477519D01*
X181729147Y-32616900D01*
X181793297Y-32771772D01*
X181826000Y-32936184D01*
X181826000Y-33103816D01*
X181793297Y-33268228D01*
X181729147Y-33423100D01*
X181636015Y-33562481D01*
X181517481Y-33681015D01*
X181378100Y-33774147D01*
X181223228Y-33838297D01*
X181058816Y-33871000D01*
X180891184Y-33871000D01*
X180726772Y-33838297D01*
X180571900Y-33774147D01*
X180432519Y-33681015D01*
X180313985Y-33562481D01*
X180220853Y-33423100D01*
X180156703Y-33268228D01*
X180124000Y-33103816D01*
X180124000Y-32936184D01*
X180156703Y-32771772D01*
X180220853Y-32616900D01*
X180313985Y-32477519D01*
X180432519Y-32358985D01*
X180571900Y-32265853D01*
X180726772Y-32201703D01*
X180891184Y-32169000D01*
X181058816Y-32169000D01*
X181223228Y-32201703D01*
G37*
G36*
X188208228Y-32201703D02*
G01*
X188363100Y-32265853D01*
X188502481Y-32358985D01*
X188621015Y-32477519D01*
X188714147Y-32616900D01*
X188778297Y-32771772D01*
X188811000Y-32936184D01*
X188811000Y-33103816D01*
X188778297Y-33268228D01*
X188714147Y-33423100D01*
X188621015Y-33562481D01*
X188502481Y-33681015D01*
X188363100Y-33774147D01*
X188208228Y-33838297D01*
X188043816Y-33871000D01*
X187876184Y-33871000D01*
X187711772Y-33838297D01*
X187556900Y-33774147D01*
X187417519Y-33681015D01*
X187298985Y-33562481D01*
X187205853Y-33423100D01*
X187141703Y-33268228D01*
X187109000Y-33103816D01*
X187109000Y-32936184D01*
X187141703Y-32771772D01*
X187205853Y-32616900D01*
X187298985Y-32477519D01*
X187417519Y-32358985D01*
X187556900Y-32265853D01*
X187711772Y-32201703D01*
X187876184Y-32169000D01*
X188043816Y-32169000D01*
X188208228Y-32201703D01*
G37*
G36*
X216148228Y-32201703D02*
G01*
X216303100Y-32265853D01*
X216442481Y-32358985D01*
X216561015Y-32477519D01*
X216654147Y-32616900D01*
X216718297Y-32771772D01*
X216751000Y-32936184D01*
X216751000Y-33103816D01*
X216718297Y-33268228D01*
X216654147Y-33423100D01*
X216561015Y-33562481D01*
X216442481Y-33681015D01*
X216303100Y-33774147D01*
X216148228Y-33838297D01*
X215983816Y-33871000D01*
X215816184Y-33871000D01*
X215651772Y-33838297D01*
X215496900Y-33774147D01*
X215357519Y-33681015D01*
X215238985Y-33562481D01*
X215145853Y-33423100D01*
X215081703Y-33268228D01*
X215049000Y-33103816D01*
X215049000Y-32936184D01*
X215081703Y-32771772D01*
X215145853Y-32616900D01*
X215238985Y-32477519D01*
X215357519Y-32358985D01*
X215496900Y-32265853D01*
X215651772Y-32201703D01*
X215816184Y-32169000D01*
X215983816Y-32169000D01*
X216148228Y-32201703D01*
G37*
M02*
