M48
; DRILL file {KiCad (5.1.5-0-10_14)} date Sunday, 23 February 2020 at 22:57:06
; FORMAT={-:-/ absolute / inch / decimal}
; #@! TF.CreationDate,2020-02-23T22:57:06+01:00
; #@! TF.GenerationSoftware,Kicad,Pcbnew,(5.1.5-0-10_14)
FMAT,2
INCH
T1C0.0157
T2C0.0236
T3C0.0315
T4C0.0335
T5C0.0354
T6C0.0362
T7C0.0394
T8C0.0433
T9C0.0512
T10C0.0917
T11C0.1181
%
G90
G05
T1
X1.76Y-1.36
X2.24Y-4.89
X2.3Y-4.89
X2.36Y-4.89
X2.9Y-1.9
X3.3Y-1.2
X3.34Y-1.97
X3.37Y-1.54
X3.65Y-2.68
X3.65Y-2.73
X3.9Y-2.438
X3.9Y-2.83
X3.9Y-4.36
X3.9Y-5.25
X3.94Y-2.44
X3.94Y-4.26
X3.94Y-5.25
X3.94Y-2.83
X3.98Y-2.83
X3.98Y-2.44
X3.98Y-4.16
X3.98Y-5.25
X4.02Y-2.44
X4.02Y-2.83
X4.02Y-4.06
X4.02Y-5.25
X4.06Y-2.44
X4.06Y-2.83
X4.06Y-3.96
X4.1Y-2.44
X4.1Y-2.83
X4.1Y-3.86
X4.14Y-2.44
X4.14Y-2.83
X4.14Y-3.76
X4.18Y-2.44
X4.18Y-2.83
X4.18Y-3.66
X4.22Y-2.44
X4.22Y-2.83
X4.22Y-3.8
X4.26Y-2.44
X4.26Y-2.83
X4.26Y-3.9
X4.3Y-2.44
X4.3Y-2.52
X4.3Y-2.83
X4.3Y-4.2
X4.34Y-2.44
X4.34Y-2.83
X4.34Y-4.0
X4.34Y-5.49
X4.38Y-2.16
X4.38Y-2.44
X4.38Y-2.83
X4.38Y-3.56
X4.3808Y-5.4592
X4.42Y-2.18
X4.42Y-2.44
X4.42Y-2.83
X4.42Y-3.7
X4.46Y-2.2
X4.46Y-2.44
X4.46Y-2.83
X4.46Y-3.46
X4.5Y-2.22
X4.5Y-2.44
X4.5Y-2.83
X4.54Y-2.35
X4.54Y-2.75
X4.54Y-3.12
X4.54Y-4.46
X4.54Y-5.25
X4.58Y-2.35
X4.58Y-2.75
X4.58Y-3.12
X4.58Y-4.56
X4.58Y-5.25
X4.62Y-2.35
X4.62Y-2.75
X4.62Y-3.12
X4.62Y-4.66
X4.62Y-5.25
X4.66Y-2.35
X4.66Y-2.75
X4.66Y-3.12
X4.66Y-4.8
X4.66Y-5.25
X4.7Y-2.35
X4.7Y-2.75
X4.7Y-3.12
X4.7Y-4.7
X4.7Y-5.25
X4.74Y-2.35
X4.74Y-2.75
X4.74Y-3.12
X4.74Y-4.6
X4.74Y-5.25
X4.78Y-2.35
X4.78Y-2.75
X4.78Y-3.12
X4.78Y-4.5
X4.78Y-5.09
X4.78Y-5.25
X4.82Y-2.35
X4.82Y-2.75
X4.82Y-3.12
X4.82Y-4.4
X4.82Y-5.14
X4.82Y-5.25
X4.86Y-2.43
X4.86Y-2.75
X4.86Y-3.12
X4.86Y-3.6
X4.86Y-5.25
X4.9Y-2.43
X4.9Y-2.48
X4.9Y-3.12
X4.9Y-5.25
X4.92Y-1.9953
X4.94Y-2.48
X4.94Y-3.12
X4.94Y-5.25
X4.9586Y-1.9968
X4.98Y-2.36
X4.98Y-2.48
X4.98Y-3.9
X4.98Y-5.47
X5.02Y-1.97
X5.02Y-2.09
X5.02Y-5.102
X5.06Y-2.6
X5.06Y-4.3
X5.1Y-4.33
X5.14Y-2.625
X5.14Y-4.11
X5.19Y-1.97
X5.42Y-3.12
X5.47Y-3.6
X5.7Y-3.9
X5.82Y-1.47
X6.25Y-1.2
X6.32Y-1.26
X6.39Y-1.35
X6.43Y-5.15
X6.53Y-1.87
X6.55Y-1.26
X6.65Y-1.35
X6.7905Y-3.23
X7.0Y-5.7
X7.2Y-1.06
X7.2Y-1.2
X7.21Y-3.1
X7.225Y-1.1
X7.225Y-1.4
X7.26Y-5.13
X7.46Y-1.11
X7.46Y-1.19
X7.5Y-1.17
X7.66Y-1.09
X7.68Y-1.21
X7.74Y-1.09
X8.14Y-1.65
X8.2Y-1.55
T3
X4.25Y-1.6
X4.3484Y-1.6
X1.35Y-2.9
X1.65Y-2.9
X2.2516Y-2.9
X2.35Y-2.9
X6.55Y-2.6
X6.55Y-2.9
X1.8Y-2.9
X2.1Y-2.9
X1.2Y-3.5
X1.2Y-3.6
X1.2Y-3.7
X1.2Y-3.8
X1.2Y-3.9
X1.2Y-4.0
X1.2Y-4.1
X1.2Y-4.2
X1.2Y-4.3
X1.2Y-4.4
X1.2Y-4.5
X1.2Y-4.6
X1.2Y-4.7
X1.2Y-4.8
X1.8Y-3.5
X1.8Y-3.6
X1.8Y-3.7
X1.8Y-3.8
X1.8Y-3.9
X1.8Y-4.0
X1.8Y-4.1
X1.8Y-4.2
X1.8Y-4.3
X1.8Y-4.4
X1.8Y-4.5
X1.8Y-4.6
X1.8Y-4.7
X1.8Y-4.8
X4.5516Y-1.65
X4.65Y-1.65
X1.6Y-2.1
X1.6Y-2.7
X1.7Y-2.1
X1.7Y-2.7
X1.8Y-2.1
X1.8Y-2.7
X1.9Y-2.1
X1.9Y-2.7
X2.0Y-2.1
X2.0Y-2.7
X2.1Y-2.1
X2.1Y-2.7
X2.2Y-2.1
X2.2Y-2.7
X2.3Y-2.1
X2.3Y-2.7
X2.4Y-2.1
X2.4Y-2.7
X2.5Y-2.1
X2.5Y-2.7
X2.6Y-2.1
X2.6Y-2.7
X2.7Y-2.1
X2.7Y-2.7
X2.8Y-2.1
X2.8Y-2.7
X2.9Y-2.1
X2.9Y-2.7
X3.0Y-2.1
X3.0Y-2.7
X3.1Y-2.1
X3.1Y-2.7
X3.2Y-2.1
X3.2Y-2.7
X3.3Y-2.1
X3.3Y-2.7
X3.4Y-2.1
X3.4Y-2.7
X3.5Y-2.1
X3.5Y-2.7
X1.2Y-5.35
X1.2Y-5.95
X1.3Y-5.35
X1.3Y-5.95
X1.4Y-5.35
X1.4Y-5.95
X1.5Y-5.35
X1.5Y-5.95
X1.6Y-5.35
X1.6Y-5.95
X1.7Y-5.35
X1.7Y-5.95
X1.8Y-5.35
X1.8Y-5.95
X1.9Y-5.35
X1.9Y-5.95
X2.0Y-5.35
X2.0Y-5.95
X2.1Y-5.35
X2.1Y-5.95
X2.2Y-5.35
X2.2Y-5.95
X2.3Y-5.35
X2.3Y-5.95
X2.4Y-5.35
X2.4Y-5.95
X2.5Y-5.35
X2.5Y-5.95
X2.6Y-5.35
X2.6Y-5.95
X2.7Y-5.35
X2.7Y-5.95
X2.8Y-5.35
X2.8Y-5.95
X2.9Y-5.35
X2.9Y-5.95
X3.0Y-5.35
X3.0Y-5.95
X3.1Y-5.35
X3.1Y-5.95
X1.6Y-1.1
X1.6Y-1.2
X1.6Y-1.3
X1.6Y-1.4
X1.6Y-1.5
X1.6Y-1.6
X1.6Y-1.7
X1.9Y-1.1
X1.9Y-1.2
X1.9Y-1.3
X1.9Y-1.4
X1.9Y-1.5
X1.9Y-1.6
X1.9Y-1.7
X7.85Y-1.5
X7.9484Y-1.5
X7.3Y-1.65
X7.6Y-1.65
X2.9Y-1.1
X2.9Y-1.1984
X3.0016Y-3.3
X3.1Y-3.3
X7.75Y-2.6
X7.75Y-2.9
X8.2Y-5.8516
X8.2Y-5.95
X4.85Y-1.35
X5.15Y-1.35
X1.7016Y-3.3
X1.8Y-3.3
X7.4Y-3.1
X7.4Y-3.2
X7.4Y-3.3
X7.4Y-3.4
X7.4Y-3.5
X7.4Y-3.6
X7.4Y-3.7
X7.4Y-3.8
X7.4Y-3.9
X7.4Y-4.0
X7.7Y-3.1
X7.7Y-3.2
X7.7Y-3.3
X7.7Y-3.4
X7.7Y-3.5
X7.7Y-3.6
X7.7Y-3.7
X7.7Y-3.8
X7.7Y-3.9
X7.7Y-4.0
X3.2Y-1.1
X3.2Y-1.2
X3.2Y-1.3
X3.2Y-1.4
X3.2Y-1.5
X3.2Y-1.6
X3.2Y-1.7
X3.5Y-1.1
X3.5Y-1.2
X3.5Y-1.3
X3.5Y-1.4
X3.5Y-1.5
X3.5Y-1.6
X3.5Y-1.7
X7.35Y-2.6
X7.35Y-2.9
X8.2398Y-3.5673
X8.2398Y-3.835
X8.35Y-3.5673
X8.35Y-3.65
X8.35Y-3.7524
X8.35Y-3.835
X5.45Y-1.9
X5.5484Y-1.9
X4.85Y-1.1
X5.15Y-1.1
X6.6Y-3.25
X6.6Y-3.85
X6.9Y-3.25
X6.9Y-3.85
X7.3Y-1.85
X7.6Y-1.85
X2.1Y-1.1016
X2.1Y-1.2
X7.8516Y-1.1
X7.95Y-1.1
X7.8516Y-1.3
X7.95Y-1.3
X2.5Y-3.5
X2.5Y-3.6
X2.5Y-3.7
X2.5Y-3.8
X2.5Y-3.9
X2.5Y-4.0
X2.5Y-4.1
X2.5Y-4.2
X2.5Y-4.3
X2.5Y-4.4
X2.5Y-4.5
X2.5Y-4.6
X2.5Y-4.7
X2.5Y-4.8
X3.1Y-3.5
X3.1Y-3.6
X3.1Y-3.7
X3.1Y-3.8
X3.1Y-3.9
X3.1Y-4.0
X3.1Y-4.1
X3.1Y-4.2
X3.1Y-4.3
X3.1Y-4.4
X3.1Y-4.5
X3.1Y-4.6
X3.1Y-4.7
X3.1Y-4.8
X7.9Y-3.1
X7.9Y-3.1984
X2.4Y-1.1
X2.4Y-1.2
X2.4Y-1.3
X2.4Y-1.4
X2.4Y-1.5
X2.4Y-1.6
X2.4Y-1.7
X2.7Y-1.1
X2.7Y-1.2
X2.7Y-1.3
X2.7Y-1.4
X2.7Y-1.5
X2.7Y-1.6
X2.7Y-1.7
X4.25Y-1.1
X4.25Y-1.2
X4.25Y-1.3
X4.25Y-1.4
X4.55Y-1.1
X4.55Y-1.2
X4.55Y-1.3
X4.55Y-1.4
X5.45Y-1.1
X5.45Y-1.7
X5.55Y-1.1
X5.55Y-1.7
X5.65Y-1.1
X5.65Y-1.7
X5.75Y-1.1
X5.75Y-1.7
X5.85Y-1.1
X5.85Y-1.7
X5.95Y-1.1
X5.95Y-1.7
X6.05Y-1.1
X6.05Y-1.7
X6.15Y-1.1
X6.15Y-1.7
X6.25Y-1.1
X6.25Y-1.7
X6.35Y-1.1
X6.35Y-1.7
X6.45Y-1.1
X6.45Y-1.7
X6.55Y-1.1
X6.55Y-1.7
X6.65Y-1.1
X6.65Y-1.7
X6.75Y-1.1
X6.75Y-1.7
X7.3Y-1.45
X7.6Y-1.45
X3.7Y-1.1
X3.7984Y-1.1
X3.95Y-1.1
X4.0484Y-1.1
X4.85Y-1.6
X5.15Y-1.6
X1.0Y-2.1
X1.0Y-2.7
X1.3Y-2.1
X1.3Y-2.7
X8.3Y-1.7
X8.3Y-2.0
X6.95Y-2.6
X6.95Y-2.9
X6.1Y-5.35
X6.1Y-5.95
X6.2Y-5.35
X6.2Y-5.95
X6.3Y-5.35
X6.3Y-5.95
X6.4Y-5.35
X6.4Y-5.95
X6.5Y-5.35
X6.5Y-5.95
X6.6Y-5.35
X6.6Y-5.95
X6.7Y-5.35
X6.7Y-5.95
X6.8Y-5.35
X6.8Y-5.95
X6.9Y-5.35
X6.9Y-5.95
X7.0Y-5.35
X7.0Y-5.95
X7.1Y-5.35
X7.1Y-5.95
X7.2Y-5.35
X7.2Y-5.95
X7.3Y-5.35
X7.3Y-5.95
X7.4Y-5.35
X7.4Y-5.95
X7.5Y-5.35
X7.5Y-5.95
X7.6Y-5.35
X7.6Y-5.95
X7.7Y-5.35
X7.7Y-5.95
X7.8Y-5.35
X7.8Y-5.95
X7.9Y-5.35
X7.9Y-5.95
X8.0Y-5.35
X8.0Y-5.95
X3.3Y-5.8516
X3.3Y-5.95
X5.6Y-4.1
X5.6Y-4.4
T4
X8.5374Y-1.4516
X8.5374Y-1.6484
T5
X6.45Y-2.35
X6.55Y-2.35
X7.65Y-2.35
X7.75Y-2.35
X6.85Y-2.35
X6.95Y-2.35
X7.25Y-2.35
X7.35Y-2.35
T6
X8.1Y-2.35
X8.1Y-2.4484
X8.1787Y-2.35
X8.1787Y-2.4484
T7
X7.5Y-4.3
X7.5Y-4.4
X7.5Y-4.5
X7.6Y-4.3
X7.6Y-4.4
X7.6Y-4.5
X2.75Y-6.4
X2.85Y-6.4
X2.95Y-6.4
X3.05Y-6.4
X3.15Y-6.4
X3.25Y-6.4
X3.35Y-6.4
X3.45Y-6.4
X3.55Y-6.4
X3.65Y-6.4
X3.75Y-6.4
X3.85Y-6.4
X1.0Y-1.5
X1.1Y-1.5
X1.2Y-1.5
X7.1Y-1.1
X7.1Y-1.2
X7.1Y-1.3
X7.1Y-1.4
X7.1Y-1.5
X7.1Y-1.6
X7.8031Y-1.85
X8.0Y-1.85
X6.0Y-2.9
X6.0Y-3.0
X6.0Y-3.1
X6.0Y-3.2
X6.0Y-3.3
X6.0Y-3.4
X6.0Y-3.5
X6.0Y-3.6
X6.0Y-3.7
X6.0Y-3.8
X6.0Y-3.9
X6.0Y-4.0
X6.0Y-4.1
X6.0Y-4.2
X6.0Y-4.3
X6.0Y-4.4
X6.1Y-2.9
X6.1Y-3.0
X6.1Y-3.1
X6.1Y-3.2
X6.1Y-3.3
X6.1Y-3.4
X6.1Y-3.5
X6.1Y-3.6
X6.1Y-3.7
X6.1Y-3.8
X6.1Y-3.9
X6.1Y-4.0
X6.1Y-4.1
X6.1Y-4.2
X6.1Y-4.3
X6.1Y-4.4
X6.5Y-6.4
X6.6Y-6.4
X6.7Y-6.4
X6.8Y-6.4
X6.9Y-6.4
X7.0Y-6.4
X7.1Y-6.4
X7.2Y-6.4
X7.3Y-6.4
X7.4Y-6.4
X7.5Y-6.4
X7.6Y-6.4
X7.7Y-6.4
X7.8Y-6.4
X7.9Y-6.4
X8.0Y-6.4
X1.35Y-6.4
X1.45Y-6.4
X1.55Y-6.4
X1.65Y-6.4
X1.75Y-6.4
X1.85Y-6.4
X1.95Y-6.4
X2.05Y-6.4
X2.15Y-6.4
X2.25Y-6.4
X2.35Y-6.4
X2.45Y-6.4
T8
X3.7441Y-1.4228
X3.7441Y-1.6
X4.0Y-1.4228
X4.0Y-1.6
T9
X5.75Y-6.2031
X5.75Y-6.4
X6.1437Y-6.3016
T10
X8.2854Y-2.1622
X8.2854Y-2.6362
T11
X8.4Y-1.1
X8.4Y-6.4
X1.0Y-6.4
X1.0Y-1.1
T2
G00X8.6299Y-1.4122
M15
G01X8.6575Y-1.4122
M16
G05
G00X8.6575Y-1.6878
M15
G01X8.6299Y-1.6878
M16
G05
T7
G00X8.15Y-3.0644
M15
G01X8.15Y-2.9856
M16
G05
G00X8.3075Y-2.84
M15
G01X8.2287Y-2.84
M16
G05
G00X8.3862Y-3.0644
M15
G01X8.3862Y-2.9856
M16
G05
G00X8.4327Y-3.4315
M15
G01X8.4917Y-3.4315
M16
G05
G00X8.4327Y-3.9709
M15
G01X8.4917Y-3.9709
M16
G05
G00X8.4937Y-3.7406
M15
G01X8.4937Y-3.6618
M16
G05
T0
M30
